<svg width="98" height="114" viewBox="0 0 98 114" fill="none" xmlns="http://www.w3.org/2000/svg">
<path fillRule="evenodd" clipRule="evenodd" d="M94.4225 24.6698C94.5155 23.9198 95.1985 23.3868 95.9485 23.4798C99.6645 23.9388 93.9395 28.5728 94.4225 24.6698Z" stroke="#231F20"/>
<path fillRule="evenodd" clipRule="evenodd" d="M69.9703 20.8895C70.0633 20.1395 70.7463 19.6065 71.4953 19.6995C75.2123 20.1585 69.4873 24.7925 69.9703 20.8895Z" fill="#231F20"/>
<path fillRule="evenodd" clipRule="evenodd" d="M60.5709 2.20054C60.6639 1.45054 61.3459 0.917536 62.0959 1.01054C65.8129 1.46954 60.0879 6.10354 60.5709 2.20054Z" stroke="#231F20"/>
<path fillRule="evenodd" clipRule="evenodd" d="M53.6071 112.468C49.3971 112.729 45.1801 112.932 40.9451 112.962C39.4011 112.973 37.8481 112.98 36.3041 112.923C30.9321 112.71 25.4941 112.594 20.0881 112.201C17.6891 112.018 15.2731 111.851 12.8941 111.551C11.3661 111.364 9.83611 111.131 8.31511 110.809C7.56311 110.611 6.79711 110.45 6.06511 110.17C5.33811 109.862 4.60911 109.579 3.93911 109.144C3.09211 108.637 3.31811 108.567 4.14411 108.699C4.94111 108.915 6.44311 108.914 8.09311 109.325C11.0571 109.992 14.1431 110.302 17.2291 110.552C20.3211 110.794 23.4361 110.946 26.5711 111.096C30.3121 111.276 34.2571 111.184 38.0901 111.253C42.2871 111.271 46.5111 111.107 50.7271 110.841C53.3221 110.676 55.9201 110.491 58.5111 110.266C62.4381 109.93 66.3851 109.572 70.2751 109.12C73.2991 108.77 76.2501 108.302 79.2341 107.883C79.8911 107.788 80.5341 107.696 81.1961 107.601C83.6571 107.295 84.4611 107.353 85.0421 107.822C85.1741 107.929 85.3461 108.032 85.4281 108.146C85.7051 108.53 84.7341 108.968 82.9461 109.269C77.6381 110.178 72.0021 110.853 66.3241 111.427C62.1071 111.854 57.8611 112.207 53.6161 112.513L53.6071 112.468Z" fill="#231F20"/>
<path fillRule="evenodd" clipRule="evenodd" d="M55.1422 78.7284C52.9032 77.2374 50.5022 75.8704 48.0392 75.0414C45.6502 74.2114 43.0272 74.3924 40.5862 75.3134C38.7952 75.9734 37.1222 77.0064 35.4852 78.1054C34.0372 79.0784 32.6352 80.1534 31.2232 81.2434C29.8042 82.3454 28.3712 83.4054 27.0102 84.5224C24.2652 86.7604 21.6492 89.1724 19.0932 91.6564C16.8312 93.8634 14.6072 96.1644 12.4522 98.4414C9.6952 101.388 7.0702 104.453 4.3502 107.407C3.5182 108.339 3.3092 107.981 3.6372 106.876C3.9802 105.788 4.8312 103.903 6.3542 102.103C9.0882 98.9574 11.9962 95.9724 14.9172 93.0484C17.8442 90.1134 20.8562 87.2114 24.0902 84.5174C26.0132 82.8984 28.0602 81.3114 30.0432 79.7334C32.0442 78.1384 34.1092 76.5234 36.3732 75.1864C37.6282 74.4644 38.9492 73.8304 40.3412 73.3384C41.7482 72.8814 43.2292 72.6014 44.7332 72.5694C46.2412 72.5764 47.7312 72.8684 49.1362 73.3694C50.4952 73.8754 51.7862 74.5004 53.0442 75.1814C56.1382 76.8644 58.9562 78.9544 61.6262 81.1794C65.6402 84.5904 69.3652 88.2934 73.1082 91.8854C76.0122 94.6834 78.9192 97.3624 81.8322 100.072C82.4762 100.665 83.1072 101.247 83.7552 101.845C86.1312 104.091 86.8032 104.883 86.9522 105.76C86.9862 105.959 87.0582 106.193 87.0432 106.348C87.0002 106.867 85.7632 106.227 83.9272 104.657C78.4852 100.006 73.1942 94.6714 67.7592 89.4894C63.7112 85.6534 59.6862 81.7844 55.1212 78.7734L55.1422 78.7284Z" fill="#231F20"/>
<path fillRule="evenodd" clipRule="evenodd" d="M0.046 88.7596C0.026 86.2996 0.037 83.8656 0.094 81.3956C0.123 80.4956 0.102 79.5946 0.161 78.6986C0.351 75.5356 0.768 72.4126 1.064 69.2976C1.2 67.9146 1.266 66.5236 1.302 65.1506C1.321 63.3856 1.338 61.6236 1.49 59.8606C1.546 59.3106 1.898 59.3716 2.271 59.8336C2.642 60.2936 3.065 61.1626 3.116 62.1996C3.269 65.8796 2.846 69.5226 2.385 73.1366C2.097 75.3016 2.044 77.5626 1.946 79.7746C1.845 82.1996 1.842 84.6546 1.852 87.1056C1.866 88.6136 1.883 90.1226 1.943 91.6276C2.028 93.9076 2.135 96.2006 2.384 98.4506C2.574 100.201 2.906 101.898 3.235 103.602C3.312 103.976 3.387 104.345 3.464 104.721C3.72 106.124 3.668 106.592 3.241 106.981C3.146 107.069 3.056 107.179 2.957 107.239C2.636 107.438 2.201 106.918 1.906 105.889C1.071 102.831 0.626 99.5186 0.358 96.1956C0.157 93.7256 0.064 91.2396 0 88.7646L0.046 88.7596Z" fill="#231F20"/>
<path fillRule="evenodd" clipRule="evenodd" d="M87.2545 87.8534C87.2105 85.5674 87.1115 83.2734 86.9735 80.9764C86.9235 80.1374 86.8085 79.3034 86.7615 78.4634C86.5755 75.4954 86.5195 72.4734 86.5695 69.4974C86.5965 68.1734 86.5865 66.8444 86.5825 65.5334C86.5855 64.6914 86.5485 63.8474 86.5905 63.0044C86.6435 62.1624 86.7345 61.3214 86.8755 60.4854C86.9675 59.9634 87.2665 60.0434 87.5975 60.4954C87.9215 60.9474 88.3335 61.7704 88.4285 62.7344C88.5525 66.1494 88.5655 69.5334 88.4625 72.9614C88.3985 75.0144 88.7015 77.1204 88.8675 79.2354C89.0475 81.5544 89.1975 83.8854 89.3035 86.2194C89.3725 87.6554 89.4075 89.0964 89.4345 90.5354C89.4715 92.7164 89.4135 94.9104 89.3375 97.0824C89.2675 98.7724 89.2635 100.444 89.0735 102.141C89.0395 102.514 88.9875 102.883 88.9235 103.258C88.8485 103.604 88.7885 103.89 88.6975 104.122C88.5995 104.353 88.4835 104.528 88.3795 104.669C88.1655 104.948 87.9445 105.076 87.6615 105.14C87.5325 105.169 87.4015 105.218 87.2865 105.221C86.9085 105.229 86.7275 104.59 86.7525 103.625C86.9975 100.791 87.2245 97.8044 87.2735 94.7374C87.3175 92.4644 87.2915 90.1624 87.2015 87.8594L87.2545 87.8534Z" fill="#231F20"/>
<path fillRule="evenodd" clipRule="evenodd" d="M71.7677 63.0453C73.7137 61.8143 75.6497 60.5673 77.5417 59.2683C78.2327 58.7943 78.8797 58.2643 79.5607 57.7833C80.7597 56.9333 81.9487 56.0693 83.0677 55.1523C83.6227 54.6913 84.1677 54.2213 84.6547 53.7363C84.8787 53.5143 85.1467 53.1923 85.2447 53.0503C85.3337 52.9203 85.4367 52.7293 85.3327 52.5763C85.2887 52.5143 85.2487 52.4463 85.1997 52.3863L84.9137 52.0023C84.7097 51.7453 84.5297 51.4683 84.3297 51.2073C83.9307 50.6843 83.5337 50.1623 83.1377 49.6433C82.1017 48.3303 81.0817 47.0383 80.0217 45.6943C79.3697 44.8743 80.9757 45.1883 82.3867 46.5693C83.6407 47.7743 84.8567 49.0053 86.0237 50.2943C86.1687 50.4573 86.3197 50.6143 86.4487 50.7903L86.9487 51.4403C87.2027 51.7693 87.3797 52.1173 87.4217 52.5123C87.4397 52.9073 87.3497 53.2963 87.1757 53.6593C87.0957 53.8433 86.9807 54.0073 86.8837 54.1783C86.7957 54.3093 86.7217 54.4053 86.6377 54.5123C86.4757 54.7133 86.3107 54.8983 86.1437 55.0723C85.8097 55.4183 85.4717 55.7283 85.1187 56.0173C83.4327 57.3753 81.7767 58.7693 80.0407 60.0243C78.1317 61.3933 76.1817 62.6883 74.2257 63.9663L70.6007 66.3023C68.7717 67.4813 66.9097 68.6233 65.1147 69.8203C63.7197 70.7513 62.4167 71.7643 61.0697 72.7353C60.7727 72.9493 60.4937 73.1753 60.1877 73.3813C59.0637 74.1573 58.5957 74.2283 58.0467 73.9073C57.9227 73.8343 57.7817 73.7753 57.6817 73.6903C57.3557 73.4183 57.6057 72.7723 58.3747 72.1253C60.6677 70.2173 63.2637 68.4983 65.8807 66.7913C67.8277 65.5313 69.7837 64.2653 71.7347 63.0033L71.7677 63.0453Z" fill="#231F20"/>
<path fillRule="evenodd" clipRule="evenodd" d="M15.8922 66.5536C13.6512 65.1906 11.4262 63.7946 9.2282 62.3436C8.4262 61.8126 7.5952 61.3266 6.8092 60.7636C5.4252 59.7586 4.0582 58.7546 2.7772 57.4706C2.6182 57.3066 2.4602 57.1346 2.3052 56.9456C2.1242 56.7326 1.9022 56.4186 1.7642 56.1366C1.6272 55.8416 1.5422 55.5276 1.5672 55.2076C1.5932 54.8856 1.7802 54.6206 1.9662 54.3616C2.4582 53.7876 2.7062 53.5726 3.0282 53.2636L3.9612 52.3976C5.0632 51.3906 6.1682 50.3806 7.2612 49.3816C8.6402 48.0866 10.0502 46.7976 11.3642 45.4866C11.7622 45.0806 11.9222 45.2756 11.8022 45.8366C11.6822 46.3986 11.2452 47.2906 10.5252 48.1306C9.2682 49.6386 7.9702 51.0946 6.6512 52.5166C5.9922 53.2266 5.2622 53.8636 4.5842 54.5306C3.7332 55.4306 3.6632 55.2126 3.7292 55.5226C3.7512 55.5696 3.7272 55.5576 3.8112 55.6666C3.8802 55.7616 3.9682 55.8596 4.0512 55.9556C4.2292 56.1496 4.4202 56.3426 4.6282 56.5296C5.0402 56.9066 5.4932 57.2666 5.9592 57.6156C6.8942 58.3146 7.8882 58.9696 8.8662 59.6316C11.0232 61.0846 13.2392 62.4836 15.4792 63.8426C16.8582 64.6786 18.2452 65.5066 19.6442 66.3096C21.7662 67.5246 23.8972 68.7526 26.0562 69.8636C27.7352 70.7266 29.4452 71.4496 31.1472 72.2176C31.5222 72.3856 31.8982 72.5326 32.2712 72.7116C33.6632 73.3596 34.0132 73.7446 34.0552 74.3976C34.0652 74.5456 34.0982 74.7026 34.0812 74.8336C34.0332 75.2606 33.2852 75.3516 32.2152 74.9616C29.0512 73.7906 25.8942 72.1966 22.7692 70.5136C20.4492 69.2626 18.1542 67.9366 15.8692 66.6016L15.8922 66.5536Z" fill="#231F20"/>
<path fillRule="evenodd" clipRule="evenodd" d="M19.8214 32.035C24.4614 31.405 29.0924 30.974 33.7294 30.59C35.4204 30.451 37.1064 30.261 38.7974 30.149C44.7624 29.745 50.7384 29.55 56.7144 29.448C59.3664 29.408 62.0324 29.342 64.6704 29.342C66.3644 29.35 68.0684 29.326 69.7734 29.483C70.6264 29.555 71.4784 29.645 72.3324 29.794C73.1874 29.952 74.0384 30.117 74.9014 30.514C75.4504 30.771 75.6234 31.129 75.5044 31.185C75.3854 31.263 75.0784 31.192 74.6344 31.211C73.7444 31.208 72.1554 31.396 70.2544 31.358C63.4984 31.173 56.6164 31.399 49.7024 31.554C45.5614 31.66 41.2634 32.046 37.0394 32.38C32.3954 32.745 27.7494 33.157 23.1304 33.719C20.2964 34.077 17.4364 34.444 14.7044 35.084C14.4514 35.151 14.1924 35.211 13.9484 35.288C13.8264 35.325 13.6984 35.359 13.5844 35.401C13.4584 35.446 13.3484 35.479 13.2994 35.503C13.1694 35.556 13.0264 35.613 12.9344 35.725C12.8734 35.853 12.8834 36.002 12.8754 36.154C12.8504 37.159 12.8814 38.292 12.9024 39.363C12.9584 41.535 13.0364 43.707 13.1304 45.865C13.2814 49.221 13.5534 52.506 13.7324 55.831C13.7734 56.563 13.8134 57.282 13.8544 58.02C13.9484 60.764 13.7934 61.667 13.2164 62.243C13.0874 62.372 12.9554 62.541 12.8274 62.61C12.3874 62.825 12.1184 61.752 11.9764 59.772C11.5424 53.883 11.0914 47.638 10.8484 41.348L10.7464 37.823L10.7374 36.927V36.47L10.7474 35.882C10.7464 35.597 10.8224 35.321 10.8894 35.062C10.9304 34.789 11.0754 34.558 11.2494 34.346C11.5584 33.902 12.1584 33.677 12.6454 33.467C13.9554 33.009 15.0944 32.802 16.2874 32.564C17.4664 32.344 18.6374 32.158 19.8074 31.983L19.8214 32.035Z" fill="#231F20"/>
<path fillRule="evenodd" clipRule="evenodd" d="M76.9562 42.4222L77.0192 45.9592C77.0292 46.3902 77.1012 46.8152 77.1102 47.2462C77.1352 48.7672 77.1582 50.2932 77.2432 51.8132C77.2802 52.4872 77.3742 53.1592 77.4752 53.8202C77.6222 54.6682 77.8112 55.5132 77.6982 56.3962C77.6662 56.6702 77.3102 56.6822 76.9102 56.5072C76.5132 56.3312 76.0402 55.9712 75.9082 55.4872C75.5852 53.7512 75.3852 51.9972 75.3962 50.2042C75.4072 49.1322 75.1822 48.0442 75.0882 46.9582C74.9872 45.7652 74.9142 44.5682 74.8762 43.3682L74.8022 41.1542C74.7672 40.0352 74.7322 38.9132 74.6982 37.8032C74.6642 36.9412 74.4752 36.0972 74.4812 35.2362C74.4782 35.0472 74.4552 34.8622 74.4662 34.6712C74.5112 33.9622 74.6502 33.7382 75.0642 33.5992C75.1592 33.5672 75.2522 33.5252 75.3442 33.5072C75.6532 33.4502 75.9182 33.7412 76.0632 34.2452C76.2482 34.9932 76.5222 35.7542 76.6102 36.5272C76.7122 37.2992 76.8012 38.0862 76.8592 38.8742C76.9092 40.0512 76.9592 41.2352 77.0092 42.4162L76.9562 42.4222Z" fill="#231F20"/>
<path fillRule="evenodd" clipRule="evenodd" d="M46.8146 17.3719C46.1216 17.4059 44.9916 17.8719 44.0166 18.4169C43.0096 18.9649 42.0126 19.6049 41.0356 20.2819C40.3196 20.7739 39.6526 21.3389 38.9466 21.8529C36.4426 23.6599 33.9676 25.5559 31.5306 27.5049C30.4486 28.3689 29.3976 29.2839 28.3506 30.1839C27.6656 30.7469 26.9846 31.3229 26.2626 31.8589C25.5286 32.3909 24.8096 32.9099 23.8386 33.2539C23.4996 33.3549 23.2916 33.2679 23.2996 33.1279C23.2936 32.9789 23.4156 32.7739 23.5226 32.5269C23.7586 32.0309 24.1626 31.2589 24.9046 30.6079C27.4936 28.2319 30.2666 25.9019 33.1836 23.7139C34.9446 22.4209 36.6046 20.8579 38.4186 19.5239C40.4336 18.0779 42.4286 16.6109 44.8856 15.6109C45.2646 15.4589 45.6776 15.3379 46.1146 15.2509C46.3536 15.2279 46.5596 15.1709 46.8226 15.1869C47.0806 15.1999 47.3516 15.2089 47.5556 15.2829C48.4586 15.5039 49.1426 15.9209 49.8216 16.3329C51.8426 17.6189 53.5186 19.2199 55.2016 20.7699C56.4996 21.9839 57.8176 23.1329 59.0686 24.3789C59.3416 24.6549 59.6306 24.9069 59.8846 25.2059C60.8316 26.3079 60.9866 26.7829 60.7246 27.3869C60.6636 27.5249 60.6176 27.6789 60.5396 27.7929C60.2716 28.1789 59.6166 27.9599 58.8366 27.2719C56.5166 25.2409 54.3286 22.8919 51.9446 20.7869C51.0636 20.0119 50.1676 19.2469 49.2456 18.5989C48.7856 18.2759 48.3176 17.9999 47.8626 17.7609C47.6536 17.6869 47.4096 17.5459 47.2336 17.5119L46.9656 17.4349C46.9156 17.4429 46.8686 17.4409 46.8186 17.4279L46.8146 17.3719Z" fill="#231F20"/>
<path fillRule="evenodd" clipRule="evenodd" d="M50.6583 44.7313L44.9253 44.9223L42.8363 45.0443C40.3783 45.1403 37.9113 45.1323 35.4493 45.1713C34.3543 45.1983 33.2583 45.2263 32.1713 45.2533C30.7703 45.2763 29.3873 45.3813 27.9213 45.0183C27.4573 44.8843 27.6293 44.7243 28.0293 44.5873C28.4023 44.4803 29.0543 44.2633 29.8313 44.2563C32.6213 44.1413 35.4453 43.8723 38.2983 43.8043C40.0063 43.7463 41.7763 43.5623 43.5213 43.4423L49.2853 43.0963L52.8343 42.8893C54.6263 42.7743 56.4293 42.7053 58.2083 42.5683C59.5923 42.4673 60.9413 42.2523 62.3163 42.1213C62.6193 42.0903 62.9143 42.0433 63.2203 42.0223C64.3623 41.9673 64.7303 42.0913 64.9713 42.5913C65.0263 42.7053 65.0983 42.8193 65.1303 42.9343C65.2343 43.3223 64.7773 43.6503 63.9693 43.7723C61.5663 44.1523 59.0103 44.3383 56.4323 44.4993C54.5193 44.6273 52.5883 44.6743 50.6643 44.7743L50.6583 44.7313Z" fill="#231F20"/>
<path fillRule="evenodd" clipRule="evenodd" d="M48.9459 52.5101C48.2189 52.5071 47.4909 52.5041 46.7669 52.5001C46.4999 52.5001 46.2369 52.5471 45.9689 52.5381C45.0249 52.5091 44.0789 52.4451 43.1379 52.3971C42.7209 52.3691 42.3019 52.3891 41.8879 52.3961C41.3569 52.4161 40.8199 52.4741 40.2939 52.3201C39.9669 52.2291 40.4289 51.1021 41.0209 51.0721C42.0779 51.0331 43.1259 51.0281 44.1999 51.1411C44.8439 51.2091 45.5059 51.0901 46.1629 51.0531C46.8879 51.0271 47.6179 51.0001 48.3449 50.9731C48.7969 50.9581 49.2489 50.9421 49.6979 50.9271C50.3809 50.8961 51.0709 50.9021 51.7509 50.8471C52.2799 50.8061 52.7979 50.6761 53.3259 50.5941C53.4429 50.5751 53.5559 50.5441 53.6739 50.5361C54.1099 50.5091 54.2469 50.6251 54.3259 51.0891C54.3439 51.1951 54.3689 51.3001 54.3779 51.4061C54.4069 51.7651 54.2259 52.0561 53.9199 52.1511C53.0089 52.4291 52.0689 52.4671 51.1089 52.5031C50.3919 52.5181 49.6699 52.5331 48.9499 52.5491L48.9459 52.5101Z" fill="#231F20"/>
<path fillRule="evenodd" clipRule="evenodd" d="M54.9069 113.255C51.4569 113.466 48.0029 113.629 44.5439 113.744C43.2819 113.777 42.0209 113.856 40.7569 113.861C36.2849 113.866 31.8609 113.653 27.4249 113.469C25.4559 113.397 23.4789 113.325 21.5259 113.253C19.0199 113.13 16.4809 113.172 14.0089 112.579C13.2369 112.416 13.3619 112.234 14.0429 112.009C14.3849 111.894 14.8649 111.767 15.4409 111.631C15.7289 111.57 16.0419 111.489 16.3699 111.457C16.6969 111.438 17.0429 111.429 17.4019 111.445C22.4899 111.62 27.5669 111.796 32.7189 111.973C35.8029 112.111 38.9849 111.975 42.1209 111.835C45.5699 111.684 49.0299 111.533 52.4849 111.298C54.6109 111.155 56.7399 111.005 58.8629 110.822C62.0799 110.548 65.3139 110.267 68.4949 109.871C70.9689 109.566 73.3749 109.109 75.8039 108.696C76.3389 108.603 76.8589 108.491 77.3999 108.409C79.4029 108.103 80.0599 108.162 80.5759 108.717C80.6929 108.843 80.8419 108.964 80.9189 109.096C81.1769 109.544 80.4089 110.044 78.9499 110.377C74.6199 111.356 69.9909 111.94 65.3349 112.423C61.8769 112.779 58.3929 113.05 54.9159 113.308L54.9069 113.255Z" fill="#231F20"/>
<path fillRule="evenodd" clipRule="evenodd" d="M19.653 68.0213L15.274 65.3013C14.744 64.9653 14.184 64.6813 13.658 64.3393C11.808 63.1253 9.981 61.8743 8.212 60.5293C7.404 59.9693 6.636 59.3323 5.859 58.7393C5.375 58.3283 4.861 57.9693 4.405 57.5123L3.715 56.8483C3.495 56.6103 3.293 56.3473 3.095 56.0923C2.851 55.7673 3.084 55.6643 3.5 55.7273C3.923 55.7923 4.477 56.0083 5.072 56.3813C6.095 57.0523 7.202 57.6493 8.28 58.2773C9.337 58.9433 10.345 59.6963 11.369 60.4533C12.566 61.4023 13.973 62.1413 15.299 62.9603C16.753 63.8673 18.216 64.7703 19.689 65.6533L22.422 67.2693C23.812 68.0633 25.201 68.8803 26.621 69.5983C27.726 70.1543 28.866 70.5893 29.995 71.0663C30.243 71.1713 30.495 71.2573 30.74 71.3733C31.659 71.7853 31.859 72.0953 31.802 72.6823C31.789 72.8153 31.792 72.9533 31.762 73.0743C31.67 73.4683 31.121 73.6383 30.403 73.4173C28.279 72.7483 26.202 71.7203 24.153 70.6223C22.63 69.8083 21.132 68.9303 19.63 68.0673L19.653 68.0213Z" fill="#231F20"/>
<path fillRule="evenodd" clipRule="evenodd" d="M69.7467 63.4847C71.1497 62.6077 72.5487 61.7237 73.9247 60.8097C74.4277 60.4757 74.8917 60.0907 75.3927 59.7577C77.1577 58.5787 78.9207 57.3957 80.6237 56.1427C81.3597 55.5657 82.1107 54.9957 82.7877 54.3747C83.2257 53.9787 83.6387 53.5597 84.0227 53.1367C84.4007 52.7387 84.7607 52.2027 84.7977 51.8987C84.7887 51.7897 84.9387 51.4727 85.3317 51.7957C85.5017 51.9747 85.5867 52.3357 85.5487 52.6897C85.5177 53.0497 85.3757 53.4087 85.1847 53.7467C84.4817 54.9237 83.6437 55.8937 82.7627 56.8177C81.8397 57.6917 80.8127 58.4267 79.7617 59.1227C78.4767 59.9197 77.2867 60.9257 76.0257 61.7967C74.6417 62.7517 73.2337 63.6707 71.8247 64.5837L69.2177 66.2577C67.9067 67.1087 66.5667 67.9267 65.2887 68.8047C64.2947 69.4867 63.3847 70.2547 62.4327 70.9787C62.2227 71.1377 62.0287 71.3107 61.8097 71.4617C61.0107 72.0347 60.6467 72.0467 60.1767 71.6947C60.0697 71.6157 59.9517 71.5467 59.8627 71.4587C59.5747 71.1767 59.6977 70.6247 60.2287 70.1307C61.8127 68.6757 63.6557 67.4167 65.5227 66.1757C66.9167 65.2677 68.3177 64.3547 69.7157 63.4427L69.7467 63.4847Z" fill="#231F20"/>
<path fillRule="evenodd" clipRule="evenodd" d="M22.7018 86.1756L20.0338 88.3926L17.4388 90.7006L15.6178 92.4646C13.4588 94.5166 11.2898 96.5706 9.24879 98.7506C8.34379 99.7176 7.46579 100.721 6.63479 101.739C5.55979 103.042 4.56979 104.417 3.34879 105.598C2.97479 105.97 2.77679 105.734 2.79179 105.178C2.81479 104.629 3.00579 103.719 3.59379 102.926C5.77179 100.199 8.10979 97.6106 10.6628 95.1956C12.1858 93.7496 13.6598 92.1366 15.2378 90.6796C16.0918 89.8656 16.9668 89.0746 17.8568 88.2986C18.7318 87.5066 19.6368 86.7486 20.5418 85.9906C21.6388 85.0396 22.7938 84.1546 23.9238 83.2456C25.6598 81.8966 27.4428 80.5906 29.2338 79.3406C30.5938 78.3236 31.9778 77.3916 33.3568 76.4176C33.6718 76.2206 33.9828 76.0266 34.2988 75.8286C35.4988 75.1276 35.9388 75.0066 36.3958 75.2376C36.4998 75.2896 36.6218 75.3316 36.7008 75.3986C36.9678 75.6246 36.6088 76.1386 35.7928 76.7136C33.3438 78.3666 30.8028 80.1396 28.2548 81.9386C27.3258 82.6326 26.3948 83.3286 25.4628 84.0256L22.7288 86.2026L22.7018 86.1756Z" fill="#231F20"/>
<path fillRule="evenodd" clipRule="evenodd" d="M10.713 55.9286C10.728 55.1716 10.743 54.4136 10.757 53.6586C10.761 53.3836 10.725 53.1116 10.732 52.8366C10.76 51.8676 10.832 50.8976 10.837 49.9326C10.843 49.5036 10.809 49.0756 10.774 48.6536C10.723 48.1116 10.629 47.5726 10.694 47.0206C10.729 46.6766 11.644 47.0206 11.759 47.6506C11.926 48.7646 12.022 49.8836 11.963 51.0156C11.927 51.6926 12.046 52.3876 12.065 53.0746C12.084 53.8276 12.103 54.5856 12.123 55.3406C12.139 55.8046 12.155 56.2696 12.171 56.7316C12.209 57.4326 12.232 58.1376 12.33 58.8276C12.417 59.3616 12.571 59.8766 12.687 60.3966C12.713 60.5116 12.739 60.6236 12.754 60.7406C12.798 61.1746 12.71 61.3276 12.379 61.4736C12.303 61.5076 12.229 61.5476 12.154 61.5716C11.9 61.6536 11.65 61.5086 11.486 61.1996C10.967 60.2876 10.809 59.2586 10.754 58.2296C10.699 57.4656 10.694 56.6956 10.677 55.9316L10.713 55.9286Z" fill="#231F20"/>
</svg>
