<svg width="114" height="109" viewBox="0 0 114 109" fill="none" xmlns="http://www.w3.org/2000/svg">
<path fill-rule="evenodd" clip-rule="evenodd" d="M37.4744 105.795C31.0684 104.327 37.3954 93.0054 44.0274 84.4794C48.0484 79.3094 50.8454 73.9684 50.8454 73.9684L48.2604 72.1124C48.2604 72.1124 42.8654 81.0304 39.6564 84.4524C36.4484 87.8744 31.6574 95.6474 31.4334 98.6614C31.2094 101.676 31.3984 105.795 37.4744 105.795Z" fill="#231F20"/>
<path fill-rule="evenodd" clip-rule="evenodd" d="M87.5535 100.983C73.2375 100.351 38.8955 56.4299 38.8955 56.4299C41.9815 55.0279 45.6785 49.1109 45.6785 49.1109L44.1845 47.5319C44.1845 47.5319 38.9945 54.4859 34.9225 55.2159C34.9225 55.2159 33.8305 55.1699 35.5665 56.8919C37.3025 58.6159 51.7815 74.3999 54.6765 78.0579C57.5705 81.7159 75.3225 99.9839 80.2755 101.462C84.9445 102.854 84.9445 102.854 86.2975 101.87L87.5535 100.983Z" fill="#231F20"/>
<path fill-rule="evenodd" clip-rule="evenodd" d="M30.9783 55.4907C28.1263 56.0287 25.1853 55.8887 22.4163 55.1787L20.9103 54.7527C20.4053 54.6197 19.9343 54.3897 19.4493 54.2027C17.7403 53.5217 16.1843 52.5367 14.6893 51.4967C13.9883 50.9147 13.2553 50.3687 12.5963 49.7427C11.9643 49.0887 11.2633 48.5027 10.7063 47.7817C10.1923 47.1607 9.63233 46.5757 9.18533 45.9027C8.71533 45.2487 8.21833 44.6127 7.83833 43.9077L7.04833 42.5827C6.81533 42.1247 6.60333 41.6537 6.38633 41.1877C6.16733 40.7207 5.94733 40.2547 5.84133 39.7447C5.70333 39.2487 5.58133 38.7477 5.49233 38.2417C5.38133 37.6107 5.54833 37.6587 5.95733 38.0847C6.39533 38.5047 7.01333 39.2987 7.54133 40.2827C9.22933 43.8617 11.5503 47.1507 14.6093 49.7787C16.4283 51.3597 18.6653 52.5887 20.9803 53.4247C23.5273 54.3357 26.2703 54.7687 28.9733 54.5007C29.7973 54.3947 30.6253 54.2607 31.4363 54.0727C32.2273 53.8047 33.0483 53.6377 33.8143 53.2817C36.1683 52.3187 38.3663 50.9137 40.1733 49.1497C41.5553 47.7597 42.6743 46.1657 43.4523 44.4257C43.6283 44.0447 43.7793 43.6637 43.9193 43.2667C44.4633 41.8067 44.6053 41.3437 45.1043 41.1007C45.2143 41.0457 45.3293 40.9627 45.4303 40.9347C45.7463 40.8327 45.9293 41.5717 45.6113 42.7937C44.7033 46.4407 42.1073 49.7247 38.9373 51.9997C36.5763 53.7177 33.8703 54.9157 30.9883 55.5217L30.9783 55.4907Z" fill="#231F20"/>
<path fill-rule="evenodd" clip-rule="evenodd" d="M26.1663 38.6792C26.3283 38.4792 26.9733 37.6902 27.6553 36.9392C28.3343 36.1852 29.0763 35.4962 29.2183 35.3782C29.4193 35.1842 30.4023 34.4422 30.5063 34.3622C30.5163 34.3562 30.6213 34.2822 30.7793 34.1702C30.8573 34.1172 30.9483 34.0552 31.0473 33.9892L31.1233 33.9532C31.1643 33.9482 31.1323 33.8902 31.1393 33.8582L31.1353 33.7992C31.1263 33.7422 31.1193 33.6862 31.1123 33.6322C31.0793 33.4002 31.0523 33.2122 31.0403 33.1222C31.0313 33.0352 30.9023 31.8032 30.7693 30.5262C30.6293 29.2652 30.2943 27.9972 30.1873 27.7422C30.1193 27.5582 29.9313 26.9552 29.7023 26.3582C29.4673 25.7622 29.2053 25.1672 29.0993 24.9732C29.0333 24.8402 29.3723 24.6662 29.4383 24.7712C29.7173 25.2142 29.9973 25.6642 30.2003 26.1522C30.3563 26.5252 30.7003 27.3462 30.9313 28.1162C31.1703 28.8842 31.3143 29.5862 31.3313 29.6422C31.4693 30.1692 31.5843 30.7012 31.6903 31.2312L31.8313 31.9722L32.0223 32.9922L32.1303 33.4922L32.3083 34.2442C32.3063 34.3032 32.3793 34.3882 32.3143 34.4252L32.1563 34.5502L31.8353 34.8042L31.4163 35.1522L30.6873 35.7782C29.9793 36.3822 29.3193 37.0222 28.6993 37.7222C28.3463 38.1222 28.0143 38.5422 27.6703 38.9572C27.4703 39.2032 27.2303 39.4182 27.0203 39.6592C26.8653 39.8352 26.5973 39.8032 26.3093 39.7102C25.9813 39.6082 26.0513 38.8222 26.1663 38.6792Z" fill="#231F20"/>
<path fill-rule="evenodd" clip-rule="evenodd" d="M83.095 46.1958C77.963 44.9998 69.053 38.8478 65.58 38.8478C64.153 38.8478 65.435 44.2618 66.1 44.5318C66.766 44.8018 64.102 44.7688 63.657 41.8478C63.211 38.9268 64.173 34.9288 64.173 34.9288C64.173 34.9288 70.117 38.9528 72.765 39.6628C75.413 40.3728 84.613 44.9198 84.613 44.9198C84.613 44.9198 83.746 46.3468 83.095 46.1958Z" fill="#231F20"/>
<path fill-rule="evenodd" clip-rule="evenodd" d="M63.5388 45.6157C63.5388 45.6157 64.5018 45.8747 64.1728 47.5317C63.8428 49.1897 58.4748 60.7957 58.4748 60.7957L56.6948 58.3187L63.5388 45.6157Z" fill="#231F20"/>
<path fill-rule="evenodd" clip-rule="evenodd" d="M57.8694 17.8481C57.3764 20.3741 55.4484 22.3741 54.6764 22.4271C54.2814 22.4531 53.5964 22.5951 53.7104 22.2161C53.3354 23.4601 54.1664 25.9391 55.4344 24.7161C56.1794 23.9981 56.7984 23.0871 57.3854 22.2421C58.4224 20.7471 61.8164 18.4801 60.9184 16.4041C60.9184 16.4041 59.6774 13.6371 56.4394 15.9801C56.4394 15.9801 58.2334 15.9801 57.8694 17.8481Z" fill="#231F20"/>
<path fill-rule="evenodd" clip-rule="evenodd" d="M89.9592 32.9272C88.8752 31.5902 87.5652 30.3732 86.1722 29.2512C85.6622 28.8442 85.1212 28.4752 84.5932 28.0872C82.7282 26.7192 80.7632 25.4622 78.7522 24.2802C77.8612 23.7522 76.9472 23.2532 76.0442 22.7592C74.8882 22.1152 73.6952 21.5312 72.6252 20.6942C72.2972 20.4072 72.4322 20.3652 72.7762 20.4742C73.1262 20.5782 73.7322 20.7822 74.4052 21.1262C76.7922 22.3482 79.2502 23.5052 81.5692 24.9592C82.9582 25.8252 84.4462 26.6622 85.8382 27.6132C87.3532 28.6722 88.8402 29.8062 90.1372 31.1682C90.9362 32.0032 91.6732 32.9152 92.2562 33.9442C92.4692 34.3372 92.6802 34.7382 92.8212 35.1712C92.9942 35.5642 93.0692 36.1132 93.1762 36.4322C93.3132 37.0622 94.0632 37.4762 94.7882 37.8352C95.9442 38.3952 97.2522 38.8552 98.3252 39.8062C98.5692 40.0012 98.7912 40.2162 98.9992 40.4592C99.3842 40.9052 99.5602 41.2662 99.5912 41.5512C99.6322 41.8332 99.5992 42.0172 99.5132 42.1862C99.4742 42.2642 99.4452 42.3532 99.4002 42.4052C99.2462 42.5852 98.8862 42.2582 98.3452 41.7752C97.6672 40.9682 96.8212 40.3682 95.8102 39.8752C95.3052 39.6192 94.7722 39.3962 94.1902 39.1172C93.6242 38.8202 92.9742 38.5142 92.3762 37.8322C91.9202 37.3642 91.7252 36.4072 91.6842 36.1892C91.5982 35.8152 91.4702 35.4372 91.2922 35.0712C90.9532 34.3322 90.4832 33.6182 89.9362 32.9502L89.9592 32.9272Z" fill="#231F20"/>
<path fill-rule="evenodd" clip-rule="evenodd" d="M45.9485 43.9634C45.1845 46.4134 43.8125 48.6494 42.1065 50.5224C40.3895 52.4004 38.3025 53.8774 36.0735 54.9994C35.2525 55.3964 34.4295 55.7774 33.5765 56.0984C32.6975 56.3604 31.8345 56.6964 30.9345 56.8774C27.7635 57.5634 24.4485 57.4154 21.3585 56.5704C18.2625 55.7214 15.3935 54.1864 12.9285 52.1924C10.7485 50.4124 8.81353 48.3174 7.27453 45.9834C5.33253 42.9864 3.87553 39.5414 3.70953 35.9574C3.63053 34.8484 3.85653 34.9824 4.37153 35.8204C4.62453 36.2404 4.99353 36.8224 5.31453 37.5314C5.64653 38.2414 6.19453 39.0004 6.45253 39.9224C7.63753 43.1114 9.47853 46.0114 11.7655 48.5004C14.0495 50.9964 16.8855 53.0224 20.0795 54.2834C20.5635 54.4554 21.0495 54.6294 21.5365 54.8034C22.0255 54.9834 22.5455 55.0444 23.0525 55.1684C24.0675 55.4454 25.1245 55.4524 26.1735 55.5574C26.6985 55.5684 27.2255 55.5194 27.7525 55.5044L28.5435 55.4704C28.8035 55.4354 29.0625 55.3824 29.3235 55.3394L30.8805 55.0694L32.3885 54.6104C36.8005 53.1994 40.8865 50.3254 43.0895 46.2164C43.7665 44.9614 44.2675 43.6114 44.5825 42.2154C44.8345 40.8014 45.0655 39.3704 45.0305 37.9254L45.0435 37.1064L44.9655 36.2884C44.9065 35.7444 44.8765 35.1954 44.7975 34.6534C44.5585 33.5824 44.4055 32.4894 44.0215 31.4544C43.4015 29.3424 42.3995 27.3564 41.2215 25.5194C39.3575 22.6754 36.9325 20.2854 34.1805 18.4714C33.5465 18.1234 32.9485 17.7354 32.2985 17.4294C29.8925 16.2504 29.1085 16.1644 28.6265 15.4564C28.5135 15.3054 28.3515 15.1454 28.2855 15.0054C28.1745 14.7684 28.4085 14.6144 28.9755 14.5514C29.2575 14.5184 29.6235 14.5134 30.0565 14.5484C30.4705 14.6294 30.9515 14.7474 31.4895 14.9034C34.6295 15.9464 37.3515 18.0024 39.6685 20.4104C41.9745 22.8464 43.8555 25.7444 45.1345 28.9184C47.0525 33.6184 47.4885 39.0184 45.9935 43.9714L45.9485 43.9634Z" fill="#231F20"/>
<path fill-rule="evenodd" clip-rule="evenodd" d="M29.8298 33.6987C29.8418 33.6787 29.8528 33.6507 29.8588 33.6057L29.6848 32.7667C29.5588 32.1827 29.4188 31.5957 29.2708 31.0117C29.1648 30.5847 28.9928 30.1777 28.8928 29.7477C28.5248 28.2347 28.1508 26.7167 27.7128 25.2177C27.5178 24.5527 27.2678 23.9027 27.0078 23.2677C26.6548 22.4587 26.2748 21.6597 26.1538 20.7617C26.1158 20.4827 26.4878 20.3727 26.9438 20.4427C27.3958 20.5137 27.9588 20.7607 28.1948 21.2227C28.9418 22.8927 29.4878 24.6357 29.8688 26.4427C30.0898 27.5257 30.5358 28.5807 30.8458 29.6627L31.3178 31.4597L31.7628 33.3597L31.9468 34.2057C31.9638 34.3397 32.0358 34.4947 32.0068 34.6087L31.6298 34.8287L30.8908 35.2647L30.3788 35.5777C29.4308 36.1667 28.5168 36.8067 27.7218 37.5787C27.1038 38.1797 26.6128 38.8857 26.0978 39.5747C25.9848 39.7267 25.8828 39.8837 25.7598 40.0307C25.3008 40.5677 25.0538 40.6527 24.5658 40.4287C24.4548 40.3787 24.3368 40.3377 24.2358 40.2757C23.8938 40.0687 23.8408 39.6327 24.0968 39.1477C24.8528 37.7137 26.0158 36.4357 27.3768 35.3097C27.8818 34.8937 28.4158 34.5117 28.9588 34.1617L29.3678 33.9017L29.7188 33.6877C29.7368 33.6847 29.7558 33.6857 29.7748 33.6777L29.8298 33.6987Z" fill="#231F20"/>
<path fill-rule="evenodd" clip-rule="evenodd" d="M17.9407 40.0327C17.1787 39.6507 16.4167 39.2677 15.6567 38.8867C15.3767 38.7507 15.0767 38.6677 14.7987 38.5237C13.8137 38.0327 12.8777 37.4167 11.9067 36.8977C11.4817 36.6527 11.0267 36.4707 10.6007 36.2377C10.0427 35.9657 9.47875 35.6907 8.99175 35.2757C8.83975 35.1467 8.95775 34.9747 9.20675 34.8397C9.45475 34.7087 9.84575 34.5837 10.1897 34.6747C10.7937 34.8517 11.4097 34.9887 11.9827 35.2307C12.5537 35.4757 13.1217 35.7387 13.6697 36.0557C14.3317 36.4277 15.1007 36.6197 15.8057 36.9377L18.1447 37.9847L19.5897 38.6337C20.3237 38.9527 21.0487 39.3057 21.7957 39.5957C22.3747 39.8247 22.9917 39.9487 23.5957 40.1577C23.7287 40.2037 23.8677 40.2317 23.9977 40.2887C24.4777 40.5127 24.5577 40.7277 24.3707 41.2487C24.3277 41.3667 24.2927 41.4887 24.2397 41.6027C24.0597 41.9857 23.7067 42.1857 23.3517 42.1287C22.2907 41.9557 21.2587 41.5997 20.2297 41.1377C19.4637 40.7867 18.6927 40.4317 17.9237 40.0787L17.9407 40.0327Z" fill="#231F20"/>
<path fill-rule="evenodd" clip-rule="evenodd" d="M84.9075 86.354C86.1195 87.816 87.3425 89.323 88.3555 91.024C89.3405 92.725 90.2885 94.587 90.4125 96.833C90.4735 97.938 90.2495 99.148 89.6665 100.167C89.0955 101.196 88.2275 101.956 87.3425 102.531C86.9325 102.817 86.3555 103.079 85.7975 103.274L84.9385 103.453C84.6545 103.495 84.3755 103.481 84.0945 103.492C82.9845 103.469 81.9475 103.23 81.0055 102.875C78.2365 101.848 75.8935 100.276 73.6845 98.59C69.7955 95.608 66.2915 92.244 62.9435 88.752C59.5965 85.26 56.3985 81.643 53.2765 77.967C50.5055 74.698 47.7765 71.396 44.9695 68.233C43.1755 66.193 41.3405 64.181 39.4995 62.185C37.6515 60.211 35.8375 58.147 33.9635 56.33C33.8275 56.185 33.7135 56.054 33.6185 55.939C33.5255 55.827 33.4675 55.778 33.4125 55.703C33.3085 55.567 33.2625 55.463 33.2945 55.404C33.3305 55.292 33.7965 55.274 34.5355 55.554C36.0145 56.093 38.2895 57.663 40.4635 59.953C44.2685 64.063 47.8885 68.288 51.4465 72.596C54.9695 76.883 58.5565 81.122 62.2935 85.259C64.5255 87.735 66.9255 90.147 69.4245 92.463C71.9315 94.764 74.5445 96.999 77.3555 98.809C78.8925 99.798 80.5045 100.694 82.1675 101.204C82.9975 101.435 83.8305 101.562 84.6085 101.5C84.9785 101.425 85.3545 101.366 85.6775 101.192C86.0095 101.058 86.4085 100.79 86.7205 100.549C88.0705 99.571 88.6945 98.032 88.3555 96.365C88.0645 94.707 87.1685 93.085 86.1645 91.578C84.9145 89.709 83.4235 87.958 81.9005 86.217C80.3915 84.505 78.7705 82.832 77.1735 81.163C72.2985 76.117 67.3455 71.085 62.3785 66.193C58.5175 62.387 54.6305 58.762 50.7455 55.069C49.8875 54.258 49.0485 53.465 48.1835 52.648C45.0055 49.589 44.1575 48.449 43.8855 47.375C43.8225 47.128 43.7075 46.833 43.7145 46.665C43.7335 46.384 44.0945 46.469 44.7885 46.895C45.4885 47.325 46.4825 48.107 47.6965 49.176C54.8115 55.609 62.0675 62.646 69.2275 69.843C71.8865 72.517 74.5405 75.207 77.1725 77.929C79.7885 80.655 82.4645 83.372 84.9435 86.311L84.9075 86.354Z" fill="#231F20"/>
<path fill-rule="evenodd" clip-rule="evenodd" d="M80.6765 43.8687C77.8085 42.6047 74.9325 41.3507 72.0645 40.0427C71.0175 39.5617 69.9495 39.1317 68.9115 38.6047C68.0055 38.1427 67.0685 37.6457 66.1915 37.0677C65.3255 36.5027 64.4755 35.8967 63.6665 35.2247C62.0595 33.8927 60.5725 32.2257 59.8035 30.1537C59.4685 29.2407 59.2745 28.2707 59.2375 27.2997C59.2195 26.3247 59.3365 25.3627 59.5535 24.4637C59.8105 23.2947 60.2175 22.1697 60.7545 21.1007C61.3015 20.0467 61.9515 18.9967 62.9065 18.2207C63.5235 17.7487 63.6205 18.0637 63.4925 18.7417C63.3835 19.4477 63.1505 20.5027 62.6585 21.5997C62.2065 22.5757 61.9165 23.6257 61.6075 24.6427C61.3135 25.6817 61.1635 26.6717 61.2285 27.6407C61.3195 29.5937 62.3885 31.4377 63.9355 33.0057C64.8495 33.9537 65.9725 34.7727 67.1655 35.5107C68.3185 36.2407 69.6255 36.8257 70.9055 37.4417C73.7365 38.7767 76.6345 40.0377 79.5265 41.2997L84.8755 43.6297C87.5775 44.8037 90.2755 46.0277 92.9485 47.2317C95.0235 48.1797 97.0975 49.0247 99.1235 50.0977C99.5715 50.3307 100.013 50.5627 100.454 50.8317C102.072 51.8557 102.498 52.4917 102.384 53.1537C102.361 53.3017 102.354 53.4617 102.301 53.5667C102.09 53.8967 101.469 53.6077 100.401 52.9537C98.7695 51.9867 96.9275 51.1237 95.0635 50.2537C93.1935 49.3867 91.2755 48.5247 89.3435 47.6737C86.4565 46.4237 83.5555 45.1677 80.6615 43.9147L80.6765 43.8687Z" fill="#231F20"/>
<path fill-rule="evenodd" clip-rule="evenodd" d="M92.0164 34.1323C90.9624 31.9083 89.0034 30.0223 86.8364 28.4423C86.0464 27.8543 85.1714 27.3773 84.3304 26.8483C81.3304 25.0143 78.1164 23.4133 74.8524 21.9033C73.4034 21.2333 71.9144 20.6223 70.4454 20.0013C68.5584 19.2123 66.6214 18.4313 64.9384 17.1533C64.4124 16.7573 64.7204 16.4563 65.3984 16.3583C66.0694 16.2733 67.1294 16.3123 68.1774 16.7633C71.8904 18.4173 75.7844 19.9393 79.5424 21.9113C81.7904 23.0833 84.2094 24.1783 86.4434 25.5803C88.8704 27.1413 91.2344 28.9773 92.9764 31.4403C93.5104 32.1943 93.9634 33.0163 94.3164 33.8823C94.5054 34.3093 94.6204 34.7683 94.7674 35.2103L94.9134 35.8983L94.9854 36.2413C95.0054 36.3493 95.0044 36.4123 95.0154 36.5003L95.0384 36.7423L95.0614 36.9903C95.1234 37.0433 95.2044 37.0703 95.2764 37.1103L95.9744 37.4583C96.5564 37.7583 97.1254 38.0863 97.6764 38.4443C98.7774 39.1563 99.8044 39.9843 100.733 40.9063C102.238 42.3943 103.524 44.1143 104.369 46.0913C104.559 46.5243 104.721 46.9573 104.855 47.4143C104.967 47.8403 105.04 48.1993 105.081 48.5023C105.102 48.8093 105.073 49.0633 105.043 49.2713C104.966 49.6883 104.808 49.9383 104.583 50.1443C104.479 50.2373 104.384 50.3553 104.283 50.4113C103.941 50.6023 103.564 49.9593 103.067 48.9083C102.477 47.3223 101.778 45.8023 100.808 44.4353C99.8484 43.0653 98.6294 41.8553 97.2304 40.8473C96.6414 40.4273 96.0234 40.0413 95.3804 39.6913L94.8914 39.4353L94.2384 39.1193C94.0874 39.0463 93.8844 38.9563 93.7244 38.8633C93.5774 38.7463 93.4454 38.6213 93.3764 38.4583L93.3124 38.3493L93.2804 38.2933L93.2644 38.2643C93.3744 38.1853 93.1124 38.3703 93.1394 38.3513L93.1384 38.3483L93.1374 38.3443L93.1344 38.3363L93.1284 38.3203L93.0394 38.0653L92.8624 37.5543C92.7664 36.4653 92.6754 36.1953 92.5374 35.6373C92.4524 35.3893 92.3844 35.1353 92.2894 34.8893L91.9684 34.1603L92.0164 34.1323Z" fill="#231F20"/>
<path fill-rule="evenodd" clip-rule="evenodd" d="M64.054 33.4605C64.266 33.7845 64.486 35.0565 64.52 36.2315C64.573 37.4135 64.586 38.5275 64.594 38.7355C64.597 39.0465 64.575 40.4025 64.609 40.5415C64.617 40.5635 64.602 41.1115 64.641 41.6615C64.676 42.2125 64.789 42.7365 64.851 42.8115C64.857 42.8235 64.883 42.8755 64.912 42.9715C64.967 42.9975 64.887 43.0355 65.137 43.1895C65.526 43.4535 66.18 43.7735 66.846 44.0925C68.2 44.7655 69.593 45.4585 69.889 45.6065C70.108 45.6935 70.771 46.0775 71.405 46.5185C72.037 46.9635 72.617 47.4865 72.821 47.6525C72.958 47.7685 72.589 48.1895 72.472 48.1195C71.98 47.8035 71.463 47.5325 70.957 47.2425C70.573 47.0135 69.699 46.5495 68.867 46.1995C68.04 45.8435 67.279 45.5615 67.215 45.5395C66.623 45.3535 66.029 45.1685 65.428 44.9495C65.146 44.8475 64.865 44.7365 64.575 44.6005C64.475 44.5595 64.37 44.5005 64.267 44.4445L64.111 44.3595L63.919 44.1995C63.632 43.9705 63.502 43.7275 63.37 43.4845C63.136 43.0065 63.032 42.5615 62.937 42.1255C62.783 41.3175 62.676 40.5365 62.635 39.7645C62.605 38.6575 62.575 37.5545 62.544 36.4485C62.523 35.8335 62.426 35.2335 62.405 34.6585C62.382 34.3145 62.375 33.9995 62.435 33.6495C62.445 33.4255 62.68 33.1785 62.863 32.9435C62.965 32.8135 63.166 32.8715 63.444 33.0015C63.732 33.1345 63.998 33.3535 64.054 33.4605Z" fill="#231F20"/>
<path fill-rule="evenodd" clip-rule="evenodd" d="M37.8875 107.428C36.7535 107.645 35.5115 107.489 34.4795 107.043C33.5215 106.592 32.5365 106.074 31.7805 105.199C31.0025 104.38 30.4565 103.283 30.2985 102.188C30.1185 101.097 30.1635 100.008 30.3875 99.0092C30.6805 97.5352 31.1845 96.1622 31.8235 94.8822C32.3765 93.7652 33.0305 92.6692 33.7195 91.6452C34.4005 90.6182 35.1045 89.6242 35.8065 88.6262L40.0705 82.7012C41.3335 80.9532 42.5615 79.1672 43.7625 77.3982C45.3055 75.1232 46.7405 72.7642 48.6045 70.7152C49.1775 70.0712 49.3515 70.3282 49.2475 71.1372C49.1435 71.9462 48.8325 73.3552 47.9765 74.6922C44.8175 79.3402 41.4955 83.8642 38.0935 88.3742C36.0875 91.1002 34.0505 93.9642 32.8255 97.0432C32.4845 97.8842 32.2075 98.7452 32.0695 99.6082C31.9285 100.465 31.8775 101.34 32.0875 102.127C32.4285 103.725 33.7985 104.932 35.4505 105.486C36.4065 105.821 37.4445 105.775 38.4265 105.397C39.4115 105.022 40.3235 104.362 41.1475 103.604C43.6395 101.256 45.5385 98.2012 47.2205 95.1542C48.5255 92.7642 49.5825 90.3032 50.7195 87.8392C50.9675 87.2952 51.2175 86.7652 51.4965 86.2262C52.5285 84.2292 53.1085 83.6802 53.8275 83.5732C53.9775 83.5382 54.1335 83.4702 54.2325 83.4622C54.4035 83.4502 54.4055 83.6682 54.3715 84.1102C54.3555 84.5632 54.1445 85.1472 53.8235 85.8832C51.9805 90.2922 49.7645 94.9532 46.9375 99.3762C45.8835 101.017 44.6945 102.604 43.3105 104.086C42.6015 104.818 41.8455 105.525 40.9655 106.138C40.0775 106.735 39.0595 107.251 37.9025 107.472L37.8875 107.428Z" fill="#231F20"/>
<path fill-rule="evenodd" clip-rule="evenodd" d="M56.0374 57.2134C56.1114 57.0094 56.5774 56.3054 57.0204 55.6044C57.4574 54.9004 57.8864 54.2084 57.9644 54.0814C58.0814 53.8924 58.6284 53.0514 58.6744 52.9494C58.6844 52.9344 58.9164 52.5984 59.1674 52.2344C59.4204 51.8724 59.6734 51.4734 59.7494 51.3464C59.8364 51.2274 62.0214 47.8604 62.1694 47.4084C62.3014 47.1134 63.2414 45.5104 63.3894 45.2594C63.4364 45.1884 63.9584 45.1924 63.9624 45.3504C63.9534 45.9194 63.8084 46.3054 63.6044 46.7114C63.3054 47.3204 62.2954 49.3724 62.2504 49.4634L61.7194 50.7204L61.4574 51.3004C61.2084 51.8364 60.9604 52.3704 60.7104 52.9084C60.4814 53.4124 60.2894 53.9374 60.0394 54.4304C59.6724 55.1564 59.3084 55.8784 58.9414 56.6034C58.7334 57.0164 58.5514 57.4454 58.3324 57.8534C58.2154 58.1014 57.9694 58.2724 57.8074 58.4914C57.7524 58.5764 57.5994 58.5784 57.4144 58.5444C57.2214 58.5064 56.9704 58.4164 56.7964 58.3654C56.7014 58.3384 56.6314 58.2784 56.5434 58.1794C56.4644 58.0864 56.3124 57.9204 56.2434 57.7954C56.0664 57.5224 56.0074 57.2834 56.0374 57.2134Z" fill="#231F20"/>
<path fill-rule="evenodd" clip-rule="evenodd" d="M69.9885 56.148C70.9625 54.843 72.0085 53.577 73.1115 52.356C73.5135 51.911 73.8875 51.438 74.3315 51.024C75.8515 49.55 77.6485 48.235 79.5715 47.364C80.4055 46.96 81.2385 46.558 82.0645 46.159C82.5885 45.907 83.0905 45.617 83.6065 45.374C84.1185 45.148 84.6195 44.928 85.1565 44.692C85.4775 44.555 85.6205 44.807 85.5385 45.248C85.4605 45.687 85.1325 46.333 84.5455 46.734C82.3885 47.98 80.1935 48.699 78.2535 49.86C77.0915 50.57 76.0785 51.616 75.1125 52.66C74.0475 53.815 73.0445 55.047 72.0895 56.327C71.5065 57.118 70.9325 57.919 70.3825 58.739C69.5565 59.986 68.6975 61.228 67.9235 62.506C67.3225 63.504 66.8095 64.531 66.1605 65.502C66.0255 65.72 65.8905 65.937 65.7285 66.142C65.4415 66.53 65.2015 66.754 64.9715 66.862C64.7545 66.977 64.5815 67.002 64.3915 66.976C64.3055 66.964 64.2135 66.965 64.1445 66.942C63.9205 66.868 63.9835 66.417 64.2285 65.774C64.6435 64.839 65.1095 63.923 65.5775 62.965C66.0945 62.045 66.6455 61.113 67.2115 60.186C68.0405 58.795 68.9985 57.463 69.9495 56.124L69.9885 56.148Z" fill="#231F20"/>
<path fill-rule="evenodd" clip-rule="evenodd" d="M57.0579 23.5825C57.5629 23.8435 58.0639 24.0905 58.5829 24.3295C58.8429 24.4485 59.1049 24.5635 59.3829 24.6745C59.5199 24.7285 59.6649 24.7815 59.8199 24.8325C59.9079 24.8575 59.9739 24.8825 60.0809 24.9055C60.1829 24.9245 60.2779 24.9585 60.5199 24.9445C60.5819 24.9455 60.5439 24.5775 60.4759 24.2145C60.4459 24.0475 60.4149 23.8815 60.4149 23.8815C60.4039 23.7925 60.4059 23.7035 60.4189 23.6165C60.4259 23.5725 60.4359 23.5295 60.4489 23.4875C60.4609 23.4815 60.4459 23.4815 60.4459 23.4815L60.4039 23.4735C60.3749 23.4695 60.3099 23.4455 60.2649 23.4345L59.9219 23.3085C59.6839 23.2145 59.4389 23.1065 59.1949 22.9945C58.7079 22.7705 58.2149 22.5265 57.7359 22.2795C57.7299 22.2755 57.6829 22.3535 57.6159 22.4755C57.5509 22.5965 57.4639 22.7585 57.3769 22.9205C57.2059 23.2465 57.0429 23.5765 57.0579 23.5825Z" fill="#242021"/>
<path fill-rule="evenodd" clip-rule="evenodd" d="M58.4265 21.0005L61.2065 22.0995C61.2355 22.1215 61.7825 20.7365 61.7465 20.7335L58.9665 19.6345C58.9425 19.6215 58.3995 20.9935 58.4265 21.0005Z" fill="#242021"/>
<path fill-rule="evenodd" clip-rule="evenodd" d="M59.929 17.4771C59.695 17.6801 59.571 17.9411 59.43 18.1821L59.02 18.9081L58.216 20.3421C57.677 21.2871 57.125 22.2211 56.515 23.0791C56.21 23.5041 55.887 23.9141 55.547 24.2461C55.38 24.4001 55.2 24.5551 55.058 24.6221C54.901 24.6971 54.871 24.6811 54.871 24.6811C54.855 24.6871 54.737 24.5671 54.656 24.4031C54.63 24.3161 54.599 24.2331 54.563 24.1491C54.537 24.0541 54.531 23.9371 54.513 23.8311C54.459 23.3901 54.501 22.8791 54.579 22.3751C54.935 20.3541 55.737 18.2561 56.821 16.5351C56.962 16.3451 57.115 16.1221 57.26 15.9981L57.366 15.8891C57.393 15.8751 57.413 15.8691 57.433 15.8531C57.444 15.8181 57.571 15.7951 57.652 15.7651C58.014 15.6631 58.441 15.6871 58.839 15.8291C59.233 15.9671 59.625 16.1781 59.877 16.4581C60.107 16.7551 60.239 16.9691 60.148 17.2371C60.116 17.3501 61.038 18.2041 61.295 17.7821C61.744 17.0491 61.478 16.0191 60.998 15.5121C60.527 14.9611 59.943 14.5831 59.293 14.3861C58.647 14.1891 57.924 14.1571 57.233 14.3771C57.059 14.4461 56.905 14.4721 56.702 14.6191C56.609 14.6811 56.512 14.7481 56.428 14.8151L56.249 15.0031C55.991 15.2581 55.85 15.5071 55.666 15.7581C55.018 16.7571 54.549 17.7891 54.139 18.8521C53.738 19.9171 53.408 21.0091 53.223 22.1671C53.137 22.7481 53.079 23.3441 53.156 23.9961C53.183 24.1611 53.195 24.3211 53.238 24.4911C53.295 24.6661 53.358 24.8421 53.425 25.0141C53.592 25.3301 53.799 25.6941 54.286 25.9391C54.795 26.1851 55.358 26.0441 55.683 25.8731C56.038 25.6991 56.275 25.4831 56.515 25.2711C56.97 24.8401 57.332 24.3841 57.675 23.9221C58.353 22.9971 58.934 22.0401 59.499 21.0831C60.037 20.1211 60.653 19.1771 61.098 18.2431C61.121 18.0101 60.173 17.3101 59.929 17.4771Z" fill="#242021"/>
<path fill-rule="evenodd" clip-rule="evenodd" d="M106.493 30.9751C106.396 31.0961 106.265 30.9241 106.115 30.5751C106.067 30.4641 106.008 30.1101 106.031 30.0531C106.077 29.9441 106.124 29.8381 106.177 29.7591C106.209 29.7131 106.8 29.4211 106.998 29.3041C107.189 29.1931 107.392 29.1371 107.598 29.0931L108.853 28.7981C108.946 28.7771 109.043 28.7741 109.144 28.7881C109.488 28.8381 109.812 28.7801 110.131 28.6841C110.184 28.6681 110.242 28.6681 110.284 28.5991C110.35 28.4831 111.241 28.3171 111.365 28.3441C111.671 28.4121 111.97 28.4371 112.271 28.4861C112.314 28.4931 112.355 28.4631 112.403 28.5301C112.513 28.6861 112.597 28.6451 112.688 28.6461C112.813 28.6451 112.941 28.6581 113.07 28.6991C113.135 28.7191 113.206 28.8091 113.274 28.8791C113.336 28.9431 113.334 29.2021 113.319 29.2311C113.273 29.3181 113.331 29.4321 113.347 29.5381C113.353 29.5741 113.36 29.6201 113.361 29.6491C113.36 29.7141 112.73 30.2291 112.658 30.2371C112.65 30.2391 112.406 30.3051 112.142 30.3771C111.883 30.4531 111.614 30.5341 111.559 30.5591C111.504 30.5851 111.438 30.5551 111.375 30.5411C111.345 30.5331 110.574 30.8031 110.541 30.8051C110.373 30.8151 110.219 30.9071 110.027 30.7931C109.99 30.7711 109.957 30.7851 109.925 30.7931C109.644 30.8701 109.348 30.8671 109.056 30.8851C108.906 30.8941 108.763 30.9421 108.616 30.9681C108.59 30.9731 108.559 30.9561 108.531 30.9531C108.495 30.9471 108.458 30.9331 108.425 30.9421C108.08 31.0241 107.718 31.0121 107.38 31.1421C107.302 31.1721 106.886 31.0761 106.797 31.1161C106.747 31.1371 106.532 30.9261 106.493 30.9751Z" fill="#231F20"/>
<path fill-rule="evenodd" clip-rule="evenodd" d="M96.9509 15.4185C96.8219 15.3545 96.9719 15.2135 97.2849 15.0125C97.3849 14.9475 97.7159 14.8275 97.7729 14.8415C97.8849 14.8655 97.9939 14.8955 98.0789 14.9345C98.1359 14.9595 98.4879 15.4965 98.6179 15.6775C98.7429 15.8525 98.8149 16.0435 98.8699 16.2365C98.9869 16.6285 99.1039 17.0245 99.2199 17.4165C99.2439 17.5045 99.2489 17.5965 99.2389 17.6915C99.2029 18.0205 99.2669 18.3235 99.3649 18.6215C99.3809 18.6725 99.3819 18.7265 99.4489 18.7645C99.5629 18.8225 99.7319 19.6645 99.7019 19.7845C99.6389 20.0765 99.6159 20.3595 99.5609 20.6525C99.5539 20.6935 99.5809 20.7335 99.5169 20.7775C99.3679 20.8785 99.4019 20.9615 99.3979 21.0505C99.3909 21.1735 99.3779 21.2955 99.3259 21.4235C99.3019 21.4855 99.2119 21.5475 99.1399 21.6065C99.0759 21.6595 98.8309 21.6315 98.8049 21.6135C98.7269 21.5645 98.6139 21.6065 98.5129 21.6105C98.4789 21.6115 98.4339 21.6125 98.4069 21.6125C98.3499 21.6005 97.9019 21.0405 97.8899 20.9775C97.8879 20.9675 97.8369 20.7505 97.7649 20.5165C97.6979 20.2845 97.6159 20.0395 97.5919 19.9915C97.5669 19.9415 97.5959 19.8815 97.6089 19.8235C97.6159 19.7955 97.3469 19.0995 97.3419 19.0695C97.3299 18.9165 97.2359 18.7795 97.3409 18.6005C97.3619 18.5645 97.3469 18.5365 97.3379 18.5075C97.2559 18.2545 97.2499 17.9845 97.2189 17.7195C97.2049 17.5825 97.1529 17.4555 97.1189 17.3245C97.1139 17.3015 97.1279 17.2725 97.1309 17.2465C97.1339 17.2135 97.1449 17.1795 97.1359 17.1495C97.0379 16.8445 97.0259 16.5145 96.8749 16.2275C96.8399 16.1625 96.8979 15.7775 96.8479 15.7075C96.8219 15.6675 97.0029 15.4445 96.9509 15.4185Z" fill="#231F20"/>
<path fill-rule="evenodd" clip-rule="evenodd" d="M22.263 7.73582C22.336 7.86782 22.145 7.93882 21.803 7.99582C21.694 8.01282 21.376 7.97482 21.335 7.93182C21.256 7.84882 21.179 7.76282 21.126 7.67682C21.088 7.62482 21.027 6.85582 21.002 6.59982C20.972 6.34482 21.001 6.11282 21.039 5.87882L21.239 4.50082C21.252 4.40182 21.287 4.30482 21.334 4.21582C21.494 3.90482 21.573 3.57782 21.583 3.25382C21.584 3.19982 21.603 3.14682 21.547 3.08882C21.478 2.97882 21.513 2.17582 21.551 2.07882C21.68 1.82382 21.757 1.55982 21.806 1.28982C21.814 1.24982 21.791 1.21482 21.846 1.16782C21.981 1.04982 21.944 0.972818 21.941 0.886818C21.938 0.793818 21.935 0.693818 21.929 0.516818C21.93 0.451818 21.977 0.362818 22.005 0.277818C22.031 0.200818 22.201 0.136818 22.23 0.146818C22.308 0.172818 22.366 0.0868181 22.43 0.0428181C22.452 0.0278181 22.481 0.00881805 22.501 0.00181805C22.534 -0.0381819 23.321 0.593818 23.365 0.719818C23.402 0.727818 23.87 2.03482 23.828 2.18582C23.847 2.26382 23.808 2.34282 23.785 2.42082C23.791 2.46082 23.867 3.48382 23.847 3.51982C23.81 3.72582 23.839 3.93182 23.659 4.10682C23.623 4.14082 23.626 4.18182 23.623 4.22282C23.574 4.55882 23.43 4.87382 23.306 5.18082C23.244 5.33982 23.219 5.50182 23.172 5.66182C23.164 5.69082 23.134 5.71482 23.117 5.74082C23.095 5.77382 23.065 5.80482 23.056 5.84082C22.967 6.21682 22.785 6.56782 22.753 6.94182C22.741 7.02782 22.488 7.39082 22.492 7.48982C22.491 7.54382 22.231 7.68182 22.263 7.73582Z" fill="#231F20"/>
<path fill-rule="evenodd" clip-rule="evenodd" d="M7.76152 17.1772C7.91452 17.1082 7.95852 17.3332 7.95552 17.7392C7.95352 17.8682 7.85452 18.2362 7.80252 18.2772C7.70052 18.3582 7.59752 18.4342 7.50052 18.4822C7.44252 18.5162 6.63352 18.4692 6.35852 18.4482C6.08752 18.4382 5.84352 18.3602 5.60152 18.2722C5.11852 18.0892 4.63252 17.9162 4.16752 17.7212C4.06352 17.6792 3.96852 17.6172 3.88252 17.5392C3.58552 17.2712 3.24052 17.1162 2.88752 16.9902C2.82852 16.9682 2.77652 16.9302 2.69552 16.9622C2.56052 17.0102 1.66052 16.5822 1.56352 16.4892C1.32152 16.2462 1.05752 16.0532 0.798518 15.8472C0.761518 15.8172 0.707518 15.8232 0.697518 15.7352C0.668518 15.5372 0.569518 15.5222 0.484518 15.4662C0.366518 15.3882 0.247518 15.3162 0.138518 15.2102C0.087518 15.1482 0.053518 15.0352 0.010518 14.9482C-0.029482 14.8672 0.055518 14.7062 0.083518 14.6912C0.162518 14.6512 0.141518 14.5472 0.159518 14.4712C0.165518 14.4452 0.173518 14.4102 0.182518 14.3902C0.204518 14.3232 1.16052 14.1272 1.25752 14.1502C1.29052 14.1312 2.48752 14.4532 2.62652 14.4762C2.70052 14.4872 2.75252 14.5512 2.80952 14.6012C2.83952 14.6222 3.78852 14.8612 3.82152 14.8792C3.99852 14.9702 4.19952 15.0012 4.31252 15.2242C4.33452 15.2682 4.37452 15.2772 4.41052 15.2912C4.72552 15.4092 5.00252 15.6062 5.28652 15.7782C5.43252 15.8672 5.59452 15.9122 5.74752 15.9832C5.77552 15.9952 5.79352 16.0302 5.81752 16.0512C5.84652 16.0782 5.87352 16.1132 5.90852 16.1262C6.27852 16.2642 6.61152 16.4932 6.99952 16.5602C7.08652 16.5792 7.42952 16.8882 7.53652 16.8942C7.59352 16.9012 7.69852 17.2072 7.76152 17.1772Z" fill="#231F20"/>
<path fill-rule="evenodd" clip-rule="evenodd" d="M20.1072 101.109C20.0482 100.93 20.2512 100.831 20.6042 100.806C20.7162 100.798 21.0332 100.89 21.0702 100.94C21.1422 101.04 21.2122 101.135 21.2572 101.223C21.2712 101.281 21.3142 102.025 21.4042 102.26C21.4592 102.493 21.4882 102.717 21.5162 102.945C21.5792 103.405 21.7022 103.857 21.8922 104.278C21.9332 104.372 21.9482 104.476 21.9732 104.579C22.0322 104.941 22.2142 105.266 22.4592 105.53C22.5002 105.573 22.5302 105.628 22.6082 105.639C22.7242 105.671 23.3832 106.336 23.4562 106.447C23.6272 106.73 23.8562 106.962 24.1002 107.196C24.1352 107.228 24.1892 107.231 24.2012 107.303C24.2322 107.47 24.3362 107.495 24.4262 107.549C24.5472 107.632 24.6822 107.686 24.8052 107.781C24.8662 107.826 24.9132 107.921 24.9662 108.003C25.0152 108.076 24.9312 108.252 24.9012 108.264C24.8162 108.301 24.8462 108.409 24.8322 108.489C24.8272 108.515 24.8202 108.551 24.8112 108.571C24.8032 108.63 23.7422 108.649 23.6312 108.577C23.6142 108.581 23.2602 108.444 22.8892 108.275C22.5292 108.093 22.1502 107.882 22.0802 107.831C21.9992 107.786 21.9502 107.701 21.8942 107.628C21.8312 107.638 20.9202 106.798 20.9112 106.735C20.7632 106.527 20.5812 106.334 20.5612 106.049C20.5572 105.994 20.5242 105.954 20.4952 105.913C20.2652 105.542 20.1292 105.123 20.0192 104.707C19.9502 104.477 19.8942 104.286 19.8312 104.075C19.8222 104.037 19.8282 103.995 19.8302 103.954C19.8312 103.902 19.8402 103.849 19.8302 103.801C19.7152 103.296 19.7242 102.776 19.6862 102.262C19.6592 102.138 19.8692 101.59 19.8682 101.458C19.8592 101.378 20.1282 101.177 20.1072 101.109Z" fill="#231F20"/>
</svg>
