<svg width="122" height="105" viewBox="0 0 122 105" fill="none" xmlns="http://www.w3.org/2000/svg">
<path fill-rule="evenodd" clip-rule="evenodd" d="M6.6427 17.3407C10.8317 11.0637 16.7727 6.09469 23.6057 2.96869C26.1307 1.85369 28.7617 1.05369 31.4517 0.598694C40.9277 -1.08331 50.8917 0.822693 59.0317 5.76369C62.6737 7.90769 65.9297 10.7407 68.6127 13.9687C72.0707 18.0927 74.6687 23.1277 75.4887 28.4817C75.7897 30.1457 75.0647 30.0017 74.1077 28.8047C73.6287 28.2077 73.0937 27.3527 72.6007 26.3127C71.9627 25.3167 71.3967 24.1217 70.8567 22.7997C68.7847 18.1687 65.5857 14.0777 61.6417 10.8377C57.6977 7.59169 53.0277 5.17769 48.0167 3.72369C47.2817 3.44869 46.4977 3.35569 45.7297 3.17669C44.9547 3.03969 44.1857 2.81269 43.3917 2.75569C41.8087 2.60969 40.2147 2.39569 38.6057 2.47869C35.3837 2.41169 32.1877 3.02169 29.0757 3.73869C27.3787 4.19469 25.7197 4.77669 24.1337 5.50569C23.3377 5.86069 22.5727 6.28269 21.8037 6.72869L20.6507 7.38369L19.5397 8.10869C16.5877 10.0527 13.8767 12.3837 11.5777 15.0827C10.1587 16.7407 8.8997 18.5297 7.7597 20.3947C6.6697 22.2887 5.7107 24.2587 4.9367 26.3057C2.6187 32.5087 1.9527 39.3927 3.1947 45.8697C4.2087 50.8907 6.3267 55.5587 9.3327 59.5697C9.6437 60.0277 9.9967 60.4447 10.3507 60.8617C10.7077 61.2767 11.0377 61.7147 11.4127 62.1247C14.1647 65.1927 15.1607 66.0477 15.3757 67.1957C15.4297 67.4517 15.5367 67.7537 15.5287 67.9567C15.5147 68.2997 15.1087 68.2757 14.3827 67.9127C14.0197 67.7307 13.5777 67.4657 13.0657 67.1197C12.5717 66.7557 12.0277 66.2897 11.4227 65.7557C7.9087 62.5207 4.9467 58.4087 2.9647 53.7687C1.9827 51.4477 1.2177 49.0107 0.7097 46.5087C0.2297 44.0017 -0.00630042 41.4397 -0.000300421 38.8767C0.0376996 35.0707 0.6107 31.2607 1.7287 27.6167C2.8627 23.9767 4.5037 20.4987 6.5827 17.3127L6.6427 17.3407Z" fill="#231F20"/>
<path fill-rule="evenodd" clip-rule="evenodd" d="M33.2462 77.9599C31.0662 79.9479 28.5232 81.3259 25.9322 82.3679C24.9822 82.7379 24.0512 83.1579 23.0742 83.4279C22.3222 83.6609 21.5562 83.8309 20.7952 84.0159L19.6462 84.2499L19.0712 84.3569L18.3462 84.4839C17.1252 84.6869 15.9332 84.8419 14.8632 84.9159C13.8712 84.9669 12.3922 85.2099 12.3882 84.8359C12.9362 84.1979 13.5632 83.4789 14.0582 82.8609L14.7652 81.9819L15.2292 81.1859C15.3792 80.9259 15.5452 80.6479 15.6312 80.4029L15.8332 79.9059C16.0732 79.2279 16.2792 78.5339 16.4202 77.8239C16.8062 75.9979 16.8262 74.1099 17.1422 72.2469C17.2362 71.6689 17.9112 71.7269 18.5612 72.2589C19.2092 72.7869 19.8122 73.8229 19.6972 75.0159C19.5482 76.6129 19.2362 78.2139 18.7212 79.7919C18.5812 80.1859 18.4432 80.5789 18.2772 80.9669L18.0482 81.4759C18.0432 81.4649 18.0282 81.4829 18.0162 81.4889C17.9642 81.5259 17.8832 81.5959 17.7462 81.7169L17.5962 81.8449C17.5772 81.8739 17.5982 81.8849 17.6062 81.9049C17.6312 81.9419 17.6792 81.9769 17.7572 82.0099C17.8552 82.0479 18.0262 82.0539 18.2052 82.0359L18.3572 82.0109L18.5762 81.9719C18.7222 81.9469 18.8672 81.9149 19.0122 81.8809L19.8822 81.6789C21.0382 81.3879 22.1792 81.0239 23.2992 80.6459C25.7532 79.8039 28.1282 78.7039 30.1772 77.1719C30.5092 76.9549 30.7952 76.6899 31.0882 76.4299C31.3732 76.1649 31.6932 75.9259 31.9542 75.6379L32.9682 74.4949L33.2722 74.1469C33.2992 74.1239 33.3202 74.0789 33.3512 74.0719L33.4592 74.0939L33.6752 74.1359L34.5312 74.3029L35.5912 74.4959C35.8942 74.5469 36.1982 74.6059 36.5032 74.6459C37.1132 74.7409 37.7252 74.8169 38.3382 74.8809C39.5642 75.0019 40.7962 75.0609 42.0172 75.0319C43.9182 74.9719 45.7612 74.6429 47.5692 74.2119C47.9652 74.1079 48.3542 74.0059 48.7522 73.9019C50.2342 73.5449 50.7332 73.5649 51.2452 74.1549C51.3612 74.2879 51.5022 74.4139 51.5902 74.5559C51.8852 75.0259 51.3832 75.6509 50.2512 76.0809C46.9002 77.3649 43.0472 77.7619 39.2692 77.5449C37.8632 77.4699 36.4622 77.2989 35.0772 77.0619L34.5972 76.9799L34.4952 76.9539C34.4332 76.9379 34.3262 76.9059 34.3432 76.9199C34.3432 76.9199 34.3302 76.9269 34.3222 76.9359L34.3152 76.9409L34.2672 76.9949L34.0812 77.2069C33.8422 77.5009 33.5742 77.7599 33.2942 78.0039L33.2462 77.9599Z" fill="#231F20"/>
<path fill-rule="evenodd" clip-rule="evenodd" d="M78.8976 35.14C76.4546 35.837 74.1196 36.861 71.8756 38.049C69.6726 39.314 67.5906 40.787 65.7056 42.491C63.8766 44.244 62.1596 46.137 60.7966 48.281C59.4496 50.414 58.2726 52.706 57.4426 55.127C56.1956 58.646 55.6776 62.382 55.6856 66.089C55.7836 72.628 57.9686 79.182 62.0556 84.363C66.0656 89.604 71.9116 93.374 78.3346 95.043C81.1856 95.788 84.1546 96.117 87.1136 96.071C87.8536 96.063 88.5936 96.054 89.3306 95.971C90.0666 95.891 90.8086 95.88 91.5366 95.742L92.6326 95.573L93.4766 95.444L93.9056 95.379L94.1206 95.346C94.1776 95.375 94.2206 95.446 94.2706 95.494L95.3046 96.626C95.5176 96.897 95.8236 97.08 96.0766 97.313C97.9496 98.895 100.394 99.757 102.864 100.285C104.116 100.519 105.386 100.679 106.667 100.753L107.278 100.777L107.671 100.78L108.067 100.772L108.267 100.763C108.297 100.76 108.341 100.762 108.361 100.753L108.305 100.674C108.168 100.482 108.04 100.284 107.92 100.073L107.746 99.747L107.562 99.378C107.487 99.236 107.423 99.086 107.356 98.939C106.818 97.763 106.444 96.486 106.281 95.188C106.148 94.038 106.328 93.468 106.532 93.38C106.751 93.287 107.022 93.668 107.377 94.346C107.735 95.024 108.195 95.983 108.877 97.052C109.044 97.321 109.227 97.598 109.424 97.88C109.523 98.021 109.625 98.165 109.727 98.311L109.886 98.53C109.952 98.636 110.077 98.826 110.179 98.965C110.972 100.162 112.266 101.681 113.434 103.231C113.132 103.291 112.698 103.337 112.29 103.384C111.877 103.429 111.458 103.475 111.034 103.521C110.597 103.56 110.16 103.608 109.696 103.637C109.213 103.647 108.725 103.658 108.232 103.668L107.505 103.666L106.829 103.637C106.568 103.625 106.306 103.616 106.045 103.591C105.523 103.547 105.001 103.509 104.479 103.433C103.435 103.31 102.392 103.115 101.357 102.852C99.2916 102.331 97.2306 101.524 95.3756 100.248C94.8956 99.961 94.4746 99.571 94.0406 99.205C93.8306 99.013 93.5946 98.853 93.4116 98.628L93.1236 98.309C93.0996 98.281 93.1066 98.287 93.0976 98.274C93.0976 98.259 93.0776 98.265 93.0966 98.26L91.6556 98.466C90.6336 98.594 89.5986 98.639 88.5706 98.725C87.5366 98.726 86.5016 98.77 85.4666 98.721C81.3326 98.539 77.1886 97.711 73.3496 96.087C69.5176 94.46 65.9716 92.134 63.0496 89.171C61.2986 87.41 59.7016 85.463 58.3476 83.338C57.0056 81.207 55.8866 78.922 55.0316 76.533C53.2826 71.76 52.7726 66.544 53.3466 61.531C53.6896 58.774 54.3856 56.07 55.3616 53.483C56.3316 50.901 57.5876 48.402 59.1936 46.135C59.9386 44.961 60.8756 43.934 61.7496 42.861C62.7256 41.882 63.6426 40.838 64.7256 39.975C66.7876 38.132 69.1166 36.614 71.5506 35.335C77.5496 32.171 84.4506 30.777 91.1856 31.362C92.4666 31.428 93.7266 31.674 94.9896 31.894C95.6266 31.977 96.2346 32.202 96.8586 32.351C97.4746 32.531 98.1076 32.656 98.7086 32.881C99.9016 33.351 101.138 33.721 102.27 34.331C102.845 34.615 103.428 34.884 103.995 35.18L105.639 36.175L106.459 36.674L107.232 37.243L108.776 38.381L110.214 39.646C110.699 40.062 111.172 40.489 111.597 40.967L112.913 42.354C113.333 42.832 113.712 43.345 114.113 43.838C114.946 44.804 115.586 45.909 116.301 46.956C118.367 50.319 119.838 54.013 120.594 57.859C121.365 61.704 121.355 65.692 120.669 69.578C120.343 71.286 119.913 72.941 119.299 74.587C118.146 77.636 116.97 79.466 116.059 80.656C115.134 81.844 114.423 82.388 113.731 82.708C113.411 82.85 113.032 83.064 112.798 83.098C112.399 83.153 112.533 82.623 113.059 81.632C113.582 80.637 114.461 79.144 115.44 77.168C116.871 74.229 117.869 71.046 118.306 67.765C118.681 64.478 118.612 61.116 117.915 57.836C117.234 54.559 115.984 51.378 114.24 48.473C112.488 45.573 110.233 42.963 107.619 40.79C105.658 39.208 103.559 37.757 101.248 36.725C100.133 36.12 98.9116 35.767 97.7366 35.3C97.1326 35.115 96.5166 34.97 95.9076 34.801L94.9916 34.554C94.6826 34.485 94.3666 34.443 94.0546 34.387C89.0636 33.429 83.8306 33.776 78.9276 35.198L78.8976 35.14Z" fill="#231F20"/>
<path fill-rule="evenodd" clip-rule="evenodd" d="M89.4044 50.5824C88.5824 49.9044 87.4764 50.1164 86.8274 50.9694C86.7544 56.1554 90.7594 64.4104 92.8014 69.1604C93.8784 69.0024 93.8214 68.3104 93.8084 67.4284C93.7584 64.1514 90.2854 51.3094 89.4044 50.5824Z" fill="#231F20"/>
<path fill-rule="evenodd" clip-rule="evenodd" d="M78.8058 53.5644C77.9208 53.0494 76.8518 53.2234 76.2588 54.1164C76.9768 59.0244 81.0488 67.2754 83.3928 71.8844C84.4578 71.6574 84.3558 70.9714 84.2858 70.0914C84.0248 66.8244 79.7928 54.1394 78.8058 53.5644Z" fill="#231F20"/>
<path fill-rule="evenodd" clip-rule="evenodd" d="M44.1252 34.7055C45.3892 33.5075 46.2542 31.5395 46.3002 29.5665C46.3132 28.8475 46.1702 28.1445 45.9742 27.4875C45.3992 25.1255 42.7712 23.5275 40.0442 23.7515C38.8392 23.8155 37.6492 24.2335 36.6252 24.8555C35.2872 25.6605 34.2992 26.8765 33.5422 28.2365C33.2962 28.6555 32.9902 28.5145 32.8372 27.9655C32.6752 27.4285 32.6952 26.3905 33.3562 25.4945C35.6032 22.3015 40.0762 20.8465 43.8162 22.3925C44.9232 22.8495 45.9632 23.5215 46.8202 24.4525C47.6682 25.3845 48.2312 26.5415 48.5042 27.7125C49.0802 30.3045 48.6162 32.9585 47.3212 35.2295C46.4952 36.6505 45.2292 37.6955 43.9872 38.5305C42.0812 39.7925 40.0452 40.5985 38.3862 41.7955C37.7362 42.2565 37.1582 42.7785 36.7212 43.3425C36.2752 43.9015 36.0022 44.5155 35.6652 45.2565C35.5172 45.5805 35.3962 45.9275 35.2042 46.2585C34.5002 47.5015 34.0262 47.7545 33.2342 47.5565C33.0522 47.5105 32.8592 47.4815 32.6942 47.4115C32.1352 47.1675 32.0602 46.4475 32.3782 45.5555C32.6192 44.8875 32.8252 44.2265 33.1642 43.4875C33.4812 42.7525 34.0012 41.8735 34.6552 41.1695C35.9602 39.7675 37.4132 38.8985 38.8212 38.0895C40.8962 36.9325 42.8522 36.0065 44.0682 34.6595L44.1252 34.7055Z" fill="#231F20"/>
<path fill-rule="evenodd" clip-rule="evenodd" d="M32.2296 53.4149C32.2206 53.4779 32.2086 53.5419 32.1946 53.6059C31.9256 54.7949 30.9246 55.0949 29.8616 54.8459C28.3706 54.4959 28.0006 52.7579 28.9866 51.6649C30.3716 50.1289 32.4796 51.5909 32.2296 53.4149Z" fill="#231F20"/>
<path fill-rule="evenodd" clip-rule="evenodd" d="M87.7262 76.101C87.7992 77.088 87.2382 77.971 85.5772 77.743C84.0742 77.537 83.5392 75.859 84.3992 74.679C85.8642 72.669 87.6092 74.52 87.7262 76.101Z" fill="#231F20"/>
<path fill-rule="evenodd" clip-rule="evenodd" d="M96.7638 73.1703C96.7158 74.1593 96.0508 74.9663 94.4308 74.5373C92.9638 74.1493 92.6388 72.4183 93.6358 71.3523C95.3358 69.5363 96.8418 71.5873 96.7638 73.1703Z" fill="#231F20"/>
<path fill-rule="evenodd" clip-rule="evenodd" d="M71.6847 94.9623C74.6417 96.4763 77.8537 97.5003 81.1557 98.0123C82.3687 98.1483 83.5787 98.3143 84.8007 98.3033L86.4147 98.3583C86.9537 98.3633 87.4907 98.3063 88.0297 98.2843L89.6457 98.1953C90.1827 98.1383 90.7147 98.0453 91.2497 97.9723L93.0877 97.7023C93.3347 97.5813 93.4407 97.8773 93.6057 98.0043L93.9737 98.3903L94.5127 98.9643C94.8977 99.3193 95.3227 99.6343 95.7257 99.9743C96.1617 100.272 96.6177 100.543 97.0627 100.83C98.7157 101.742 100.575 102.295 102.439 102.596C104.844 102.973 107.308 102.928 109.734 102.813C110.476 102.762 110.45 103.113 109.832 103.531C109.216 103.941 107.991 104.374 106.509 104.363C103.896 104.333 101.247 103.994 98.7437 103.046C97.4827 102.611 96.2977 101.943 95.1797 101.193C94.6407 100.789 94.1167 100.354 93.6217 99.8963L92.9347 99.1473C92.8517 99.0573 92.9057 99.1073 92.8827 99.0803L92.8517 99.0363C92.8287 99.0133 92.7787 99.0313 92.7637 99.0233C89.7837 99.5003 86.4747 99.7643 83.3117 99.5683C79.8167 99.2963 76.3727 98.4453 73.1537 97.0893C72.6607 96.8763 72.1597 96.6773 71.6717 96.4503L70.2527 95.6823C69.2867 95.2063 68.4047 94.5883 67.5137 93.9893C64.8457 92.1293 62.4677 89.8483 60.4727 87.3143C58.9887 85.3013 57.5727 83.2683 56.5317 81.0043C56.2967 80.5083 56.0657 80.0223 55.8287 79.5243C55.1117 77.6053 55.0187 76.9423 55.2127 76.4343C55.2587 76.3173 55.2947 76.1713 55.3557 76.0943C55.5587 75.8383 56.0377 76.5463 56.5737 77.8893C58.2307 81.8363 60.5037 85.7873 63.6727 88.9883C65.9657 91.4113 68.6997 93.4363 71.6957 94.9303L71.6847 94.9623Z" fill="#231F20"/>
<path fill-rule="evenodd" clip-rule="evenodd" d="M35.2785 77.8085L34.6475 77.6955C34.6245 77.6835 34.5915 77.6715 34.5735 77.6965L33.6865 78.6125C32.9335 79.2425 32.1895 79.8805 31.3645 80.3915C30.7905 80.8085 30.1805 81.1565 29.5685 81.5015C27.3725 82.6495 25.0435 83.4435 22.6955 84.0735C21.6485 84.3405 20.6025 84.6235 19.5595 84.8665C18.2225 85.1835 16.8725 85.5115 15.4795 85.5285C14.6175 85.5235 15.5725 84.1595 17.0585 83.9045C19.7435 83.4385 22.4005 82.8345 25.0365 82.0525C26.6065 81.5665 28.1655 80.8345 29.5905 79.9755C29.9985 79.7635 30.3755 79.5065 30.7515 79.2475C31.1275 78.9895 31.5205 78.7495 31.8575 78.4445C32.1995 78.1475 32.5735 77.8785 32.8945 77.5585L33.9965 76.3995L34.1115 76.2795L34.2785 76.3065L34.6115 76.3615L35.1245 76.4475L35.9795 76.5905C36.5495 76.6835 37.1195 76.7695 37.6895 76.8445C39.4175 77.0775 41.1615 77.2475 42.8725 77.1665C44.2015 77.0945 45.4745 76.8095 46.7125 76.4185L47.5205 76.1355C48.5305 75.7795 48.8745 75.7215 49.2265 75.9725C49.3055 76.0285 49.4025 76.0775 49.4625 76.1415C49.6635 76.3545 49.3315 76.7415 48.5755 77.0985C46.3435 78.1745 43.6075 78.6085 41.0005 78.4845C39.0585 78.4045 37.1535 78.1395 35.2755 77.8415L35.2785 77.8085Z" fill="#231F20"/>
<path fill-rule="evenodd" clip-rule="evenodd" d="M85.883 19.6679C85.924 19.2329 86.308 18.9149 86.742 18.9549C88.894 19.1559 85.671 21.9279 85.883 19.6679Z" stroke="#231F20" stroke-width="0.6"/>
<path fill-rule="evenodd" clip-rule="evenodd" d="M42.4059 90.6762C42.4469 90.2422 42.8319 89.9232 43.2659 89.9642C45.4179 90.1642 42.1949 92.9362 42.4059 90.6762Z" stroke="#231F20" stroke-width="0.6"/>
<path fill-rule="evenodd" clip-rule="evenodd" d="M107.04 15.9574C107.384 16.0914 107.555 16.4784 107.421 16.8234C106.758 18.5284 105.249 15.2604 107.04 15.9574Z" fill="#231F20"/>
</svg>
