<svg width="24" height="24" viewBox="0 0 24 24" fill="none" xmlns="http://www.w3.org/2000/svg">
<path d="M14.0622 23V11.2029M14.0622 23L18.5467 20.107C18.8322 19.9229 19.0046 19.6064 19.0046 19.2667V19.1739V9.28988M14.0622 23H2C1.44772 23 1 22.5523 1 22V11.5527C1 11.3263 1.07688 11.1065 1.21807 10.9294L7.35458 3.23191M14.0622 11.2029H1.70606M14.0622 11.2029L7.35458 3.23191M14.0622 11.2029L14.5864 11M7.35458 3.23191L7.86808 3.00002M19.0046 9.28988L12.7825 1.60005C12.4965 1.24656 12.008 1.13054 11.5936 1.31768L11.571 1.32788M19.0046 9.28988L18.4359 9.51003M7.86808 3.00002L14.5864 11M7.86808 3.00002L8.38064 2.76856M14.5864 11L15.1611 10.7776M15.1611 10.7776L8.38064 2.76856M15.1611 10.7776L15.7864 10.5355M8.38064 2.76856L8.97532 2.50002M8.97532 2.50002L15.7864 10.5355M8.97532 2.50002L9.62466 2.2068M15.7864 10.5355L16.5 10.2593M16.5 10.2593L9.62466 2.2068M16.5 10.2593L17.1699 10M9.62466 2.2068L10.2356 1.93091M10.2356 1.93091L17.1699 10M10.2356 1.93091L10.845 1.65573M17.1699 10L17.8671 9.73018M17.8671 9.73018L10.845 1.65573M17.8671 9.73018L18.4359 9.51003M10.845 1.65573L11.571 1.32788M11.571 1.32788L18.4359 9.51003" stroke="black" stroke-linecap="round"/>
<path d="M15.8977 22.8278C15.0465 22.9453 14.3725 23 14.0622 23L18.5468 20.107C18.8322 19.9229 19.0047 19.6064 19.0047 19.2667V19.1739C19.395 19.1739 19.8479 19.1876 20.3057 19.2207M15.8977 22.8278L20.3057 19.2207M15.8977 22.8278C16.3854 22.7605 16.9311 22.6726 17.5 22.5625M20.3057 19.2207C20.5384 19.2375 20.7724 19.2594 21 19.2869M21 19.2869L17.5 22.5625M21 19.2869C21.3056 19.3239 21.5997 19.3713 21.864 19.4309M17.5 22.5625C17.9919 22.4674 18.501 22.3558 19.0047 22.2266M19.0047 22.2266L21.864 19.4309M19.0047 22.2266C19.5659 22.0827 20.1205 21.9171 20.637 21.7284M21.864 19.4309C22.1217 19.4889 22.351 19.5586 22.535 19.6414M22.535 19.6414C23.0793 19.8866 23.2264 20.2478 22.535 20.7681C22.0429 21.1385 21.3792 21.4573 20.637 21.7284M22.535 19.6414L20.637 21.7284M11.571 1.32788L11.5936 1.31769" stroke="black" stroke-opacity="0.3" stroke-linecap="square"/>
</svg>
