<svg width="123" height="115" viewBox="0 0 123 115" fill="none" xmlns="http://www.w3.org/2000/svg">
<g filter="url(#filter0_d_0_38)">
<path fillRule="evenodd" clipRule="evenodd" d="M102.371 42.9365C100.929 36.2915 98.0347 29.9435 93.9227 24.5235C89.8227 19.1055 84.4757 14.5885 78.2637 11.8175C76.0127 10.7745 73.6437 9.9895 71.2287 9.4195C68.8127 8.8525 66.3527 8.4535 63.8707 8.2985C55.1117 7.6795 46.2047 9.7715 38.4447 14.0105C30.6877 18.2085 23.9337 24.5185 19.8487 32.3615C16.3237 39.3625 14.6357 47.3925 14.7717 55.1755C14.8927 60.1895 15.8287 65.1795 17.5597 69.8625C19.2657 74.5615 21.8877 78.8825 25.1087 82.6885C27.1377 85.0295 26.3987 85.2835 24.0317 83.7415C23.4327 83.3595 22.7327 82.8645 22.0387 82.1845C21.6817 81.8535 21.3057 81.4955 20.9137 81.1085C20.7187 80.9135 20.5187 80.7125 20.3147 80.5075C20.1317 80.2855 19.9437 80.0585 19.7527 79.8265C19.0137 78.8775 18.1387 77.8715 17.4577 76.6495C17.0967 76.0515 16.7317 75.4285 16.3667 74.7855C16.0387 74.1245 15.7387 73.4295 15.4287 72.7235C14.3267 70.2175 13.5727 67.5825 12.9317 64.9325C12.6897 63.5925 12.4107 62.2555 12.2417 60.9055C12.1217 59.5515 11.8987 58.2025 11.8957 56.8405C11.6567 51.4085 12.2837 45.9585 13.6887 40.7225C14.4547 38.1155 15.2967 35.5555 16.4457 33.0625C17.5557 30.5485 18.9797 28.1905 20.5827 25.9805C23.7817 21.5465 27.8177 17.7805 32.2947 14.7255C37.6427 11.0535 43.7597 8.3085 50.2267 6.7625C56.6987 5.2385 63.5397 5.0485 70.0547 6.3695C77.2197 7.7745 84.0227 11.0895 89.5207 15.8825C95.0677 20.6275 99.3317 26.7435 102.167 33.4005C103.917 37.5025 105.131 41.8285 105.769 46.2365C106.39 50.6485 106.414 55.1435 105.823 59.5555C104.979 66.2535 102.568 72.7125 99.1097 78.4805C95.5567 84.1885 90.8987 89.2505 85.2897 92.9225C76.6277 98.7745 66.1397 101.113 55.8917 100.662C54.7597 100.605 53.6417 100.514 52.5207 100.431C51.4077 100.288 50.2837 100.187 49.1577 99.9915C44.9737 99.3105 42.3007 98.4575 40.4727 97.7695C39.5627 97.4045 38.8597 97.0825 38.2957 96.7705C37.7387 96.4355 37.3167 96.1185 36.9607 95.7895C36.6377 95.4895 36.1947 95.1465 36.0357 94.9075C35.7677 94.5025 36.4717 94.4845 37.9377 94.8035C39.3997 95.1505 41.6617 95.6885 44.5657 96.3795C53.1767 98.2595 62.4347 98.6495 71.1847 96.2955C79.9597 94.0895 87.8947 88.8045 93.5767 81.6205C97.8007 76.2875 100.783 69.9615 102.333 63.3115C103.895 56.6545 103.801 49.6535 102.308 42.9675L102.371 42.9365Z" fill="#221F1F"/>
<path fillRule="evenodd" clipRule="evenodd" d="M38.527 83.9014C34.791 87.6404 31.033 91.3744 27.123 94.9774C25.695 96.2914 24.292 97.6374 22.796 98.8874C20.145 101.073 17.418 103.213 14.248 104.841C12.67 105.62 10.902 106.35 8.90397 106.279C7.96897 106.261 6.94197 106.067 6.01297 105.504C5.07197 104.949 4.40397 103.928 4.18097 102.944C3.78597 101.178 4.10697 99.5584 4.48197 98.0314C4.89697 96.5084 5.45897 95.0614 6.08897 93.6654C7.74297 90.1064 9.70497 86.6514 12.563 83.8474C13.502 82.9894 13.781 83.5934 13.534 84.7164C13.296 85.8544 12.631 87.5764 11.457 89.3484C10.418 90.9224 9.45897 92.5604 8.62797 94.2404C7.79897 95.9174 7.08397 97.6514 6.66797 99.3624C6.25197 101.054 6.28097 102.799 7.07197 103.358C7.44797 103.706 8.16397 103.926 8.99097 103.96C9.75397 104.022 10.567 103.872 11.421 103.6C13.465 102.942 15.472 101.631 17.371 100.236C19.277 98.8204 21.102 97.2414 22.901 95.6624C26.849 92.1684 30.64 88.4524 34.395 84.6974L41.3 77.7214C44.779 74.1884 48.309 70.6644 51.872 67.2424C54.654 64.5924 57.339 61.9344 60.485 59.6354C61.186 59.1374 61.878 58.6454 62.657 58.2134C65.563 56.6144 67.214 56.9364 67.777 57.6864C67.915 57.8724 68.075 58.0664 68.108 58.2264C68.16 58.5044 67.855 58.6264 67.406 58.7434C66.95 58.8614 66.272 59.0504 65.349 59.4594C63.981 60.0704 62.628 61.0104 61.311 62.0214C59.99 63.0354 58.693 64.1474 57.407 65.3004C54.835 67.6104 52.296 70.0784 49.774 72.5854C46.032 76.3154 42.305 80.1284 38.574 83.9384L38.527 83.9014Z" fill="#221F1F"/>
<path fillRule="evenodd" clipRule="evenodd" d="M63.7594 47.7612C63.8964 47.9342 64.0404 48.1052 64.1894 48.2732L64.5334 48.6422L65.0134 49.1192C65.0294 49.4302 65.0184 49.8042 64.9554 50.1322C64.8994 50.2972 64.8264 50.4612 64.7544 50.6222L64.4524 51.0782C64.1004 51.5112 63.8184 51.7522 63.5234 52.0352C63.2884 52.2542 63.3484 52.1882 63.2834 52.2582C63.2304 52.3032 63.2584 52.3752 63.3154 52.3932C63.3744 52.4232 63.3864 52.4442 63.5104 52.4452C63.6434 52.4672 63.7904 52.4652 63.9474 52.4412C64.1024 52.4222 64.2504 52.4312 64.4144 52.3852C65.0524 52.2812 65.7174 52.0242 66.3704 51.7602C67.6804 51.1962 68.9514 50.4372 70.1874 49.6312C71.6994 48.6312 73.1314 47.4982 74.5584 46.3602C77.0754 44.3512 79.4894 42.1932 81.8124 39.9462C84.1054 37.6882 86.4244 35.3592 88.2814 32.8122C89.0614 31.7192 89.4144 30.4042 88.7344 29.3752C88.2654 28.4202 86.7574 28.8192 85.5644 29.3862C83.9784 30.1382 82.4964 31.2192 81.0574 32.3202C79.6184 33.4332 78.2154 34.6052 76.8134 35.7712C75.0984 37.2732 76.0394 34.0652 79.4504 31.3412C80.9644 30.1582 82.5254 29.0242 84.3204 28.1062C85.2254 27.6612 86.1824 27.2362 87.4224 27.1372C88.0384 27.1072 88.8464 27.2312 89.4804 27.7602C90.1184 28.3372 90.3334 28.8402 90.5454 29.4612C90.9414 30.7282 90.5774 32.0362 90.0524 32.9722C89.4994 33.9522 88.8844 34.6562 88.2604 35.4102C87.0084 36.8832 85.6804 38.2532 84.3164 39.5942C81.0404 42.7782 77.6044 46.0592 73.8734 48.9062C72.1924 50.1672 70.4704 51.3882 68.5864 52.4022C67.6494 52.9122 66.6714 53.3742 65.6054 53.6952C65.0744 53.8572 64.5154 53.9762 63.9224 54.0112C63.7794 54.0322 63.6234 54.0192 63.4694 54.0082C63.3294 53.9912 63.0774 53.9962 62.8994 53.9462C62.5404 53.7952 62.1494 53.7222 61.8244 53.5022C61.5944 53.2992 61.3244 53.1072 61.2864 52.7582C61.2454 52.4332 61.3794 52.1512 61.5564 51.8682C61.7254 51.5882 62.0144 51.3112 62.2434 51.0862L62.7784 50.5772C62.9744 50.3852 63.2144 50.1252 63.2544 50.0522C63.3224 49.9442 63.4234 49.7752 63.3274 49.6662L63.0734 49.3922L62.6344 48.8822C62.3494 48.5322 62.0784 48.1662 61.8314 47.7732C61.5894 47.3552 61.3714 46.9822 61.2324 46.3872C61.0754 45.7512 61.2824 45.0912 61.7424 44.6812C62.0064 44.5822 62.2934 44.5222 62.5894 44.5002C62.9154 44.4712 63.0664 44.4852 63.3024 44.4922C63.7354 44.5152 64.1534 44.5812 64.5634 44.6652C64.8754 44.7302 65.1804 44.8112 65.4834 44.8992L65.8894 45.0272L66.1134 45.1092C66.1984 45.1762 66.2384 45.0452 66.2994 45.0112L66.5024 44.8122L67.1474 44.1772C67.8394 43.4912 68.5304 42.8072 69.2174 42.1262L68.2394 41.6352L66.6784 40.8022C65.6474 40.2302 64.6324 39.6322 63.6564 38.9522C63.0834 38.5462 62.5174 38.1292 62.0014 37.5932C61.7574 37.3272 61.4804 37.0442 61.2964 36.5452C61.1014 36.0832 61.2324 35.5552 61.5544 35.1932C62.5434 34.0452 63.9414 33.8342 65.1164 33.8162C66.3204 33.8002 67.4624 33.9402 68.5994 34.0812C69.3994 34.1812 70.1764 34.2782 70.9724 34.3992C73.9214 34.8512 74.8364 35.0882 75.4084 35.6072C75.5374 35.7242 75.7144 35.8482 75.7844 35.9582C76.0214 36.3232 74.7744 36.4262 72.5944 36.1792C70.8004 35.9782 68.9804 35.7192 67.1814 35.5342C66.2884 35.4502 65.3884 35.3812 64.5894 35.4502C64.1804 35.4722 63.8364 35.5702 63.5254 35.6802C63.3874 35.7612 63.2324 35.8052 63.1164 35.9142C63.0554 35.9642 62.9884 36.0002 62.9294 36.0562L62.8494 36.1392L62.8554 36.1342C62.8464 36.1472 62.8514 36.1632 62.8604 36.1722C62.8644 36.1792 62.8574 36.1632 62.8794 36.1932C62.9014 36.2352 62.9464 36.2862 62.9884 36.3372C63.0634 36.4372 63.1794 36.5492 63.2854 36.6572C63.7444 37.0942 64.3224 37.5202 64.9214 37.9182C66.1254 38.7182 67.4364 39.4432 68.7624 40.1292L70.1064 40.8002L71.9394 41.6582C70.3944 43.1962 68.8454 44.7372 67.2964 46.2792L66.8734 46.6992C66.7304 46.8292 66.6094 47.0542 66.4014 46.9002L65.3184 46.5262C64.9664 46.4132 64.6134 46.3132 64.2644 46.2402C63.9154 46.1672 63.5684 46.1132 63.2374 46.0942L62.8654 46.0882H62.8424C62.8324 46.0942 62.8244 46.1052 62.8244 46.1182C62.8234 46.1262 62.8224 46.1282 62.8264 46.1412C62.8514 46.1852 62.8694 46.3062 62.9264 46.4052C63.1144 46.8262 63.4344 47.2932 63.7864 47.7312L63.7594 47.7612Z" fill="#221F1F"/>
<path fillRule="evenodd" clipRule="evenodd" d="M81.61 51.6016C81.778 51.0976 81.871 50.3926 81.937 49.7316C82.003 49.0586 82.037 48.3706 82.055 47.6816C82.068 47.1786 82.028 46.6746 82.026 46.1716C82.027 45.3066 81.999 44.3426 81.949 43.5656C81.95 43.3996 81.944 43.2066 81.919 42.9936C81.904 42.8866 81.889 42.7736 81.852 42.6636C81.836 42.6146 81.8 42.5406 81.75 42.5566C81.71 42.5786 81.684 42.6176 81.654 42.6526C81.556 42.7836 81.456 42.9546 81.348 43.1176C81.286 43.2116 81.261 43.2546 81.164 43.3836C81.033 43.5566 80.892 43.7246 80.739 43.8866C80.55 44.0916 80.315 44.3026 80.1 44.4666C79.894 44.6286 79.684 44.7856 79.469 44.9366C79.037 45.2356 78.583 45.5046 78.076 45.6926C77.934 45.7396 77.757 45.7176 77.786 45.5186C77.702 45.4896 77.677 45.4016 77.675 45.3026C77.667 45.2056 77.669 45.0986 77.681 44.9846C77.733 44.5286 77.948 43.9816 78.412 43.6686C78.812 43.3936 79.287 43.0836 79.534 42.8546C79.682 42.7206 79.828 42.5686 79.968 42.3966C80.256 42.0466 80.56 41.5456 80.839 41.1206C80.983 40.8826 81.129 40.7396 81.273 40.5936C81.411 40.5226 81.542 40.4646 81.651 40.4396C81.868 40.4016 82.026 40.2156 82.355 40.4806C82.596 40.5656 82.772 40.7636 82.923 41.0876C83.061 41.4376 83.165 41.8636 83.214 42.3336C83.367 43.6226 83.359 44.0376 83.418 44.7396C83.464 45.3956 83.505 46.0536 83.508 46.7066C83.509 48.1456 83.465 49.5766 83.244 51.0416C83.159 51.4976 83.098 51.9466 82.839 52.4656C82.619 52.9436 82.018 53.5436 81.371 53.4296C80.876 53.3816 80.463 53.0806 80.205 52.8496C79.919 52.6006 79.698 52.3246 79.48 52.0486C79.06 51.4906 78.709 50.9066 78.381 50.3176C77.88 49.3976 77.379 48.4996 77.022 47.4846C76.947 47.2596 76.864 47.0376 76.811 46.7926C76.609 45.9086 76.875 45.3246 77.364 45.3156C77.477 45.3156 77.584 45.3306 77.656 45.3826C77.856 45.6706 78.036 45.6586 78.137 46.1176C78.566 47.5526 79.401 49.3046 80.341 50.7186C80.519 50.9836 80.711 51.2246 80.901 51.4426C81.067 51.6496 81.344 51.8556 81.38 51.8816C81.401 51.9006 81.4 51.9036 81.418 51.9026C81.402 51.9386 81.506 51.8156 81.574 51.5916L81.61 51.6016Z" fill="#221F1F"/>
<path fillRule="evenodd" clipRule="evenodd" d="M66.2267 51.456C65.9967 51.698 65.7567 51.981 65.4937 52.111C65.3027 52.231 65.1037 52.315 64.8997 52.373C64.4917 52.488 64.0707 52.489 63.6337 52.474C63.3557 52.465 62.9647 52.06 63.1367 51.777C63.4397 51.295 63.7357 50.827 63.9987 50.411C64.0107 50.394 64.0337 50.364 64.0667 50.321C64.0797 50.3 64.0967 50.274 64.1167 50.243C64.1557 50.183 64.2037 50.106 64.2437 50.023C64.3397 49.873 64.3217 49.585 64.0487 49.543C64.0367 49.51 63.9817 49.508 63.9537 49.494L63.9017 49.476L63.7107 49.345C63.4527 49.167 63.1847 48.987 62.9017 48.773C62.7547 48.66 62.6127 48.55 62.4357 48.383C62.3557 48.31 62.2527 48.204 62.1437 48.072C62.1027 48.029 62.0127 47.9 61.9517 47.805C61.9107 47.736 61.9067 47.741 61.8387 47.61C61.7837 47.497 61.7367 47.377 61.7007 47.255L61.6537 47.072C61.6417 47.033 61.6067 46.778 61.6157 46.628C61.6317 46.255 61.7017 45.955 61.9027 45.61C62.0897 45.263 62.5157 44.918 62.7647 44.81C62.9187 44.734 63.0887 44.675 63.2587 44.637C63.3327 44.62 63.4527 44.602 63.4887 44.599L63.5877 44.591C63.9097 44.577 64.0007 44.601 64.1237 44.614C64.3107 44.643 64.4147 44.668 64.5087 44.689C64.6827 44.726 64.7987 44.767 64.8947 44.82C65.3177 45.068 65.6937 45.158 66.0507 45.27L66.3047 45.347C66.4207 45.382 66.3517 45.353 66.3797 45.359L66.4037 45.344C66.4167 45.334 66.4227 45.319 66.4267 45.309C66.5897 45.162 66.9177 44.856 67.1647 44.609C67.7047 44.075 68.2357 43.502 68.7237 42.924C68.9707 42.638 69.1937 42.337 69.4157 42.065C69.4057 42.081 69.4107 42.059 69.4107 42.059C69.4097 42.049 69.3977 42.043 69.3917 42.045L69.3827 42.048C69.4617 42.085 69.2177 41.972 69.0767 41.914L68.5677 41.706L68.0657 41.5L67.5247 41.254C67.2957 41.143 66.9457 40.976 66.6047 40.793C66.0047 40.473 65.3537 40.151 64.6097 39.658C64.2377 39.4 63.8207 39.109 63.3497 38.545C63.2387 38.417 63.1057 38.211 63.0007 38.039C62.9877 38.02 62.9227 37.901 62.8677 37.775C62.8147 37.656 62.7697 37.532 62.7327 37.408C62.6997 37.311 62.6567 37.103 62.6447 36.895C62.6317 36.691 62.6417 36.483 62.6717 36.288C62.8447 35.361 63.4757 34.818 63.7787 34.632C64.1457 34.398 64.3427 34.344 64.5687 34.264C65.2887 34.074 65.6677 34.068 66.0867 34.067C66.4887 34.07 66.8437 34.097 67.1987 34.123C67.8997 34.181 68.5657 34.259 69.2237 34.346C69.6597 34.42 70.1037 34.462 70.5377 34.401C70.8977 34.341 72.8307 34.543 74.7647 34.883L75.4897 35.014L75.8007 35.073C75.8037 35.063 75.8037 35.079 75.8067 35.071C75.7937 35.078 75.8417 35.081 75.9917 35.017C76.2757 34.899 76.6497 34.61 76.7817 34.522C77.1157 34.304 77.5967 33.902 78.0257 33.565L79.3737 32.505C80.2897 31.802 81.2367 31.116 82.2467 30.489C82.5437 30.319 82.8087 30.066 83.1557 30.022C83.9557 29.921 84.5497 29.5 85.2667 29.202C86.2307 28.789 87.3717 28.467 88.6177 28.655C89.2267 28.758 89.8057 29.113 90.1987 29.559C90.5687 29.933 90.0247 30.184 89.8847 30.175C89.4407 30.117 89.6347 30.49 89.5417 30.672C89.5157 30.737 89.4787 30.82 89.4367 30.862C89.4257 30.874 89.3527 30.872 89.2457 30.858C89.1907 30.854 89.1337 30.834 89.0617 30.828C88.9867 30.834 88.9027 30.842 88.8117 30.85C88.4767 30.836 87.9817 31.023 87.4897 31.254C86.4737 31.788 85.4567 32.724 85.2377 32.868C85.2087 32.876 84.8307 33.16 84.2687 33.6C83.7067 34.051 82.9697 34.678 82.2347 35.373C81.4977 36.07 80.7707 36.812 80.1437 37.45C79.4667 38.156 78.6707 38.732 78.3857 38.898C77.7947 39.269 76.9997 39.517 76.0857 39.524C76.0337 39.527 75.8017 39.543 75.4337 39.523C75.3417 39.512 75.2417 39.5 75.1337 39.488C75.0487 39.475 74.9567 39.461 74.8587 39.447C74.7337 39.427 74.5937 39.405 74.4427 39.382C73.8357 39.289 73.0417 39.18 72.2457 39.084C70.6507 38.893 69.0747 38.769 68.9577 38.777C68.3367 38.738 67.7127 38.753 67.1377 38.767C66.8707 38.769 66.6057 38.772 66.3347 38.774C66.2137 38.771 66.1057 38.773 66.0267 38.751C65.9837 38.742 65.9467 38.731 65.9357 38.718L65.9217 38.707C65.9107 38.679 65.9227 38.762 65.8967 38.604C65.8577 38.388 65.8057 38.173 65.7377 37.961C65.6927 37.813 65.6487 37.671 65.6057 37.531C65.5647 37.406 65.4937 37.267 65.4437 37.161C65.4117 37.07 65.3627 36.983 65.2997 36.904C65.2277 36.82 65.2347 36.797 65.1727 36.754C65.0897 36.687 65.0907 36.726 65.1697 36.707C65.1907 36.699 65.3087 36.682 65.3577 36.645L65.4017 36.616L65.4127 36.608L65.4177 36.603L65.9377 36.31L65.9607 36.299L66.0487 36.251C66.2537 36.116 66.5517 35.876 66.8397 35.555C66.8637 35.53 66.8737 35.566 66.9267 35.593C67.0287 35.656 67.1767 35.748 67.3657 35.841C67.7397 36.032 68.1997 36.229 68.7157 36.447C68.9797 36.558 69.2397 36.672 69.5907 36.844L70.2927 37.188L71.1277 37.601L71.6087 37.857C71.8487 37.985 72.0587 38.125 72.2827 38.26C73.1727 38.831 73.9057 39.539 74.3087 40.417C74.4977 40.864 74.5807 41.359 74.5557 41.836C74.5417 42.072 74.5157 42.307 74.4197 42.534C74.3567 42.765 74.2607 42.993 74.1407 43.219C74.0067 43.554 73.7267 43.843 73.4847 44.137C73.3367 44.326 73.1757 44.5 73.0067 44.677C72.8707 44.823 72.7377 44.964 72.6047 45.106C71.5597 46.201 70.4717 47.104 69.2757 47.99L68.8097 48.322C68.7477 48.385 68.5867 48.457 68.4657 48.542L68.0837 48.787C67.8187 48.917 67.5447 49.024 67.2657 49.117C66.9787 49.187 66.6837 49.188 66.3887 49.159C64.9957 48.942 64.5247 48.609 63.8357 48.523C63.7817 48.518 63.7087 48.51 63.6187 48.5C63.5767 48.493 63.5357 48.499 63.5017 48.479L63.4597 48.464L63.4517 48.46L63.4487 48.458L63.5127 48.182C63.6877 47.471 63.7837 46.83 63.6917 46.68C63.6777 46.656 63.6847 46.684 63.7497 46.662C63.7867 46.655 63.8207 46.641 63.8507 46.62L64.1917 46.44C64.3717 46.351 64.4367 46.263 64.6767 46.098C64.7787 46.02 64.8767 45.939 64.9717 45.852C65.0587 45.775 65.1947 45.635 65.1587 45.681L65.1737 45.706C65.2027 45.74 65.2257 45.771 65.2737 45.819C65.4447 45.999 65.7147 46.238 65.9807 46.476L66.2037 46.672C66.3207 46.761 66.4097 46.876 66.5107 46.973C66.7187 47.162 66.8727 47.366 67.0387 47.536C67.1977 47.785 67.3497 47.983 67.4257 48.182C67.5257 48.366 67.5947 48.523 67.6387 48.646C67.8017 48.942 67.6507 49.696 67.3117 50.253C66.9257 50.824 66.4247 51.269 66.2267 51.456Z" fill="#221F1F"/>
<path fillRule="evenodd" clipRule="evenodd" d="M109.12 36.3989C109.992 37.1979 110.849 38.5199 111.312 39.7339C111.962 41.4359 112.055 43.2639 111.349 44.9639C110.901 46.0439 112.94 46.0559 113.292 45.2079C114.74 41.7189 113.391 37.6999 110.681 35.2169C110.007 34.5999 108.249 35.6019 109.12 36.3989Z" fill="#221F1F"/>
<path fillRule="evenodd" clipRule="evenodd" d="M41.5661 4.7109C42.0901 4.1789 42.5811 3.7469 43.1961 3.3099C43.3561 3.1959 43.5181 3.0869 43.6831 2.9819C43.7551 2.9359 43.8291 2.8909 43.9021 2.8459C44.0851 2.7359 43.7771 2.9149 43.9621 2.8119C44.2961 2.6269 44.6391 2.4589 44.9901 2.3109C45.0681 2.2779 45.1471 2.2479 45.2251 2.2159C45.4241 2.1349 45.0581 2.2719 45.2611 2.2009C45.4401 2.1379 45.6211 2.0809 45.8041 2.0289C45.9671 1.9829 46.1311 1.9409 46.2961 1.9029C46.3791 1.8839 46.4631 1.8669 46.5461 1.8499C46.9431 1.7649 46.4231 1.8649 46.6541 1.8299C47.0211 1.7739 47.3901 1.7359 47.7611 1.7189C48.1561 1.6999 48.3611 1.7069 48.8041 1.7359C49.3801 1.7749 50.1361 1.5589 50.4131 0.999898C50.6761 0.467898 50.1821 0.0638983 49.6801 0.0308983C47.7451 -0.0991017 45.8421 0.175898 44.0421 0.904898C42.3231 1.6019 40.8171 2.7389 39.5241 4.0539C39.1271 4.4569 39.3161 5.0079 39.8241 5.1779C40.4151 5.3749 41.1401 5.1439 41.5661 4.7109Z" fill="#221F1F"/>
<path fillRule="evenodd" clipRule="evenodd" d="M113.931 32.6601C114.816 33.2281 115.683 34.0151 116.156 34.9291C116.639 35.8661 116.794 36.9201 116.721 37.9611C116.688 38.4201 117.262 38.5051 117.613 38.4571C117.955 38.4111 118.724 38.1911 118.756 37.7331C118.839 36.5591 118.704 35.3741 118.15 34.3221C117.548 33.1761 116.612 32.3211 115.531 31.6271C115.139 31.3751 114.444 31.5511 114.09 31.7991C113.779 32.0161 113.52 32.3961 113.931 32.6601Z" fill="#221F1F"/>
<path fillRule="evenodd" clipRule="evenodd" d="M38.7438 29.7182C38.9448 32.3812 33.8598 32.5512 34.3128 29.4102C34.6298 27.2182 38.0328 27.0722 38.6538 29.2322C38.7028 29.4022 38.7318 29.5642 38.7438 29.7182Z" fill="#221F1F"/>
<path fillRule="evenodd" clipRule="evenodd" d="M28.6842 39.2798C28.8052 40.8778 25.7532 40.9798 26.0262 39.0948C26.2162 37.7798 28.2582 37.6928 28.6302 38.9878C28.6602 39.0908 28.6772 39.1878 28.6842 39.2798Z" fill="#221F1F"/>
<path fillRule="evenodd" clipRule="evenodd" d="M78.0817 87.772C78.2027 89.37 75.1507 89.472 75.4227 87.587C75.6137 86.272 77.6557 86.185 78.0277 87.48C78.0577 87.583 78.0747 87.68 78.0817 87.772Z" fill="#221F1F"/>
</g>
<defs>
<filter id="filter0_d_0_38" x="0" y="-0.000198364" width="122.778" height="114.284" filterUnits="userSpaceOnUse" color-interpolation-filters="sRGB">
<feFlood flood-opacity="0" result="BackgroundImageFix"/>
<feColorMatrix in="SourceAlpha" type="matrix" values="0 0 0 0 0 0 0 0 0 0 0 0 0 0 0 0 0 0 127 0" result="hardAlpha"/>
<feOffset dy="4"/>
<feGaussianBlur stdDeviation="2"/>
<feComposite in2="hardAlpha" operator="out"/>
<feColorMatrix type="matrix" values="0 0 0 0 0 0 0 0 0 0 0 0 0 0 0 0 0 0 0.25 0"/>
<feBlend mode="normal" in2="BackgroundImageFix" result="effect1_dropShadow_0_38"/>
<feBlend mode="normal" in="SourceGraphic" in2="effect1_dropShadow_0_38" result="shape"/>
</filter>
</defs>
</svg>
