<?xml version="1.0" standalone="no"?>
<!DOCTYPE svg PUBLIC "-//W3C//DTD SVG 20010904//EN"
 "http://www.w3.org/TR/2001/REC-SVG-20010904/DTD/svg10.dtd">
<svg version="1.0" xmlns="http://www.w3.org/2000/svg"
 width="48.000000pt" height="44.000000pt" viewBox="0 0 48.000000 44.000000"
 preserveAspectRatio="xMidYMid meet">

<g transform="translate(0.000000,44.000000) scale(0.100000,-0.100000)"
fill="#000000" stroke="none">
<path d="M375 410 c-13 -25 -14 -34 -5 -40 19 -11 4 -57 -27 -86 -14 -13 -29
-22 -32 -19 -3 4 1 10 8 15 11 6 12 18 5 52 l-9 43 -52 3 c-61 4 -113 -18
-113 -48 0 -16 -5 -19 -29 -14 -41 9 -69 -10 -81 -56 -6 -21 -15 -42 -20 -45
-13 -8 -13 -61 0 -85 5 -10 20 -20 34 -24 22 -5 24 -10 19 -45 -6 -44 6 -57
37 -41 16 9 24 7 37 -5 26 -26 201 -17 271 14 56 25 63 44 19 49 -27 3 -27 4
-27 82 0 72 -2 79 -25 94 l-25 16 20 33 c11 17 20 40 20 50 0 9 7 17 16 17 18
0 11 35 -11 59 -11 11 -16 8 -30 -19z m-100 -50 c-3 -5 -25 -10 -48 -10 -31 0
-38 3 -27 10 20 13 83 13 75 0z m-16 -74 c7 -28 23 -54 44 -73 29 -26 33 -34
31 -74 -1 -24 -2 -61 -3 -81 -1 -27 -6 -38 -16 -38 -12 0 -15 14 -15 64 0 36
-5 68 -10 71 -14 9 -30 -39 -30 -91 l0 -44 -50 0 -50 0 0 155 0 155 44 0 c43
0 44 0 55 -44z m-169 -24 c0 -13 -12 -22 -22 -16 -10 6 -1 24 13 24 5 0 9 -4
9 -8z m40 -52 c0 -5 -4 -10 -10 -10 -5 0 -10 5 -10 10 0 6 5 10 10 10 6 0 10
-4 10 -10z m270 -72 c0 -52 -4 -76 -17 -90 -9 -10 -20 -18 -25 -18 -14 0 -10
168 5 173 33 14 37 7 37 -65z m-330 22 c0 -5 -7 -10 -15 -10 -8 0 -15 5 -15
10 0 6 7 10 15 10 8 0 15 -4 15 -10z m70 -79 c0 -17 -6 -31 -16 -35 -24 -9
-24 -9 -24 29 0 28 4 35 20 35 15 0 20 -7 20 -29z"/>
<path d="M192 253 c4 -66 28 -70 28 -4 0 39 -4 51 -16 51 -12 0 -14 -10 -12
-47z"/>
<path d="M195 140 c-11 -17 5 -32 21 -19 7 6 11 15 8 20 -7 12 -21 11 -29 -1z"/>
</g>
</svg>
