<svg width="94" height="114" viewBox="0 0 94 114" fill="none" xmlns="http://www.w3.org/2000/svg">
<path fillRule="evenodd" clipRule="evenodd" d="M23.6303 27.8186L25.4903 27.0716C26.1033 26.8046 26.6983 26.4996 27.3053 26.2146C28.5273 25.6646 29.6923 24.9986 30.8603 24.3356C31.7283 23.8756 32.5053 23.2706 33.3383 22.7546C36.2443 20.8826 39.0383 18.8006 41.6263 16.4696C42.7583 15.4196 43.8903 14.3516 44.9243 13.2166C45.6083 12.5066 46.2493 11.7546 46.9063 11.0166C47.5573 10.2736 48.2763 9.58861 48.9893 8.89661C49.4433 8.47361 49.5753 8.68661 49.4613 9.27261C49.3263 9.83961 49.0523 10.8796 48.3383 11.7936C45.7353 14.9576 42.8313 17.9086 39.4963 20.3816C38.9993 20.7516 38.5083 21.1376 38.0163 21.5286C37.5113 21.9056 37.0033 22.2836 36.4943 22.6636C35.4983 23.4526 34.4323 24.1606 33.3783 24.8616C32.2293 25.6506 30.9823 26.2886 29.7873 27.0036C28.5453 27.6356 27.3083 28.2806 26.0393 28.8536C24.4583 29.5226 22.8863 30.2066 21.2513 30.7246C20.6363 30.9316 20.0293 31.1636 19.4063 31.3466L17.5253 31.8486C16.8963 32.0066 16.2773 32.2066 15.6453 32.3376L13.7493 32.7266C13.2603 32.8376 12.7753 32.9466 12.2893 33.0566C11.8043 33.1676 11.3133 33.2266 10.8263 33.3186C9.8503 33.4856 8.8753 33.6736 7.8893 33.8046C7.4533 33.8406 7.0283 33.8946 6.5873 33.9196C4.9513 34.0196 4.4243 33.8656 4.0753 33.3616C3.9963 33.2446 3.8923 33.1306 3.8463 33.0136C3.6933 32.6226 4.3443 32.2556 5.4933 32.0596C6.3483 31.9436 7.2093 31.8276 8.0763 31.7106C8.9383 31.5436 9.8073 31.3936 10.6853 31.2696C11.5673 31.1696 12.4393 30.9786 13.3153 30.7926C14.1883 30.5966 15.0833 30.4786 15.9493 30.2356C18.5373 29.5726 21.1283 28.8216 23.6093 27.7766L23.6303 27.8186Z" fill="#221F1F"/>
<path fillRule="evenodd" clipRule="evenodd" d="M27.5048 95.2664C25.7298 93.0484 24.4198 90.8004 23.0778 88.4814C21.7618 86.1674 20.5638 83.7974 19.4118 81.4154C18.5728 79.6764 17.7068 77.9544 16.9268 76.1964L8.89179 57.5714C7.70879 54.8134 6.49479 52.0474 5.35579 49.2904C4.62379 47.5194 3.87479 45.7504 3.19579 43.9514C2.85179 43.0544 2.52879 42.1474 2.21979 41.2384C1.90479 40.3304 1.70379 39.3834 1.46979 38.4504C1.20179 37.2784 1.53779 37.3384 2.25479 38.1564C2.61379 38.5644 3.07379 39.1594 3.59579 39.8864C4.08079 40.6254 4.54179 41.5284 4.94979 42.5414C6.38779 46.1414 7.93379 49.6974 9.45379 53.2814C10.9498 56.8824 12.4498 60.4914 13.9588 64.1214C15.7488 68.4774 17.8048 72.9264 19.8158 77.2724C22.0298 82.0494 24.3898 86.7544 27.1958 91.1794C28.8758 93.8854 31.0578 96.1914 33.5528 98.2174C37.2978 101.312 41.6248 103.745 46.0258 105.768C49.4708 107.311 53.0038 108.46 56.5948 109.375C57.3858 109.571 58.1608 109.764 58.9578 109.961C61.9148 110.654 62.8268 110.984 63.4098 111.599C63.5428 111.736 63.7258 111.875 63.7998 111.994C63.9238 112.195 63.6668 112.32 63.0788 112.402C62.4958 112.472 61.5608 112.567 60.4198 112.377C56.9908 111.988 53.5698 111.046 50.2188 109.82C46.8638 108.596 43.5598 107.092 40.3808 105.324C35.7058 102.636 31.1508 99.5314 27.4688 95.3064L27.5048 95.2664Z" fill="#231F20"/>
<path fillRule="evenodd" clipRule="evenodd" d="M89.4838 67.1326C89.1378 71.2656 88.8628 75.4126 88.6728 79.5576C88.6188 80.3216 88.6718 81.0396 88.5658 81.8886C88.4488 82.7096 88.3658 83.5556 88.1118 84.3086C86.5268 89.7626 83.3508 94.2836 80.0158 98.5226C78.5248 100.405 76.9568 102.238 75.3388 103.987C73.2478 106.212 71.0528 108.404 68.4518 110.089C67.6408 110.614 67.5128 110.186 67.8878 109.362C68.2718 108.548 69.1018 107.311 70.3198 106.119C74.6108 101.859 78.6768 97.2926 82.1328 92.2556C82.6328 91.4926 83.1498 90.7246 83.5748 89.9046C83.7948 89.4996 84.0238 89.0946 84.2328 88.6806L84.8078 87.4166C85.2188 86.5796 85.4638 85.6936 85.7898 84.8316C86.0038 83.9526 86.2958 83.0696 86.3788 82.2106C86.4618 81.7316 86.5338 81.2796 86.5268 80.7466L86.5848 79.1686L86.7248 76.0156C86.8278 73.9156 86.9538 71.8156 87.0888 69.7176C87.2588 67.1346 87.4698 64.5536 87.6828 61.9756C88.0258 58.0696 88.4798 54.1546 88.9508 50.2846C89.3798 47.2816 89.6828 44.3176 90.3778 41.3526C90.5208 40.6996 90.6258 40.0526 90.8558 39.4026C91.6928 37.0156 92.4018 36.3706 92.9538 36.0826C93.0898 36.0176 93.2378 35.9196 93.3448 35.9016C93.7138 35.8526 93.4938 36.8606 93.1028 38.5226C92.0308 43.5826 91.3738 49.0966 90.7078 54.6546C90.2418 58.7856 89.8448 62.9576 89.5398 67.1316L89.4838 67.1326Z" fill="#221F1F"/>
<path fillRule="evenodd" clipRule="evenodd" d="M75.6649 16.929C74.6299 16.518 73.6059 16.094 72.6159 15.598C71.6059 15.145 70.6399 14.611 69.6699 14.09C68.9529 13.729 68.2489 13.345 67.5609 12.934C65.1639 11.435 62.8839 9.777 60.7389 7.974C59.7679 7.2 58.8269 6.379 57.8699 5.604L56.0729 4.047C55.5009 3.497 54.9569 2.917 54.4659 2.293C53.8519 1.522 55.9239 1.235 57.2409 2.388C59.6129 4.438 62.0409 6.381 64.4889 8.394C65.2159 9.006 66.0269 9.531 66.8599 10.029C67.6779 10.554 68.5519 10.987 69.3899 11.469C70.3029 12.016 71.2729 12.45 72.2109 12.951C73.1769 13.391 74.1399 13.848 75.1259 14.241L76.9599 14.942C77.5769 15.161 78.2069 15.337 78.8309 15.533C79.7709 15.85 80.7489 16.027 81.7099 16.27C82.6779 16.484 83.6629 16.596 84.6339 16.73C85.3969 16.773 86.1549 16.766 86.9039 16.77C87.6549 16.755 88.4009 16.662 89.1459 16.626C89.4749 16.612 89.7939 16.564 90.1219 16.52C91.3399 16.396 91.7399 16.535 92.0809 17.147C92.1579 17.286 92.2559 17.424 92.3099 17.565C92.4919 18.042 92.0179 18.49 91.0689 18.724C89.6659 19.109 88.1819 19.22 86.6769 19.278C85.9259 19.27 85.1699 19.213 84.4109 19.164C83.6589 19.067 82.9069 18.946 82.1539 18.827C81.0399 18.635 79.9459 18.336 78.8529 18.055C77.7839 17.695 76.6869 17.415 75.6479 16.986L75.6649 16.929Z" fill="#221F1F"/>
<path fillRule="evenodd" clipRule="evenodd" d="M35.9242 48.7786C34.5152 53.9226 35.6202 59.6266 38.5192 64.2196C39.5682 65.9086 40.8912 67.4156 42.3242 68.7886C44.8782 71.1746 47.9552 73.0806 51.3442 73.9766C54.7132 74.9426 58.3532 74.7986 61.6622 73.6116C64.5642 72.4906 67.2232 70.5516 69.2392 68.2016C71.8262 65.1176 73.2552 61.2486 73.8202 57.3016C73.9462 56.0686 74.3972 56.1756 74.8872 57.3186C75.1142 57.8906 75.3322 58.7306 75.3922 59.7656C75.4812 60.8026 75.3352 62.0216 74.8972 63.2496C74.1392 65.4326 73.0022 67.4716 71.5702 69.2876C70.8592 70.1946 70.0512 71.0496 69.1852 71.8016L67.8752 72.9146L66.4572 73.9046C64.5082 75.1436 62.3372 76.0756 60.0602 76.5626C57.7852 77.0536 55.4232 77.0946 53.1532 76.7186C47.7342 75.7996 42.5512 72.9386 38.9292 68.7656C34.9212 64.2486 32.5452 58.1576 32.9712 52.0716C33.2262 48.3306 34.4632 44.7386 36.6362 41.6456C38.3702 39.3656 40.6512 37.6506 43.0652 36.2966C44.2732 35.6116 45.5332 35.0316 46.8222 34.5406C48.1082 34.0406 49.4222 33.6176 50.7632 33.3086C52.8422 32.8046 54.9662 32.5236 57.1152 32.5526C59.2602 32.5686 61.4492 32.9566 63.4982 33.8726C63.9482 34.0736 64.3772 34.3176 64.8122 34.5496C65.2182 34.8296 65.6582 35.0726 66.0372 35.4086C67.5152 36.5896 68.0932 37.7586 68.4212 38.5316C68.5682 38.9376 68.6752 39.2576 68.6932 39.5506C68.6942 39.8516 68.6502 40.1046 68.5972 40.3296C68.5472 40.5366 68.5292 40.7806 68.4742 40.9036C68.3782 41.1156 68.1222 40.9246 67.6602 40.4926C67.2012 40.0616 66.6652 39.3376 65.8802 38.5446C64.7152 37.3796 63.3602 36.4466 61.7922 35.8586C60.2352 35.2566 58.5012 35.0086 56.7432 34.9686C53.2142 34.9086 49.5382 35.7846 46.2012 37.3026C43.7412 38.4576 41.3982 39.9526 39.5822 41.8596C39.1342 42.3376 38.7202 42.8356 38.3462 43.3546C38.1662 43.6156 38.0082 43.8856 37.8342 44.1496L37.3882 45.0406L36.9402 45.9326L36.5832 46.8726C36.3212 47.4926 36.1552 48.1406 35.9842 48.7866L35.9242 48.7786Z" fill="#221F1F"/>
<path fillRule="evenodd" clipRule="evenodd" d="M68.1215 50.5891C66.7435 52.6071 65.5525 54.7881 64.4395 57.0321C64.0325 57.8521 63.7365 58.7211 63.3465 59.5561L62.3275 61.7931C61.7995 62.9741 61.2925 64.4361 60.5645 65.0711C60.3835 65.2281 60.2225 65.4001 59.9965 65.4531C59.9425 65.4711 59.8825 65.4881 59.8145 65.5011L59.7625 65.5061L59.7495 65.5081H59.7465C59.7425 65.4981 59.7655 65.6011 59.7545 65.5571H59.7485L59.7245 65.5561L59.6305 65.5551C59.5115 65.5431 59.3995 65.5261 59.2905 65.4901C58.8545 65.3371 58.3955 65.0921 57.9295 64.6861C57.4625 64.2831 57.0185 63.7551 56.6055 63.2551L56.0495 62.5901L55.6585 62.1041C54.7345 60.9581 53.7505 59.8721 52.7425 58.8581C52.0905 58.2121 51.4145 57.5981 50.7755 56.9821L50.2905 56.5331L50.0505 56.3171C50.0105 56.2801 49.9715 56.2451 49.9295 56.2141C49.9125 56.1481 49.8725 56.1131 49.8445 56.0611C49.7325 55.8521 49.5755 55.7051 49.4175 55.5821C49.2635 55.4511 49.1035 55.3271 48.9565 55.2431C48.6545 55.0601 48.5095 54.7121 49.1725 54.3991C49.5065 54.2571 49.9965 54.2071 50.5415 54.2551C50.8095 54.2891 51.1845 54.2001 51.4825 54.2771C51.7535 54.3731 52.0295 54.5021 52.2735 54.6691C54.0435 55.8251 55.3645 57.2801 56.7015 58.6831L57.6685 59.7571L58.1395 60.2971L58.3715 60.5661C58.4435 60.6511 58.4085 60.6291 58.4335 60.6671C58.4915 60.8261 58.5445 61.0451 58.7725 61.3711C58.8575 61.4881 58.9155 61.4101 58.9595 61.3821C59.0065 61.3401 59.0495 61.2811 59.0915 61.2121C59.1805 61.0551 59.2335 60.9411 59.3305 60.6821C59.7285 59.5671 60.1175 58.4211 60.5805 57.3131C61.5855 54.8681 62.8195 52.4981 64.2115 50.2241C65.0675 48.8231 66.0045 47.4681 67.0075 46.1621C68.5155 44.1721 70.3085 42.3851 72.2175 40.7851C73.6985 39.5461 75.1965 38.3061 76.9525 37.4241C77.3375 37.2331 77.7065 37.0231 78.1145 36.8671C78.8615 36.5561 79.4185 36.5331 79.8105 36.5591C80.2085 36.5971 80.4735 36.7611 80.7165 37.0221C80.8265 37.1421 80.9575 37.2531 81.0335 37.3761C81.2885 37.7941 80.7955 38.3361 79.9175 38.9611C77.2675 40.6751 74.8175 42.5631 72.6485 44.9261C71.0755 46.6931 69.4985 48.5421 68.1985 50.6321L68.1215 50.5891Z" fill="#221F1F"/>
<path fillRule="evenodd" clipRule="evenodd" d="M22.9809 25.0022C25.7799 23.6292 28.4889 22.0232 31.0719 20.2162C32.0109 19.5522 32.8879 18.8072 33.8019 18.1072C37.0379 15.6552 40.1189 12.9522 42.9459 9.99421C44.1919 8.67521 45.3789 7.28521 46.4669 5.85321C47.1629 4.93121 47.8279 3.98221 48.4779 3.03521C49.0959 2.06621 49.9019 1.22121 50.5789 0.304213C51.0109 -0.249787 51.3369 -0.0187868 51.4709 0.767213C51.5389 1.16221 51.5479 1.68621 51.4799 2.28921C51.3829 2.87121 51.3029 3.58921 50.9089 4.16721C49.6059 6.26621 48.1629 8.24821 46.5909 10.1282C45.0199 12.0082 43.2479 13.7172 41.3909 15.3302C39.1639 17.2472 36.9969 19.3992 34.6219 21.2462C32.0179 23.2782 29.2529 25.1102 26.3749 26.7362C24.5959 27.7242 22.7849 28.6572 20.9219 29.4752C18.1089 30.7372 15.1669 31.7242 12.2239 32.5662C9.94189 33.2432 7.67389 33.8932 5.32089 34.3032C4.80189 34.3802 4.29589 34.4872 3.76889 34.5462C2.79289 34.6772 2.13689 34.5912 1.68089 34.4432C1.22289 34.2842 0.959895 34.0112 0.751895 33.5802C0.655895 33.3832 0.532895 33.1902 0.478895 32.9942C0.300895 32.3362 1.06389 31.7432 2.38489 31.4542C3.36989 31.2752 4.35289 31.0092 5.34489 30.8342C6.32789 30.5662 7.32689 30.3942 8.31989 30.1432C10.3149 29.6982 12.3109 29.1362 14.2979 28.5122C17.2399 27.5542 20.1499 26.3782 22.9389 24.9342L22.9809 25.0022Z" fill="#221F1F"/>
<path fillRule="evenodd" clipRule="evenodd" d="M60.1835 111.928C47.6315 108.235 32.7765 102.806 27.0805 94.3635C21.7865 86.5165 17.9385 77.5465 14.0345 68.9175C9.6425 59.2135 5.1275 49.4225 1.7205 39.3425L-0.00050354 42.7835C3.4075 52.8645 7.9215 62.6545 12.3135 72.3585C16.2185 80.9885 20.0645 89.9575 25.3595 97.8045C30.2785 105.096 52.3035 114.419 56.4485 113.256L60.1835 111.928Z" fill="#231F20"/>
<path fillRule="evenodd" clipRule="evenodd" d="M77.7685 20.4475C75.9635 19.9905 74.2065 19.3565 72.4775 18.6835C71.8475 18.4355 71.2165 18.1845 70.5985 17.9085C68.4495 16.8605 66.3885 15.6405 64.4955 14.1985C64.0595 13.9035 63.6685 13.5415 63.2475 13.2245C62.8385 12.8925 62.4015 12.5955 62.0215 12.2345C61.5225 11.7855 60.9985 11.3595 60.5115 10.8935C60.0495 10.4025 59.6045 9.8935 59.2065 9.3505C58.7105 8.6835 60.4085 8.6125 61.4505 9.6145C63.3685 11.3845 65.4345 12.9465 67.6075 14.4645C68.2625 14.9125 68.9615 15.3235 69.7065 15.6555L70.8135 16.1765L71.9465 16.6395C73.5875 17.3515 75.2995 17.9025 77.0265 18.4055C78.1015 18.6675 79.1735 18.9605 80.2685 19.1425C81.9175 19.4665 83.5995 19.6885 85.2685 19.7855C86.5695 19.8315 87.8455 19.7575 89.1255 19.6785L89.9665 19.6195C91.0185 19.5665 91.3555 19.6865 91.6075 20.1755C91.6645 20.2855 91.7395 20.3965 91.7755 20.5085C91.8975 20.8855 91.4755 21.2165 90.6825 21.3645C89.5095 21.5955 88.2885 21.6935 87.0485 21.7325C85.8085 21.7575 84.5535 21.6465 83.2995 21.5225C81.4395 21.2875 79.5825 20.9595 77.7605 20.4925L77.7685 20.4475Z" fill="#221F1F"/>
</svg>
