<svg width="117" height="102" viewBox="0 0 117 102" fill="none" xmlns="http://www.w3.org/2000/svg">
<path fillRule="evenodd" clipRule="evenodd" d="M54.7707 46.7537C54.7567 45.7787 55.4457 44.9807 56.6667 44.6947C57.0597 44.6317 57.6817 45.3177 57.7737 45.4137C57.8557 45.7857 57.9347 46.3237 57.9687 46.8297C57.9387 47.0697 57.3467 52.0997 56.9457 54.0337C56.8757 54.3817 56.7977 54.7327 56.6887 55.1037C56.6587 55.2417 56.5207 55.6047 56.4147 55.8777C56.3037 56.1677 56.1647 56.4447 56.0237 56.7187C55.7267 57.2597 55.3357 57.7207 54.8527 58.0767C54.3677 58.4527 53.7737 58.5337 53.1817 58.6667L52.1417 58.7507L51.5807 58.8137C50.7857 58.9077 49.9807 59.0307 49.1837 59.1727C48.7937 59.2437 48.3697 59.3247 48.0177 59.4007C47.9967 59.4077 48.0037 59.4097 47.9977 59.4147C47.9847 59.4297 48.0067 59.4417 48.0177 59.4407C48.0177 59.4407 47.9497 59.4457 47.8997 59.5137C47.8787 59.5427 47.8727 59.5747 47.8777 59.6087C47.8797 59.6257 47.9197 59.6627 47.9427 59.6887L47.9657 59.7117L48.0637 59.7727L48.2607 59.8947C48.7867 60.2187 49.3317 60.5217 49.8867 60.8047C50.4417 61.0877 51.0077 61.3517 51.5737 61.5897C51.7317 61.6607 52.4377 61.9477 52.9997 62.1277C53.6567 62.2397 54.1947 62.5437 54.5307 62.8737C54.6497 62.9807 54.7387 63.0947 54.8057 63.1687C54.8957 63.2817 54.9857 63.4647 55.0467 63.6057C55.1767 63.9067 55.2687 64.2297 55.3547 64.5697C55.4507 64.8347 55.3937 65.9017 55.0677 67.4027C55.0267 67.6057 54.9837 67.8217 54.9387 68.0487C54.9217 68.1457 54.9407 68.0867 54.9387 68.1117C54.9457 68.1227 54.9497 68.1287 54.9517 68.1347C54.9607 68.1497 54.9157 68.2087 54.8217 68.3557C54.7207 68.5077 54.6147 68.6827 54.5187 68.8787C54.4597 68.9917 54.4357 69.0507 54.4377 69.1077C54.4417 69.2107 54.5387 69.2347 54.7167 69.2127L54.8307 69.1927C54.9037 69.1747 54.9747 69.0547 55.0587 69.1937C55.2727 69.5017 55.6187 69.1657 56.0027 68.9177C56.8197 68.3657 57.6517 67.8357 58.5207 67.3657C58.9517 67.1337 59.4647 67.0287 59.9547 66.8927C60.3987 66.7687 60.5277 67.3637 60.4397 67.5007C60.1827 67.8987 60.6267 67.9087 60.7947 68.0757C60.8517 68.1317 60.9247 68.2067 60.9447 68.2697C60.9667 68.3397 59.9787 69.3827 58.9387 70.4637C58.6777 70.7327 58.4147 71.0057 58.1637 71.2647L57.9767 71.4567C57.9237 71.5137 57.8537 71.5817 57.7457 71.6797C57.5507 71.8587 57.3637 72.0297 57.1877 72.1907C56.5047 72.8107 55.7847 73.4547 55.5837 73.6037C55.5637 73.6197 55.4387 73.7187 55.0677 74.0117C54.6867 74.3407 54.0727 74.8257 53.0167 75.7687C52.7777 75.9827 52.4377 76.2867 52.0217 76.6587C51.9247 76.7377 51.7917 76.8827 51.7097 76.9187C51.6257 76.9567 51.5387 76.9967 51.4477 77.0387C51.2667 77.1197 51.0737 77.2067 50.8727 77.2977C50.7757 77.3387 50.6567 77.3997 50.5727 77.4257L50.3467 77.4717C50.1937 77.5007 50.0357 77.5297 49.8747 77.5607C49.6757 77.5277 49.4417 77.4807 49.3577 77.4067C49.2847 77.3647 49.2817 77.3527 49.2557 77.3267C49.1877 77.2767 49.0587 77.2437 48.9887 77.2017C48.8237 77.1177 48.6837 76.9927 48.5767 76.8257C48.4647 76.6667 48.4077 76.4437 48.3417 76.2777C48.2777 76.1117 48.1907 76.0157 48.1647 75.9327C47.9777 75.5707 48.0777 74.7697 48.3597 73.8397C48.4097 73.6247 49.1297 70.5197 49.8547 67.3957L49.9687 66.8537L50.0237 66.5537C50.0367 66.4747 50.0677 66.3147 50.0657 66.3037L50.0537 66.2897C50.0377 66.2727 50.0207 66.2657 50.0047 66.2647C49.9737 66.2617 49.9527 66.2787 49.9527 66.2787C49.9617 66.2727 49.9547 66.2757 49.9547 66.2757L49.9507 66.2797C49.9507 66.2797 49.9527 66.2807 49.9477 66.2797L49.7387 66.1897C49.0727 65.8957 48.4407 65.5577 47.8737 65.1017C47.6507 64.9227 47.3827 64.8117 47.1237 64.6927L46.2967 64.2897L45.8867 64.0757L45.3567 63.7847C44.4667 63.2857 43.4497 62.6717 42.6637 62.0497C41.8497 61.4217 41.2457 60.7447 40.9217 60.0937C40.7817 59.7667 40.6517 59.4477 40.6107 59.1097C40.5877 58.9397 40.5747 58.7627 40.5787 58.5677C40.5807 58.3717 40.7127 58.1587 40.7007 57.9787C40.8297 57.6057 40.9957 57.3327 41.2627 57.0707C41.3807 56.9387 41.5127 56.8077 41.6427 56.6757C41.7827 56.5467 41.8717 56.4017 42.0827 56.2957L42.6367 55.9537C42.8257 55.8397 43.0787 55.7547 43.2967 55.6537C43.7267 55.4447 44.2507 55.2967 44.7617 55.1427C45.1247 55.0217 45.5477 54.9877 45.9337 54.9147C46.3747 54.8397 46.8187 54.7657 47.2507 54.6927C48.0857 54.5107 48.9207 54.3727 49.7617 54.2627L51.0307 54.1117L51.6727 54.0497L51.9327 54.0337C51.9947 54.0267 52.0647 54.0427 52.1197 54.0077C52.1727 53.9707 52.2047 53.9117 52.2297 53.8537C52.2567 53.7947 52.2717 53.7347 52.2847 53.6707C52.3457 53.4717 52.4237 53.1967 52.4817 52.9407C52.6357 52.4287 53.7167 49.5647 53.8157 48.7947C53.8727 48.3787 54.7727 47.1537 54.7707 46.7537Z" fill="#231F20"/>
<path fillRule="evenodd" clipRule="evenodd" d="M50.4187 78.6937C50.1757 78.7057 49.9297 78.7057 49.6897 78.6937C49.4527 78.6727 49.2367 78.5697 49.0087 78.5117C48.7867 78.4367 48.5897 78.2957 48.3797 78.1917C48.1937 78.0477 48.0487 77.8567 47.8987 77.6827C47.6447 77.2907 47.4867 76.8227 47.4177 76.3207C47.3707 76.0747 47.3707 75.8277 47.3447 75.5807L47.3397 75.0937C47.3707 73.8697 47.5377 72.7657 47.7217 71.6597C47.9127 70.5607 48.1387 69.4817 48.3857 68.4107L48.7717 66.8107L48.8547 66.4877L48.8767 66.4167L48.9257 66.2667C48.9167 66.2247 48.8487 66.2077 48.8077 66.1817L48.7337 66.1477C48.6827 66.1267 48.7447 66.1477 48.5877 66.0887L47.0137 65.4927C45.9457 65.0767 44.8707 64.6067 43.8307 64.0397C42.8437 63.5107 41.8817 62.8957 40.9947 62.1597C40.5377 61.8107 40.1327 61.3887 39.7177 60.9837L39.1407 60.3147C38.8717 60.0117 38.6107 59.5817 38.3477 59.2197C38.2037 58.8097 37.9517 58.4227 38.0087 57.9917C38.0897 57.1437 38.7507 56.5587 39.5437 56.1467C40.4937 55.6747 40.8817 55.6127 41.4587 55.4327C42.5397 55.1327 43.6017 54.9297 44.6677 54.7547C45.7317 54.5817 46.7947 54.4457 47.8637 54.3397C48.3977 54.2877 48.9327 54.2417 49.4707 54.2067L50.0657 54.1767H50.3557L52.2327 48.8987C52.9757 46.9087 53.6947 44.9397 54.6557 42.9577L54.8387 42.6057C54.9187 42.4467 55.0177 42.2997 55.1107 42.1497C55.2927 41.8397 55.5307 41.6047 55.8137 41.4137C56.3687 41.2187 56.9897 41.0897 57.5657 41.3337C57.8577 41.4017 58.1377 41.5687 58.3897 41.7307C58.6197 41.8597 58.7797 42.0117 58.9637 42.1577C59.6667 42.7507 60.2337 43.3877 60.7727 44.0307C61.8507 45.3167 62.8257 46.6247 63.8167 47.9027C64.4297 48.6987 65.0517 49.4827 65.6817 50.2587L66.6357 51.4117C66.8197 51.6167 66.9677 51.7957 67.1317 51.9637L67.5077 51.7807L68.3767 51.4107C69.0307 51.1437 69.6937 50.8957 70.3747 50.6807C71.7367 50.2617 73.1387 49.8887 74.7467 49.9857C75.1927 50.0337 75.5147 50.1427 75.7107 50.2987C75.8987 50.4367 75.9417 50.5597 75.8827 50.6667C75.7517 50.8957 75.2827 51.0057 74.7137 51.2897C73.5647 51.8267 71.7107 52.8797 69.2817 53.8927L68.8497 54.0747L68.2017 54.3617C67.6057 54.6287 67.0067 54.9267 66.4107 55.2127L65.2267 53.7987L64.6347 53.0907L64.3167 52.6967C63.8927 52.1737 63.4787 51.6467 63.0707 51.1167L60.6817 47.9407C59.8987 46.8967 59.1197 45.8527 58.3217 44.9447C57.9267 44.4787 57.5157 44.0947 57.1567 43.8107C57.0397 43.7427 57.0817 43.7557 57.0737 43.7477L57.0497 43.7307C57.0307 43.7197 57.0087 43.7157 56.9847 43.7197C56.9697 43.7247 56.9577 43.7367 56.9447 43.7497L56.9257 43.7707L56.7897 44.0267C56.5947 44.4047 56.4037 44.8187 56.2187 45.2357C55.8477 46.0737 55.4937 46.9417 55.1467 47.8147C54.4527 49.5627 53.7857 51.3397 53.1257 53.1227C52.9817 53.5227 52.8357 53.9227 52.6897 54.3277C52.4657 54.9937 52.2387 55.6667 52.0087 56.3507C49.7317 56.3857 49.1267 56.4667 47.9427 56.5847C46.8567 56.7037 45.7677 56.8617 44.6907 57.0607C43.6197 57.2637 42.5447 57.5027 41.5647 57.8307L41.2087 57.9587L41.0697 58.0157C40.9867 58.0517 40.9077 58.0957 40.8337 58.1477C40.7627 58.1987 40.6867 58.2717 40.6917 58.3657C40.7007 58.4577 40.7737 58.5247 40.8187 58.6007C40.8967 58.7107 40.8787 58.7077 41.0767 58.9317C41.2647 59.1447 41.4297 59.3757 41.6437 59.5677C42.8127 60.7737 44.2827 61.7187 45.8757 62.4757C46.6737 62.8537 47.4997 63.1917 48.3517 63.5117L49.7577 64.0427C50.4537 64.3087 51.0967 64.6367 51.6587 65.0167L51.2087 66.7097L50.9167 67.8807C50.7487 68.5757 50.5877 69.2727 50.4397 69.9687C50.1467 71.3617 49.8857 72.7657 49.7567 74.1397C49.7127 74.6027 49.6897 75.1347 49.7037 75.5007C49.7197 75.7397 49.7227 75.9937 49.8947 76.1717C50.0867 76.3317 50.3567 76.2977 50.5797 76.2307C50.6407 76.2097 50.6887 76.2077 50.7607 76.1697L51.0417 76.0437C51.2387 75.9657 51.4377 75.8247 51.6367 75.7197C53.2287 74.7307 54.6797 73.3267 56.0187 71.8727C56.7327 71.1017 57.4087 70.2877 58.0737 69.4657L59.0437 68.2117L60.3857 66.3667L62.2607 67.4937L63.5507 68.2477C64.4127 68.7467 65.2807 69.2307 66.1517 69.7047C67.0247 70.1717 67.8997 70.6337 68.7847 71.0557C69.2247 71.2737 69.6687 71.4697 70.1127 71.6657C70.3357 71.7667 70.5577 71.8457 70.7797 71.9377L71.1057 72.0657L71.3247 72.1357C71.5027 72.2007 71.6677 72.2387 71.8267 72.2667C71.9767 72.2797 72.1857 72.3387 72.2547 72.1557C72.4127 71.8647 72.4197 71.5077 72.3987 71.2147C72.3397 70.1787 72.0237 69.0787 71.6427 68.0347C71.2507 66.9837 70.7807 65.9517 70.2427 64.9497C69.9787 64.4467 69.6937 63.9517 69.4087 63.4577C69.3067 63.2847 68.9837 62.7637 68.7887 62.3917L68.6277 62.0867C68.5827 61.9847 68.4787 61.8817 68.5767 61.7797L68.8977 61.1697L69.2157 60.6397L69.4967 60.2147C69.6587 59.9897 69.8137 59.7597 69.9867 59.5457C70.3217 59.1057 70.6917 58.6937 71.0887 58.2957C72.5857 56.8417 73.8357 56.1767 74.7387 55.8527C75.6497 55.5337 76.2387 55.5307 76.7457 55.7057C76.9757 55.7827 77.2567 55.8427 77.3997 55.9487C77.9007 56.3747 76.4507 56.9837 74.3827 58.5107C73.6177 59.0857 72.9167 59.7507 72.2967 60.4857C71.9837 60.8507 71.6987 61.2377 71.4307 61.6307L71.3357 61.7797L71.3207 61.8127L71.2977 61.8727C71.2797 61.9117 71.2707 61.9477 71.3137 61.9807L71.3567 62.0307C71.3707 62.0457 71.3687 62.0347 71.4647 62.1957C71.6127 62.4317 71.7457 62.6777 71.8827 62.9217C72.1627 63.4047 72.4257 63.9027 72.6787 64.4107C73.1817 65.4267 73.6557 66.4737 74.0277 67.5967C74.2157 68.1577 74.3817 68.7357 74.5167 69.3367C74.5827 69.6377 74.6347 69.9497 74.6847 70.2637L74.7377 70.7507C74.7457 70.8327 74.7577 70.9107 74.7577 70.9987L74.7677 71.3427C74.7607 72.4347 74.5467 73.4967 73.9007 74.1627L73.6657 74.4297C73.6257 74.4737 73.5877 74.5247 73.5447 74.5627L73.3777 74.5997C73.1517 74.6357 72.9447 74.7267 72.7007 74.7187C72.2107 74.6757 71.7167 74.7357 71.2317 74.5417C70.0727 74.2307 69.7507 74.0537 69.1587 73.8157C68.6237 73.5827 68.0977 73.3427 67.5867 73.0927C66.5587 72.5947 65.5567 72.0737 64.5687 71.5357L62.1467 70.1837L61.0527 69.5477L61.0477 69.5397L59.7257 71.2367C58.9607 72.2007 58.1397 73.1287 57.2927 74.0387C56.4257 74.9387 55.5237 75.8127 54.5197 76.6277C54.0127 77.0327 53.4837 77.4247 52.8927 77.7867C52.5857 77.9637 52.2977 78.1457 51.9367 78.2977C51.7817 78.3587 51.5587 78.4977 51.2627 78.5487L50.4327 78.7527L50.4187 78.6937Z" fill="#221F1F"/>
<path fillRule="evenodd" clipRule="evenodd" d="M106.061 36.3406C106.015 36.5286 105.78 36.4866 105.429 36.3226C105.317 36.2696 105.066 36.0206 105.064 35.9496C105.061 35.8126 105.061 35.6756 105.082 35.5556C105.092 35.4826 105.645 34.6606 105.84 34.3806C106.02 34.1006 106.25 33.8746 106.486 33.6556C106.972 33.2186 107.454 32.7746 107.966 32.3686C108.079 32.2776 108.204 32.2016 108.342 32.1466C108.812 31.9536 109.216 31.6736 109.605 31.3626C109.67 31.3116 109.746 31.2746 109.776 31.1716C109.813 30.9846 110.961 30.2686 111.15 30.2486C111.601 30.1686 112.007 30.0126 112.459 29.9536C112.522 29.9436 112.573 29.8976 112.661 29.9486C112.865 30.0686 112.972 29.9906 113.101 29.9536C113.271 29.8866 113.478 29.8966 113.681 29.9036C113.782 29.9076 113.903 29.9606 114.011 29.9876C114.11 30.0146 114.143 30.1926 114.128 30.2256C114.081 30.3156 114.178 30.3716 114.216 30.4386C114.228 30.4616 114.246 30.4906 114.251 30.5126C114.257 30.5366 114.085 30.7786 113.934 31.0766C113.768 31.3476 113.579 31.5856 113.536 31.6196C113.527 31.6676 112.328 32.4896 112.211 32.6096C112.148 32.6696 112.051 32.6736 111.963 32.6926C111.923 32.7066 111.001 33.4046 110.964 33.4296C110.746 33.5296 110.584 33.7156 110.29 33.7026C110.233 33.7006 110.197 33.7346 110.158 33.7616C109.828 34.0056 109.449 34.1796 109.089 34.3836C108.902 34.4866 108.749 34.6316 108.577 34.7516C108.546 34.7736 108.5 34.7776 108.463 34.7916C108.416 34.8096 108.366 34.8226 108.329 34.8526C107.944 35.1666 107.497 35.4126 107.165 35.7886C107.085 35.8696 106.557 36.1056 106.477 36.2156C106.429 36.2726 106.078 36.2626 106.061 36.3406Z" fill="#231F20"/>
<path fillRule="evenodd" clipRule="evenodd" d="M105.806 58.0994C105.618 58.2154 105.495 57.9624 105.359 57.4924C105.316 57.3414 105.328 56.8944 105.391 56.8354C105.512 56.7184 105.64 56.6064 105.772 56.5294C105.85 56.4574 107.099 56.3984 107.522 56.4324C107.943 56.4254 108.32 56.5454 108.706 56.6544C109.462 56.9184 110.213 57.1894 110.914 57.5354C111.073 57.6074 111.219 57.7054 111.348 57.8264C111.798 58.2344 112.299 58.5264 112.815 58.8034C112.9 58.8504 112.976 58.9154 113.098 58.9014C113.309 58.8634 114.607 59.7744 114.73 59.9494C115.061 60.3534 115.345 60.8094 115.639 61.2384C115.681 61.2994 115.753 61.3324 115.747 61.4414C115.731 61.6964 115.862 61.7764 115.962 61.8954C116.1 62.0604 116.229 62.2374 116.338 62.4324C116.392 62.5294 116.401 62.6744 116.425 62.8004C116.445 62.9154 116.247 63.0574 116.205 63.0564C116.083 63.0514 116.062 63.1874 116.001 63.2664C115.98 63.2944 115.953 63.3294 115.931 63.3474C115.897 63.3604 114.633 63.0344 114.525 62.9774C114.518 62.9734 114.419 62.9204 114.269 62.8394C114.119 62.7644 113.92 62.6624 113.715 62.5584C113.289 62.3764 112.917 62.1004 112.817 62.0774C112.724 62.0364 112.674 61.9364 112.612 61.8524C112.584 61.8044 111.384 61.2094 111.34 61.1864C111.124 61.0154 110.85 60.9464 110.717 60.6394C110.691 60.5784 110.638 60.5584 110.59 60.5324C110.171 60.3234 109.802 60.0274 109.407 59.7774C109.207 59.6414 108.98 59.5734 108.767 59.4714C108.729 59.4534 108.702 59.4094 108.668 59.3804C108.625 59.3444 108.587 59.2964 108.537 59.2774C108.018 59.0874 107.53 58.7934 106.986 58.7374C106.866 58.7154 106.335 58.3754 106.186 58.3944C106.109 58.3944 105.886 58.0444 105.806 58.0994Z" fill="#231F20"/>
<path fillRule="evenodd" clipRule="evenodd" d="M4.26974 86.0018C4.16174 86.2258 3.89374 86.0538 3.50574 85.6508C3.38274 85.5228 3.14274 85.0608 3.16274 84.9688C3.19974 84.7888 3.24274 84.6118 3.30774 84.4688C3.34774 84.3708 4.29574 83.6518 4.61374 83.3968C4.91974 83.1498 5.26174 82.9798 5.60874 82.8278L7.71174 81.8988C7.86774 81.8328 8.03374 81.7898 8.20774 81.7698C8.80574 81.6978 9.34374 81.4868 9.86474 81.2308C9.95174 81.1888 10.0477 81.1658 10.1047 81.0578C10.1987 80.8788 11.6527 80.3018 11.8627 80.2838C12.3857 80.2388 12.8877 80.1398 13.3957 80.0598C13.4717 80.0578 13.5367 80.0138 13.6347 80.0808C13.8637 80.2348 13.9977 80.1568 14.1537 80.1288C14.3687 80.0868 14.5887 80.0568 14.8187 80.0508C14.9327 80.0478 15.0707 80.1028 15.1987 80.1328C15.3147 80.1608 15.3577 80.3838 15.3377 80.4228C15.2797 80.5298 15.3967 80.5998 15.4437 80.6818C15.4587 80.7098 15.4797 80.7478 15.4867 80.7738C15.4937 80.8078 14.6017 81.9138 14.4897 82.0048C14.4917 82.1008 12.8547 82.9168 12.6897 83.0518C12.5987 83.1148 12.4787 83.1098 12.3677 83.1228C12.3147 83.1288 11.0497 83.8658 10.9957 83.8838C10.7097 83.9798 10.4657 84.1728 10.1167 84.1068C10.0477 84.0938 9.99574 84.1278 9.94274 84.1538C9.48174 84.3858 8.97874 84.5148 8.48974 84.6718C8.23874 84.7508 8.00974 84.8808 7.76974 84.9838C7.72674 85.0018 7.67074 84.9928 7.62274 84.9998C7.56174 85.0078 7.49674 85.0058 7.44274 85.0318C6.88674 85.3018 6.27874 85.4518 5.76174 85.7938C5.64474 85.8738 4.93474 85.9388 4.80774 86.0428C4.73674 86.0998 4.31274 85.9108 4.26974 86.0018Z" fill="#231F20"/>
<path fillRule="evenodd" clipRule="evenodd" d="M8.75505 57.1678C8.92405 57.0968 8.97905 57.3388 8.96705 57.7678C8.96305 57.9038 8.84705 58.2908 8.79305 58.3348C8.68605 58.4198 8.58005 58.5018 8.48105 58.5538C8.42005 58.5838 7.61405 58.5688 7.34305 58.5928C7.07805 58.6088 6.83305 58.5678 6.59005 58.5158C6.10005 58.4148 5.60905 58.3418 5.13205 58.2898C5.02605 58.2758 4.92205 58.2398 4.82305 58.1928C4.47905 58.0168 4.11105 57.9908 3.75505 58.0118C3.69605 58.0158 3.63505 58.0008 3.57705 58.0668C3.47605 58.1568 2.55505 58.1928 2.43105 58.1688C2.11805 58.0688 1.79705 58.0148 1.46505 57.9788C1.41805 57.9758 1.37905 58.0088 1.31805 57.9478C1.17805 57.8068 1.08905 57.8598 0.988047 57.8718C0.847047 57.8838 0.711047 57.9158 0.557047 57.9078C0.482047 57.9058 0.382047 57.8448 0.287047 57.8038C0.201047 57.7658 0.139047 57.5398 0.151047 57.5078C0.184047 57.4148 0.0880474 57.3328 0.0430474 57.2458C0.0280474 57.2158 0.00804739 57.1778 0.00104739 57.1518C-0.0309526 57.1008 0.680047 56.3248 0.798047 56.2938C0.804047 56.2568 2.14805 55.7108 2.32205 55.7048C2.40505 55.6758 2.49505 55.7098 2.58105 55.7278C2.61905 55.7118 3.75205 55.5078 3.79905 55.5268C4.03405 55.5418 4.27305 55.4938 4.48805 55.6828C4.53005 55.7198 4.57705 55.7148 4.62305 55.7158C5.01705 55.7318 5.39405 55.8538 5.76205 55.9648C5.95105 56.0198 6.14405 56.0398 6.33405 56.0798C6.36805 56.0868 6.39705 56.1188 6.42905 56.1368C6.46805 56.1598 6.50605 56.1918 6.54905 56.1998C6.99605 56.2838 7.40905 56.4818 7.85505 56.5298C7.96005 56.5408 8.37405 56.8588 8.49205 56.8658C8.55905 56.8698 8.68805 57.1968 8.75505 57.1678Z" fill="#231F20"/>
<path fillRule="evenodd" clipRule="evenodd" d="M14.717 42.6121C14.946 42.6561 14.911 42.9451 14.692 43.3561C14.622 43.4871 14.306 43.7861 14.227 43.7961C14.072 43.8151 13.924 43.8331 13.8 43.8281C13.741 43.8201 12.868 43.3661 12.554 43.2371C12.243 43.1111 11.986 42.9261 11.719 42.7371C11.189 42.3491 10.627 41.9891 10.076 41.6161C9.95395 41.5331 9.84195 41.4341 9.74295 41.3171C9.40295 40.9161 8.98195 40.6251 8.53495 40.3741C8.46095 40.3331 8.39495 40.2751 8.28695 40.2881C8.11295 40.3051 6.94495 39.5601 6.83395 39.4001C6.54095 39.0321 6.21495 38.7121 5.89995 38.3741C5.85495 38.3261 5.78395 38.3101 5.77895 38.2101C5.76695 37.9781 5.63495 37.9281 5.52695 37.8401C5.37595 37.7181 5.23095 37.5881 5.10295 37.4321C5.03895 37.3541 5.01595 37.2161 4.98095 37.0951C4.94895 36.9851 5.13295 36.7801 5.17395 36.7711C5.29295 36.7451 5.30195 36.5991 5.35595 36.4991C5.37395 36.4651 5.39795 36.4211 5.41695 36.3971C5.45895 36.3461 6.66595 36.5221 6.76995 36.5871C6.78195 36.5931 7.15495 36.7751 7.55195 36.9681C7.94595 37.1571 8.35895 37.3551 8.44895 37.3871C8.54295 37.4201 8.59995 37.5101 8.66495 37.5881C8.69595 37.6221 9.87495 38.2081 9.91595 38.2431C10.129 38.4111 10.395 38.5041 10.522 38.7971C10.547 38.8541 10.598 38.8771 10.645 38.9041C11.046 39.1451 11.393 39.4621 11.751 39.7671C11.934 39.9221 12.143 40.0391 12.337 40.1811C12.372 40.2071 12.391 40.2531 12.42 40.2871C12.456 40.3311 12.486 40.3821 12.531 40.4121C13.004 40.7271 13.404 41.1441 13.907 41.4341C14.024 41.5051 14.393 42.0561 14.529 42.1431C14.607 42.1901 14.626 42.5991 14.717 42.6121Z" fill="#231F20"/>
<path fillRule="evenodd" clipRule="evenodd" d="M37.1188 3.66192C37.9588 5.14092 38.8148 6.59292 39.7448 8.01192C40.6798 9.42592 41.6998 10.7909 42.7588 12.1209C43.8208 13.4509 44.9288 14.7419 46.0178 16.0439C47.1218 17.3339 48.2578 18.5959 49.4248 19.8109C50.0758 20.5219 49.8758 21.4009 49.3508 21.9279C48.8298 22.4509 47.9258 22.6279 47.2098 21.8959C46.0108 20.5919 44.8768 19.2439 43.7958 17.8559C42.7038 16.4769 41.7128 15.0199 40.7718 13.5329C39.8278 12.0479 38.9328 10.5299 38.1288 8.95692C37.3228 7.39092 36.5778 5.76392 36.1878 4.01292C36.1318 3.50292 36.7988 3.27592 37.1188 3.66192Z" fill="#231F20"/>
<path fillRule="evenodd" clipRule="evenodd" d="M70.6827 2.76152C70.1217 3.94952 69.5577 5.16052 69.1347 6.45652C68.7047 7.74352 68.3337 9.06252 68.0237 10.3975C67.4017 13.0545 66.9167 15.7975 66.7187 18.4275C66.6427 19.1595 65.7047 19.4445 64.7807 19.3945C63.8697 19.3465 62.9667 18.8245 63.0987 17.9595C63.6637 15.0375 64.5147 12.3195 65.5357 9.62352C66.0477 8.28152 66.6157 6.95552 67.2837 5.66652C67.9717 4.39852 68.6317 3.05652 69.8187 2.04952C70.2137 1.82052 70.7547 2.35452 70.6827 2.76152Z" fill="#231F20"/>
<path fillRule="evenodd" clipRule="evenodd" d="M88.2654 5.61452C87.6434 7.19352 87.1334 8.85252 86.6184 10.5125L85.0694 15.5295C84.5324 17.2065 83.9734 18.8865 83.3234 20.5615C82.6624 22.2365 81.9454 23.9075 80.9254 25.5675C80.6444 26.0395 80.1404 26.2455 79.7114 26.2435C79.2674 26.2425 78.8374 26.0365 78.4864 25.7305C77.7934 25.0895 77.3604 24.1815 77.8514 23.4845C78.7724 22.2385 79.5874 20.7565 80.3504 19.2475C81.1114 17.7295 81.8164 16.1525 82.5164 14.5665L84.6064 9.76152C85.3204 8.15552 86.0394 6.54352 86.9084 4.96352C87.1734 4.52952 88.3814 5.14352 88.2654 5.61452Z" fill="#231F20"/>
<path fillRule="evenodd" clipRule="evenodd" d="M23.2146 73.4012C27.7466 84.7442 37.8746 93.9222 49.7776 97.0912C54.1186 98.2442 58.6576 98.4562 63.1096 97.9232C70.9746 96.9892 78.5556 93.5662 84.6266 88.3832C90.7026 83.2142 95.2616 76.1742 96.9656 68.3282C98.4776 61.3772 98.2046 53.9402 96.0446 47.2192C94.6856 42.8942 92.5346 38.8312 89.7396 35.2882C86.9726 31.7082 83.4436 28.7912 79.6256 26.3682C77.2556 24.8512 77.8696 24.3382 80.3826 24.9652C81.0116 25.1232 81.7606 25.3532 82.6096 25.6582C83.4256 26.0122 84.3046 26.5012 85.2716 27.0462C85.7456 27.3292 86.2656 27.6002 86.7496 27.9522C87.2216 28.3172 87.7076 28.7042 88.2026 29.1122C88.6976 29.5212 89.2016 29.9502 89.7106 30.3982C90.1936 30.8722 90.6386 31.4062 91.1076 31.9382C94.4096 35.7192 96.9286 40.1652 98.5536 44.8892C100.184 49.6162 100.951 54.6092 100.9 59.5842C100.841 64.5572 99.9846 69.5352 98.1886 74.2272C96.3756 78.9052 93.6506 83.2022 90.2366 86.8252C86.1376 91.1322 81.2136 94.8112 75.6546 97.2932C70.1496 99.8642 64.0106 101.176 57.9286 101.107C54.5776 101.038 51.2596 100.459 48.0416 99.5822C44.8476 98.6042 41.7816 97.2702 38.8926 95.6232C36.0526 93.8972 33.3526 91.9422 30.9426 89.6592C28.5736 87.3452 26.3426 84.8682 24.5386 82.0822C22.2826 78.6852 20.5066 74.9642 19.3396 71.0522C18.1656 67.1382 17.6336 63.0492 17.7246 58.9832C17.7516 55.8962 18.2556 52.8242 19.0206 49.8402C19.3866 48.3392 19.9226 46.8922 20.4436 45.4422L21.3666 43.3222C21.6656 42.6122 22.0616 41.9492 22.4036 41.2602C23.8616 38.5512 25.6036 36.0032 27.5906 33.6702C29.6026 31.3592 31.8416 29.2602 34.2556 27.4012C38.0216 24.5352 42.1696 22.2142 46.6116 20.6782C51.0356 19.1092 55.7286 18.2452 60.4706 18.3062C60.9926 18.3102 61.5116 18.3142 62.0296 18.3182L63.5786 18.4372C64.0936 18.4842 64.6146 18.5042 65.1306 18.5782C65.6446 18.6602 66.1616 18.7432 66.6826 18.8262C67.6526 18.9602 68.5186 19.1882 69.3136 19.3912C70.1106 19.5862 70.8316 19.7732 71.4666 20.0182C72.1056 20.2492 72.6816 20.4582 73.2056 20.6482C73.7246 20.8482 74.1646 21.0922 74.5696 21.2902C76.1956 22.0812 76.9906 22.8072 77.5426 23.5242C77.7936 23.8522 78.1446 24.2302 78.2476 24.4832C78.4226 24.9112 77.7616 24.8852 76.4686 24.4782C76.1456 24.3762 75.7826 24.2502 75.3816 24.1012C74.9736 23.9712 74.5236 23.8292 74.0336 23.6732C73.5486 23.5092 73.0246 23.3322 72.4646 23.1432C71.8946 22.9812 71.2876 22.8092 70.6456 22.6272C63.0366 20.4422 54.6316 20.8522 46.9706 23.6482C43.1286 25.0192 39.5066 27.0562 36.2136 29.5252C34.5506 30.7452 33.0346 32.1522 31.5616 33.5972C30.1526 35.1052 28.7816 36.6572 27.6096 38.3582C25.8346 40.8562 24.3316 43.5532 23.2056 46.4052C22.0886 49.2592 21.3276 52.2492 20.9456 55.2902C20.5686 58.3302 20.5306 61.4272 20.9526 64.4812C21.3906 67.5112 22.0546 70.5272 23.2766 73.3592L23.2146 73.4012Z" fill="#231F20"/>
<path fillRule="evenodd" clipRule="evenodd" d="M20.6945 6.40702C21.7835 8.16102 23.0075 9.83302 24.2045 11.513C25.4075 13.193 26.7015 14.808 27.9495 16.449C30.4765 19.708 33.1066 22.894 35.8566 25.916C37.3846 27.666 34.1336 30.543 32.5806 28.631C30.0255 25.24 27.6816 21.745 25.4675 18.166C24.3495 16.385 23.3375 14.535 22.3345 12.686C21.3255 10.84 20.4255 8.93002 19.5555 7.01302C19.3345 6.46402 20.3315 5.94302 20.6945 6.40702Z" fill="#231F20"/>
<path fillRule="evenodd" clipRule="evenodd" d="M25.5436 18.2815C27.1236 20.0105 28.7336 21.7105 30.4176 23.2615C31.2556 24.0405 32.1396 24.7695 33.0436 25.5535C33.9456 26.3405 34.8246 27.1765 35.6636 28.0325C36.5956 29.0585 34.5976 30.7305 33.7546 29.7285C33.0366 28.8345 32.2996 27.9725 31.5176 27.1315C30.7346 26.2905 29.8956 25.4295 29.1126 24.5175C28.3186 23.6145 27.6206 22.6435 26.9246 21.6855C26.2226 20.7315 25.5896 19.7315 24.9316 18.7555C24.7606 18.4725 25.2936 18.0585 25.5436 18.2815Z" fill="#231F20"/>
<path fillRule="evenodd" clipRule="evenodd" d="M70.4733 3.01842C70.3963 3.20542 70.1793 3.18342 69.8493 3.06342C69.7443 3.02442 69.5313 2.81042 69.5453 2.74042C69.5713 2.60342 69.6023 2.46442 69.6543 2.34042C69.6643 2.25242 70.5083 1.37742 70.8723 1.15942C71.1883 0.897423 71.5583 0.736423 71.9303 0.583423C72.6923 0.311423 73.4763 0.0924228 74.2643 0.0204228C74.4383 -0.00557715 74.6153 -0.00657715 74.7893 0.0164228C75.3893 0.0764228 75.9723 0.0854228 76.5563 0.101423C76.6533 0.103423 76.7513 0.119423 76.8493 0.0774228C77.0173 -0.0195772 78.5843 0.205423 78.7673 0.312423C79.2923 0.532423 79.7073 0.705423 80.1693 0.899423C80.2353 0.928423 80.3113 0.934423 80.3583 1.00742C80.4663 1.17742 80.6163 1.20242 80.7583 1.25742C80.9563 1.33142 81.1493 1.42142 81.3353 1.52742C81.4273 1.58042 81.5033 1.67642 81.5833 1.75942C81.6553 1.83342 81.5543 1.98242 81.5173 1.99142C81.4113 2.01642 81.4583 2.11742 81.4443 2.18842C81.4393 2.21242 81.4323 2.24442 81.4223 2.26142C81.3993 2.28642 80.1783 2.29042 80.0563 2.27742C80.0423 2.27542 79.6193 2.20842 79.1713 2.13742C78.7253 2.08242 78.2643 2.03242 78.1683 2.03842C78.0683 2.03742 77.9753 1.99342 77.8823 1.95742C77.8353 1.91842 76.5163 1.88142 76.4693 1.88842C76.2003 1.84542 75.9333 1.89342 75.6683 1.76842C75.6163 1.74342 75.5613 1.74842 75.5083 1.74942C75.0483 1.77442 74.5913 1.75042 74.1363 1.78342C73.9003 1.78542 73.6823 1.86842 73.4553 1.90542C73.4153 1.91342 73.3703 1.90342 73.3273 1.90342C73.2733 1.90242 73.2193 1.90142 73.1703 1.91842C72.6563 2.08042 72.1123 2.19242 71.6773 2.51142C71.5673 2.56142 71.0033 2.76942 70.8993 2.87842C70.8363 2.92342 70.5033 2.93542 70.4733 3.01842Z" fill="#231F20"/>
<path fillRule="evenodd" clipRule="evenodd" d="M37.1858 4.34112C37.3518 4.44512 37.3238 4.66012 37.1588 4.89812C37.1068 4.97412 36.8738 5.09912 36.8168 5.08512C36.7058 5.05512 36.5998 5.02912 36.5128 4.99412C36.4718 4.94812 35.8848 4.49012 35.6278 4.46212C35.4188 4.36912 35.1828 4.31812 34.9708 4.22812C34.5098 4.08112 33.9858 4.04912 33.4568 4.03512C33.3358 4.04012 33.2158 4.02912 33.0948 4.00512C32.6798 3.91212 32.2438 3.93612 31.8148 4.01012C31.7438 4.02212 31.6688 4.02212 31.6048 4.07612C31.5028 4.15812 30.3228 4.34012 30.1588 4.34012C29.6948 4.32312 29.3448 4.31112 28.9448 4.29712C28.8868 4.29312 28.8298 4.31612 28.7678 4.27212C28.6248 4.17112 28.5068 4.20612 28.3818 4.21312C28.2098 4.22512 28.0338 4.22212 27.8558 4.20612C27.7688 4.19812 27.6748 4.15212 27.5848 4.12012C27.5038 4.09112 27.5228 3.94812 27.5458 3.92712C27.6148 3.86912 27.5418 3.81312 27.5258 3.75712C27.5198 3.73812 27.5128 3.71312 27.5138 3.69612C27.5148 3.67812 27.7428 3.55112 27.9768 3.41012C28.2118 3.27112 28.4598 3.12412 28.5108 3.11012C28.5168 3.10812 28.6058 3.07612 28.7398 3.02812C28.8728 2.97512 29.0528 2.92212 29.2368 2.86312C29.6058 2.74212 29.9968 2.63312 30.0788 2.61012C30.1618 2.58212 30.2538 2.59712 30.3428 2.60012C30.3788 2.59612 31.5348 2.30712 31.5908 2.31612C31.8408 2.30312 32.0848 2.22112 32.3468 2.32412C32.3978 2.34412 32.4488 2.33412 32.4988 2.32812C32.9308 2.27612 33.3758 2.32512 33.8198 2.39812C34.0468 2.43212 34.2758 2.43712 34.5088 2.48912C34.5508 2.49712 34.5888 2.52212 34.6288 2.53712C34.6798 2.55612 34.7288 2.58212 34.7808 2.59112C35.3288 2.70612 35.8518 2.95512 36.3658 3.24212C36.4248 3.27612 36.5708 3.41412 36.7118 3.54912C36.8368 3.70912 36.9568 3.86812 37.0168 3.91712C37.0958 3.96812 37.1318 4.29612 37.1858 4.34112Z" fill="#231F20"/>
<path fillRule="evenodd" clipRule="evenodd" d="M28.9757 71.1688C32.7837 80.6908 41.2857 88.3928 51.2787 91.0518C54.9227 92.0188 58.7337 92.1978 62.4697 91.7498C69.0717 90.9638 75.4337 88.0888 80.5277 83.7378C85.6247 79.3988 89.4507 73.4898 90.8797 66.9048C92.1467 61.0718 91.9187 54.8328 90.1067 49.1918C88.9667 45.5618 87.1637 42.1518 84.8177 39.1778C82.4957 36.1728 79.5337 33.7248 76.3277 31.6938C74.3367 30.4228 74.8467 30.0068 76.9457 30.5458C77.4717 30.6818 78.0977 30.8778 78.8067 31.1358C79.4897 31.4358 80.2237 31.8468 81.0317 32.3058C81.4287 32.5438 81.8627 32.7728 82.2677 33.0678C82.6607 33.3828 83.0657 33.7078 83.4827 34.0418C83.8967 34.3848 84.3187 34.7448 84.7447 35.1208C85.1487 35.5178 85.5217 35.9648 85.9137 36.4098C91.4887 42.7628 94.2257 51.2588 94.1167 59.5668C94.0687 63.7328 93.3517 67.9048 91.8487 71.8348C90.3317 75.7538 88.0507 79.3548 85.1917 82.3918C81.7587 86.0018 77.6327 89.0848 72.9757 91.1648C68.3617 93.3198 63.2177 94.4188 58.1217 94.3608C55.3137 94.3038 52.5347 93.8188 49.8377 93.0848C47.1617 92.2658 44.5917 91.1478 42.1697 89.7678C39.7897 88.3218 37.5277 86.6838 35.5067 84.7708C33.5217 82.8318 31.6517 80.7558 30.1387 78.4208C26.3377 72.7508 24.2307 65.8908 24.4267 59.0638C24.4487 56.4768 24.8707 53.9018 25.5117 51.4018C26.1557 48.8978 27.1137 46.4758 28.3467 44.2098C29.5677 41.9398 31.0287 39.8038 32.6937 37.8478C34.3797 35.9108 36.2567 34.1508 38.2797 32.5938C41.4367 30.1908 44.9137 28.2478 48.6377 26.9608C52.3457 25.6478 56.2797 24.9248 60.2527 24.9768C60.6897 24.9808 61.1247 24.9848 61.5587 24.9888L62.8567 25.0878C63.7257 25.1328 64.5857 25.2618 65.4577 25.4158C68.6787 26.0138 70.7277 26.7778 72.0677 27.4768C73.4307 28.1368 74.0997 28.7408 74.5657 29.3348C74.7777 29.6068 75.0737 29.9208 75.1627 30.1298C75.3117 30.4828 74.7607 30.4568 73.6777 30.1108C73.1407 29.9288 72.4627 29.6798 71.6367 29.4298C71.2297 29.2918 70.7897 29.1428 70.3197 28.9828C69.8427 28.8468 69.3327 28.7018 68.7947 28.5478C62.4087 26.7088 55.3517 27.0498 48.9187 29.3948C45.6927 30.5458 42.6517 32.2548 39.8867 34.3278C37.1177 36.4008 34.6567 38.9068 32.6627 41.7438C31.1717 43.8408 29.9097 46.1068 28.9647 48.5008C28.0267 50.8978 27.3877 53.4078 27.0677 55.9618C26.4067 61.0748 27.0827 66.3638 29.0267 71.1338L28.9757 71.1688Z" fill="#231F20"/>
</svg>
