<svg width="98" height="113" viewBox="0 0 98 113" fill="none" xmlns="http://www.w3.org/2000/svg">
<path fillRule="evenodd" clipRule="evenodd" d="M84.4062 75.5214C83.6532 74.0724 82.9492 72.5924 82.1532 71.1614C81.3332 69.7444 80.5652 68.2934 79.6712 66.9184C79.0252 65.9104 78.3722 64.9074 77.6952 63.9224C75.4062 60.3754 72.8802 56.9804 70.2022 53.7064C69.5962 52.9904 68.9862 52.2724 68.3542 51.5784C67.7012 50.9034 67.0502 50.2304 66.4032 49.5624C65.5752 48.6984 64.6592 47.9244 63.8052 47.0874C63.3842 46.6614 62.9272 46.2774 62.5102 45.8484C62.0962 45.4154 61.6912 44.9724 61.2942 44.5194C60.8032 43.9494 61.1142 43.7294 61.8702 43.8294C62.2492 43.8784 62.7432 44.0044 63.2952 44.2164C63.8532 44.4194 64.4492 44.7344 64.9582 45.2214C68.6482 48.5914 72.0012 52.3114 74.9042 56.4034C75.7562 57.6384 76.6692 58.8614 77.5912 60.0884C78.4712 61.3464 79.4032 62.5794 80.2372 63.8624C82.0632 66.6894 83.8062 69.5724 85.3702 72.5534C86.3772 74.3624 87.2392 76.2494 88.1472 78.1074C88.7992 79.5334 89.3932 80.9904 90.0182 82.4274C90.5752 83.8954 91.1312 85.3594 91.6832 86.8144C92.0732 87.9614 92.4942 89.0864 92.9262 90.2084C93.3132 91.3444 93.6742 92.4884 94.0422 93.6394C94.2132 94.1434 94.3782 94.6394 94.4832 95.1664C94.9252 97.1084 94.8452 97.7714 94.2542 98.2934C94.1202 98.4124 93.9932 98.5604 93.8532 98.6384C93.3912 98.8974 92.7742 98.1964 92.3612 96.8534C91.1582 92.8624 89.9082 88.6884 88.2942 84.5854C87.7592 83.0414 87.0532 81.5544 86.4412 80.0294C85.7912 78.5194 85.0562 77.0424 84.3582 75.5514L84.4062 75.5214Z" fill="#231F20"/>
<path fillRule="evenodd" clipRule="evenodd" d="M30.248 110.859C26.303 110.141 22.36 109.268 18.538 107.758C16.637 106.99 14.739 106.086 13.048 104.669C12.213 103.958 11.422 103.091 10.898 101.992C10.836 101.854 10.762 101.722 10.711 101.578L10.543 101.051C10.304 100.64 10.547 100.149 10.574 99.8908L10.914 98.3718C11.703 95.4928 12.654 92.7168 13.838 90.0508C17.968 80.6318 23.259 71.8298 29.265 63.5578C30.591 61.7178 32.013 59.9388 33.395 58.1388L35.574 55.5228L36.659 54.2178L37.805 52.9698C41.663 48.6718 45.855 44.4848 50.897 41.5088C52.45 40.5628 52.448 41.0498 51.476 42.3128C50.987 42.9398 50.286 43.7928 49.344 44.6618C48.426 45.5678 47.387 46.6658 46.134 47.6948C37.522 55.3848 30.402 64.7398 24.132 74.6658C23.665 75.4108 23.187 76.1548 22.733 76.9178C22.294 77.6888 21.853 78.4628 21.412 79.2398C20.509 80.7858 19.705 82.3958 18.884 84.0018C18.048 85.6018 17.342 87.2658 16.563 88.8958C15.887 90.5638 15.119 92.2018 14.533 93.8858C14.195 94.8068 13.824 95.7218 13.563 96.6568C13.281 97.5878 12.957 98.5178 12.79 99.4518C12.706 99.8888 12.531 100.505 12.567 100.573C12.582 100.596 12.636 100.853 12.737 101.02C12.825 101.203 12.906 101.39 13.033 101.561C13.482 102.268 14.139 102.897 14.874 103.447C16.36 104.548 18.146 105.348 19.959 106.026C21.786 106.693 23.677 107.228 25.591 107.682C30.311 108.784 35.157 109.456 40.011 109.9C47.37 110.56 54.822 110.775 62.16 110.488C67.861 110.254 73.444 109.665 78.949 108.657C80.158 108.428 81.33 108.159 82.526 107.877C84.742 107.342 86.138 106.89 87.11 106.611C88.094 106.351 88.672 106.249 89.226 106.207C89.492 106.202 89.782 106.088 89.983 106.088C90.15 106.087 90.207 106.177 90.147 106.382C90.091 106.596 89.899 106.899 89.563 107.253C88.892 107.944 87.652 108.747 85.967 109.328C80.979 111.032 75.741 111.743 70.436 112.271C65.127 112.768 59.73 112.939 54.326 112.895C46.3 112.804 38.235 112.258 30.248 110.915V110.859Z" fill="#231F20"/>
<path fillRule="evenodd" clipRule="evenodd" d="M56.5038 68.7665C59.1178 68.4485 61.7258 68.1235 64.2538 67.6615C65.5128 67.4295 66.7628 67.1585 67.8878 66.7925C68.1658 66.7015 68.4388 66.6035 68.6808 66.4975C68.8048 66.4485 68.9528 66.3725 68.9238 66.3915L68.9998 66.3525C69.0958 66.3025 69.2048 66.1975 69.1668 66.0745C69.1558 65.9945 69.1048 65.9285 69.0508 65.8675C69.0408 65.8525 69.0168 65.8335 69.0108 65.8295L68.9268 65.7645C68.8118 65.6735 68.6418 65.5915 68.5038 65.5015C67.8828 65.1615 67.1368 64.8625 66.3588 64.6055C64.7928 64.0935 63.1078 63.7045 61.4158 63.3325C58.3028 62.6775 55.1188 62.1075 51.9458 61.2195C50.3138 60.7235 48.6748 60.1635 47.0908 59.3125C46.3098 58.8845 45.4938 58.4405 44.7518 57.7985C44.0198 57.1745 43.2968 56.2905 43.0628 55.1495C42.8968 54.2695 43.1718 53.5665 43.4218 53.0265C43.6898 52.4715 44.0118 52.0135 44.3468 51.5835C45.0158 50.7215 45.7518 49.9875 46.5008 49.2775C48.0048 47.8685 49.5938 46.6125 51.1948 45.3875L53.5978 43.5835L54.0098 43.2695C54.1218 43.2175 54.1228 43.1115 54.1198 42.9985L54.1438 42.3965C54.1558 42.1575 54.1488 41.9045 54.1528 41.6585C54.1728 39.6825 54.1178 37.6815 54.0708 35.6875C53.9348 30.6745 53.6508 25.6305 53.3738 20.6555C53.1998 17.4575 53.0248 14.2515 52.8508 11.0485C52.6998 7.84148 52.5728 4.63448 52.6948 1.41348C52.7958 -0.603523 53.0888 -0.316523 53.5168 1.35748C53.7418 2.19548 54.0028 3.38148 54.2858 4.81848C54.5398 6.25548 54.7398 7.94548 54.8578 9.78448C55.2908 16.3045 55.6368 22.8345 55.9068 29.3875C56.0398 32.6645 56.1718 35.9445 56.2208 39.2505C56.2378 40.0755 56.2368 40.9085 56.2308 41.7445C56.2328 42.1755 56.2168 42.5455 56.1968 43.0615C56.1898 43.4365 56.1698 43.8085 56.1368 44.1755C55.8728 44.4205 55.5658 44.6855 55.3058 44.8865L51.2958 47.9105C49.9558 48.9545 48.6378 50.0505 47.4438 51.2385C46.8528 51.8315 46.2828 52.4515 45.8298 53.0925C45.3738 53.6965 45.0528 54.4875 45.1408 54.6945C45.3168 55.3855 45.9348 56.0665 46.7828 56.6005C47.6138 57.1695 48.6688 57.4675 49.6898 57.8135C51.7748 58.4325 53.9678 58.9095 56.1678 59.3655C58.8378 59.8965 61.5398 60.4205 64.2628 61.0795C65.6248 61.4175 66.9918 61.7845 68.3688 62.3265C69.0558 62.5835 69.7518 62.9335 70.4408 63.3675L71.0508 63.8365C71.2568 64.0155 71.4078 64.2385 71.5888 64.4375C71.7878 64.6285 71.8768 64.8755 71.9958 65.1065C72.1278 65.3325 72.1928 65.5885 72.2698 65.8375C72.3258 66.1405 72.3228 66.4645 72.2578 66.7725C72.1688 67.0735 72.0518 67.3685 71.8568 67.6185C71.4948 68.1385 70.9318 68.5155 70.3478 68.8375C69.7938 69.1205 69.4368 69.2445 68.9798 69.4085C68.5468 69.5585 68.1188 69.6825 67.6918 69.7985C65.9838 70.2515 64.2948 70.5415 62.6068 70.8065C57.1578 71.6565 51.7028 72.0535 46.3588 72.8755C45.3518 73.0425 44.3488 73.2245 43.3688 73.4495C42.8788 73.5615 42.3978 73.6875 41.9278 73.8285C41.6948 73.9005 41.4648 73.9765 41.2428 74.0595L40.9188 74.1885C40.8198 74.2275 40.7828 74.2505 40.7118 74.2825C40.4708 74.4045 40.2018 74.5595 40.1038 74.8305C40.0048 75.1215 40.2468 75.3575 40.3828 75.5915C40.4318 75.6975 40.5928 75.8495 40.7498 76.0265C40.9118 76.1885 41.0358 76.3805 41.2318 76.5165C41.5898 76.8145 41.9448 77.1175 42.3668 77.3545C43.9908 78.3745 45.9288 78.9925 47.8858 79.4525C49.8508 79.9115 51.8658 80.2175 53.8878 80.4595C60.1828 81.2295 66.4638 81.2865 72.8118 82.5145C74.2078 82.7845 75.5808 83.1095 76.9728 83.5875C79.5518 84.4895 81.1498 85.5995 82.0628 86.5695C82.2878 86.8195 82.4808 87.0485 82.6438 87.2615C82.7928 87.4905 82.9018 87.7155 82.9958 87.9165C83.1838 88.3205 83.2658 88.6745 83.2538 89.0285C83.2558 89.3435 83.2918 89.7105 83.2278 89.9045C83.1208 90.2305 82.6898 89.9855 82.0828 89.3895C81.3878 88.8465 80.4408 87.9805 78.8918 87.1955C77.7648 86.5935 76.5018 86.1525 75.1958 85.7955C73.8988 85.4205 72.5308 85.1655 71.1558 84.9235C68.3878 84.4725 65.5278 84.1865 62.6208 83.9265C59.7118 83.6675 56.7548 83.4325 53.7598 83.0825C50.7638 82.7025 47.7248 82.2815 44.6558 81.2795C43.5198 80.9135 42.3778 80.4355 41.2648 79.7945L40.4398 79.2755C40.1678 79.0925 39.9088 78.8625 39.6468 78.6545C39.3788 78.4535 39.1308 78.2135 38.8978 77.9455L38.5428 77.5575L38.3428 77.3325C38.2698 77.2165 38.2118 77.0995 38.1458 76.9825L37.3748 75.5835C37.2108 75.1125 37.2178 74.5925 37.3558 74.1065C37.5038 73.6235 37.7708 73.1935 38.1338 72.8255C38.5148 72.4715 38.9598 72.1555 39.4618 71.9235C39.5768 71.8675 39.7238 71.7845 39.8138 71.7505L40.0518 71.6515C40.2108 71.5825 40.3598 71.5325 40.5128 71.4755C40.8168 71.3675 41.1148 71.2715 41.4068 71.1875C41.9948 71.0165 42.5698 70.8755 43.1408 70.7505C47.6868 69.8405 52.0818 69.2735 56.4838 68.6965L56.5038 68.7665Z" fill="#231F20"/>
<path fillRule="evenodd" clipRule="evenodd" d="M53.0429 3.92079C53.0429 3.92079 67.2999 1.91479 71.2079 4.97679C71.2079 4.97679 72.1579 5.61079 71.8409 6.87779C71.5669 7.97379 68.8419 14.4448 68.1129 16.1708C68.0139 16.4048 58.1569 17.1568 54.4889 16.8238C54.1329 16.7918 52.8619 5.00479 53.0429 3.92079Z" fill="#231F20"/>
<path fillRule="evenodd" clipRule="evenodd" d="M72.5532 9.43149C72.3952 9.82549 69.4642 16.9525 68.8472 17.5185C68.3742 17.9515 61.7222 18.1475 61.7222 18.1475C61.7222 18.1475 61.8912 20.6805 63.5462 20.7595C65.2002 20.8375 77.0862 21.3745 78.0322 19.9565C78.6612 19.0115 75.7662 16.2025 75.2152 15.7305C75.2152 15.7305 79.1762 13.4335 79.1792 12.3825C79.1852 10.8065 72.5532 9.43149 72.5532 9.43149Z" fill="#231F20"/>
<path fillRule="evenodd" clipRule="evenodd" d="M12.1161 96.6195C12.1161 96.6195 -0.409913 100.724 0.0100866 104.829C0.0100866 104.829 -0.409912 110.829 25.0631 111.303C25.0631 111.303 33.2761 111.753 37.9061 111.303C37.9061 111.303 14.5951 108.079 12.6361 102.605C10.6761 97.1315 12.1161 96.6195 12.1161 96.6195Z" fill="#231F20"/>
<path fillRule="evenodd" clipRule="evenodd" d="M95.8256 16.9706C96.3696 16.7736 96.9706 17.0556 97.1676 17.5996C98.1426 20.2966 92.9926 17.9946 95.8256 16.9706Z" stroke="#231F20" stroke-width="0.8"/>
<path fillRule="evenodd" clipRule="evenodd" d="M78.122 37.1444C78.176 36.5684 78.687 36.1444 79.263 36.1984C82.119 36.4654 77.841 40.1444 78.122 37.1444Z" fill="#231F20"/>
<path fillRule="evenodd" clipRule="evenodd" d="M33.6362 12.6835C33.6902 12.1075 34.2012 11.6835 34.7772 11.7375C37.6332 12.0045 33.3552 15.6835 33.6362 12.6835Z" fill="#231F20"/>
<path fillRule="evenodd" clipRule="evenodd" d="M42.4565 28.5097C42.5105 27.9337 43.0205 27.5097 43.5975 27.5637C46.4535 27.8307 42.1755 31.5087 42.4565 28.5097Z" stroke="#231F20" stroke-width="0.8"/>
</svg>
