<?xml version="1.0" standalone="no"?>
<!DOCTYPE svg PUBLIC "-//W3C//DTD SVG 20010904//EN"
 "http://www.w3.org/TR/2001/REC-SVG-20010904/DTD/svg10.dtd">
<svg version="1.0" xmlns="http://www.w3.org/2000/svg"
 width="48.000000pt" height="53.000000pt" viewBox="0 0 48.000000 53.000000"
 preserveAspectRatio="xMidYMid meet">

<g transform="translate(0.000000,53.000000) scale(0.100000,-0.100000)"
fill="#000000" stroke="none">
<path d="M145 480 c-62 -4 -87 -10 -113 -29 l-33 -23 22 -24 c21 -22 21 -28
16 -203 -4 -146 -3 -182 9 -191 9 -8 55 -11 146 -8 119 4 140 8 203 34 39 16
69 34 68 39 -2 6 -21 11 -44 13 l-40 3 2 197 2 197 -79 0 c-43 1 -115 -2 -159
-5z m133 -260 l2 -190 -75 0 -75 0 0 60 c0 53 -2 60 -20 60 -18 0 -20 -7 -20
-60 0 -47 -3 -60 -15 -60 -13 0 -15 26 -15 174 0 96 -3 181 -6 190 -5 14 8 16
107 16 l114 0 3 -190z"/>
<path d="M100 339 c0 -11 5 -17 10 -14 6 3 10 13 10 21 0 8 -4 14 -10 14 -5 0
-10 -9 -10 -21z"/>
<path d="M200 345 c0 -8 5 -15 10 -15 6 0 10 7 10 15 0 8 -4 15 -10 15 -5 0
-10 -7 -10 -15z"/>
<path d="M100 240 c0 -11 5 -20 10 -20 6 0 10 9 10 20 0 11 -4 20 -10 20 -5 0
-10 -9 -10 -20z"/>
<path d="M200 246 c0 -22 17 -28 24 -10 9 22 8 24 -9 24 -8 0 -15 -6 -15 -14z"/>
<path d="M202 113 c4 -21 33 -25 33 -3 0 8 -8 16 -18 18 -14 3 -18 -1 -15 -15z"/>
</g>
</svg>
